G04 #@! TF.GenerationSoftware,KiCad,Pcbnew,9.0.1-9.0.1-0~ubuntu22.04.1*
G04 #@! TF.CreationDate,2025-04-10T12:51:45-07:00*
G04 #@! TF.ProjectId,kicad_port,6b696361-645f-4706-9f72-742e6b696361,rev?*
G04 #@! TF.SameCoordinates,Original*
G04 #@! TF.FileFunction,Soldermask,Bot*
G04 #@! TF.FilePolarity,Negative*
%FSLAX46Y46*%
G04 Gerber Fmt 4.6, Leading zero omitted, Abs format (unit mm)*
G04 Created by KiCad (PCBNEW 9.0.1-9.0.1-0~ubuntu22.04.1) date 2025-04-10 12:51:45*
%MOMM*%
%LPD*%
G01*
G04 APERTURE LIST*
%ADD10O,4.750000X2.250000*%
%ADD11O,1.400000X1.400000*%
%ADD12C,1.400000*%
%ADD13O,1.700000X1.700000*%
%ADD14R,1.700000X1.700000*%
%ADD15R,1.800000X1.800000*%
%ADD16C,1.800000*%
%ADD17C,8.600000*%
%ADD18O,2.000000X1.200000*%
%ADD19C,1.511200*%
%ADD20C,6.500000*%
%ADD21C,1.638200*%
G04 APERTURE END LIST*
D10*
X190300000Y-97600000D03*
X109700000Y-97600000D03*
D11*
X135128000Y-124206000D03*
D12*
X135128000Y-129286000D03*
D13*
X171450000Y-98425000D03*
X168910000Y-98425000D03*
D14*
X166370000Y-98425000D03*
D13*
X163830000Y-98425000D03*
X161290000Y-98425000D03*
X158750000Y-98425000D03*
X156210000Y-98425000D03*
D14*
X153670000Y-98425000D03*
D13*
X151130000Y-98425000D03*
X148590000Y-98425000D03*
X146050000Y-98425000D03*
X143510000Y-98425000D03*
D14*
X140970000Y-98425000D03*
D13*
X138430000Y-98425000D03*
X135890000Y-98425000D03*
X133350000Y-98425000D03*
X130810000Y-98425000D03*
D14*
X128270000Y-98425000D03*
D13*
X125730000Y-98425000D03*
X123190000Y-98425000D03*
X123190000Y-80645000D03*
X125730000Y-80645000D03*
D14*
X128270000Y-80645000D03*
D13*
X130810000Y-80645000D03*
X133350000Y-80645000D03*
X135890000Y-80645000D03*
X138430000Y-80645000D03*
D14*
X140970000Y-80645000D03*
D13*
X143510000Y-80645000D03*
X146050000Y-80645000D03*
X148590000Y-80645000D03*
X151130000Y-80645000D03*
D14*
X153670000Y-80645000D03*
D13*
X156210000Y-80645000D03*
X158750000Y-80645000D03*
X161290000Y-80645000D03*
X163830000Y-80645000D03*
D14*
X166370000Y-80645000D03*
D13*
X168910000Y-80645000D03*
X171450000Y-80645000D03*
D15*
X133700000Y-132400000D03*
D16*
X136240000Y-132400000D03*
D15*
X143700000Y-132400000D03*
D16*
X146240000Y-132400000D03*
D15*
X153700000Y-132400000D03*
D16*
X156240000Y-132400000D03*
D15*
X163700000Y-132400000D03*
D16*
X166240000Y-132400000D03*
D17*
X150000000Y-106000000D03*
D18*
X192900000Y-55000000D03*
X190900000Y-56250000D03*
X192900000Y-57500000D03*
X190900000Y-58750000D03*
X192900000Y-60000000D03*
X190900000Y-61250000D03*
X192900000Y-62500000D03*
X190900000Y-63750000D03*
X192900000Y-65000000D03*
X190900000Y-66250000D03*
X192900000Y-67500000D03*
X190900000Y-68750000D03*
X192900000Y-70000000D03*
X107000000Y-70000000D03*
X109000000Y-68750000D03*
X107000000Y-67500000D03*
X109000000Y-66250000D03*
X107000000Y-65000000D03*
X109000000Y-63750000D03*
X107000000Y-62500000D03*
X109000000Y-61250000D03*
X107000000Y-60000000D03*
X109000000Y-58750000D03*
X107000000Y-57500000D03*
X109000000Y-56250000D03*
X107000000Y-55000000D03*
D19*
X198300000Y-103000000D03*
X194950000Y-103000000D03*
X193300000Y-104250000D03*
X198300000Y-105500000D03*
X194950000Y-105500000D03*
X193300000Y-106750000D03*
X198300000Y-108000000D03*
X194950000Y-108000000D03*
X193300000Y-109250000D03*
X198300000Y-110500000D03*
X194950000Y-110500000D03*
X193300000Y-111750000D03*
X198300000Y-113000000D03*
X194950000Y-113000000D03*
X193300000Y-114250000D03*
X198300000Y-115500000D03*
X194950000Y-115500000D03*
X193300000Y-116750000D03*
X198300000Y-118000000D03*
X194950000Y-118000000D03*
X101800000Y-118000000D03*
X105150000Y-118000000D03*
X106800000Y-116750000D03*
X101800000Y-115500000D03*
X105150000Y-115500000D03*
X106800000Y-114250000D03*
X101800000Y-113000000D03*
X105150000Y-113000000D03*
X106800000Y-111750000D03*
X101800000Y-110500000D03*
X105150000Y-110500000D03*
X106800000Y-109250000D03*
X101800000Y-108000000D03*
X105150000Y-108000000D03*
X106800000Y-106750000D03*
X101800000Y-105500000D03*
X105150000Y-105500000D03*
X106800000Y-104250000D03*
X101800000Y-103000000D03*
X105150000Y-103000000D03*
D14*
X173800000Y-129000000D03*
D13*
X176340000Y-129000000D03*
X178880000Y-129000000D03*
X181420000Y-129000000D03*
X183960000Y-129000000D03*
X186500000Y-129000000D03*
X189040000Y-129000000D03*
X191580000Y-129000000D03*
X194120000Y-129000000D03*
X196660000Y-129000000D03*
D14*
X126200000Y-129000000D03*
D13*
X123660000Y-129000000D03*
X121120000Y-129000000D03*
X118580000Y-129000000D03*
X116040000Y-129000000D03*
X113500000Y-129000000D03*
X110960000Y-129000000D03*
X108420000Y-129000000D03*
X105880000Y-129000000D03*
X103340000Y-129000000D03*
D20*
X150000000Y-74500000D03*
D12*
X154940000Y-129286000D03*
D11*
X154940000Y-124206000D03*
D21*
X178657000Y-126590000D03*
X179907000Y-124940000D03*
X181157000Y-126590000D03*
X182407000Y-124940000D03*
X183657000Y-126590000D03*
X184907000Y-124940000D03*
X186157000Y-126590000D03*
X187407000Y-124940000D03*
X188657000Y-126590000D03*
X189907000Y-124940000D03*
X191157000Y-126590000D03*
X192407000Y-124940000D03*
X193657000Y-126590000D03*
X106013000Y-126590000D03*
X107263000Y-124940000D03*
X108513000Y-126590000D03*
X109763000Y-124940000D03*
X111013000Y-126590000D03*
X112263000Y-124940000D03*
X113513000Y-126590000D03*
X114763000Y-124940000D03*
X116013000Y-126590000D03*
X117263000Y-124940000D03*
X118513000Y-126590000D03*
X119763000Y-124940000D03*
X121013000Y-126590000D03*
D12*
X145034000Y-129286000D03*
D11*
X145034000Y-124206000D03*
D12*
X164840000Y-129286000D03*
D11*
X164840000Y-124206000D03*
M02*
