%TF.GenerationSoftware,KiCad,Pcbnew,9.0.1-9.0.1-0~ubuntu22.04.1*%
%TF.CreationDate,2025-04-10T12:53:55-07:00*%
%TF.ProjectId,kicad_port,6b696361-645f-4706-9f72-742e6b696361,rev?*%
%TF.SameCoordinates,Original*%
%TF.FileFunction,Drillmap*%
%TF.FilePolarity,Positive*%
%FSLAX45Y45*%
G04 Gerber Fmt 4.5, Leading zero omitted, Abs format (unit mm)*
G04 Created by KiCad (PCBNEW 9.0.1-9.0.1-0~ubuntu22.04.1) date 2025-04-10 12:53:55*
%MOMM*%
%LPD*%
G01*
G04 APERTURE LIST*
%ADD10C,0.200000*%
%ADD11C,0.225000*%
%ADD12C,0.100000*%
%ADD13C,0.650000*%
G04 APERTURE END LIST*
D10*
X10300000Y-13600000D02*
G75*
G02*
X10000000Y-13300000I0J300000D01*
G01*
X19700000Y-5000000D02*
G75*
G02*
X20000000Y-5300000I0J-300000D01*
G01*
X20000000Y-13300000D02*
G75*
G02*
X19700000Y-13600000I-300000J0D01*
G01*
X10000000Y-5300000D02*
G75*
G02*
X10300000Y-5000000I300000J0D01*
G01*
X10300000Y-13600000D02*
X19700000Y-13600000D01*
X19700000Y-5000000D02*
X10300000Y-5000000D01*
X20000000Y-13300000D02*
X20000000Y-5300000D01*
X10000000Y-13300000D02*
X10000000Y-5300000D01*
D11*
X10857500Y-9647500D02*
X11082500Y-9872500D01*
X11082500Y-9647500D02*
X10857500Y-9872500D01*
D12*
X10845000Y-9872500D02*
X11095000Y-9872500D01*
X11095000Y-9647500D02*
G75*
G02*
X11095000Y-9872500I0J-112500D01*
G01*
X11095000Y-9647500D02*
X10845000Y-9647500D01*
X10845000Y-9647500D02*
G75*
G03*
X10845000Y-9872500I0J-112500D01*
G01*
D11*
X18917500Y-9647500D02*
X19142500Y-9872500D01*
X19142500Y-9647500D02*
X18917500Y-9872500D01*
D12*
X18905000Y-9872500D02*
X19155000Y-9872500D01*
X19155000Y-9647500D02*
G75*
G02*
X19155000Y-9872500I0J-112500D01*
G01*
X19155000Y-9647500D02*
X18905000Y-9647500D01*
X18905000Y-9647500D02*
G75*
G03*
X18905000Y-9872500I0J-112500D01*
G01*
D13*
X15325000Y-7450000D02*
G75*
G02*
X14675000Y-7450000I-325000J0D01*
G01*
X14675000Y-7450000D02*
G75*
G02*
X15325000Y-7450000I325000J0D01*
G01*
D10*
X10250777Y-13921484D02*
X10250777Y-13721484D01*
X10250777Y-13721484D02*
X10298396Y-13721484D01*
X10298396Y-13721484D02*
X10326967Y-13731008D01*
X10326967Y-13731008D02*
X10346015Y-13750055D01*
X10346015Y-13750055D02*
X10355539Y-13769103D01*
X10355539Y-13769103D02*
X10365063Y-13807198D01*
X10365063Y-13807198D02*
X10365063Y-13835769D01*
X10365063Y-13835769D02*
X10355539Y-13873865D01*
X10355539Y-13873865D02*
X10346015Y-13892912D01*
X10346015Y-13892912D02*
X10326967Y-13911960D01*
X10326967Y-13911960D02*
X10298396Y-13921484D01*
X10298396Y-13921484D02*
X10250777Y-13921484D01*
X10450777Y-13921484D02*
X10450777Y-13788150D01*
X10450777Y-13826246D02*
X10460301Y-13807198D01*
X10460301Y-13807198D02*
X10469824Y-13797674D01*
X10469824Y-13797674D02*
X10488872Y-13788150D01*
X10488872Y-13788150D02*
X10507920Y-13788150D01*
X10574586Y-13921484D02*
X10574586Y-13788150D01*
X10574586Y-13721484D02*
X10565063Y-13731008D01*
X10565063Y-13731008D02*
X10574586Y-13740531D01*
X10574586Y-13740531D02*
X10584110Y-13731008D01*
X10584110Y-13731008D02*
X10574586Y-13721484D01*
X10574586Y-13721484D02*
X10574586Y-13740531D01*
X10698396Y-13921484D02*
X10679348Y-13911960D01*
X10679348Y-13911960D02*
X10669824Y-13892912D01*
X10669824Y-13892912D02*
X10669824Y-13721484D01*
X10803158Y-13921484D02*
X10784110Y-13911960D01*
X10784110Y-13911960D02*
X10774586Y-13892912D01*
X10774586Y-13892912D02*
X10774586Y-13721484D01*
X11031729Y-13921484D02*
X11031729Y-13721484D01*
X11031729Y-13721484D02*
X11098396Y-13864341D01*
X11098396Y-13864341D02*
X11165063Y-13721484D01*
X11165063Y-13721484D02*
X11165063Y-13921484D01*
X11346015Y-13921484D02*
X11346015Y-13816722D01*
X11346015Y-13816722D02*
X11336491Y-13797674D01*
X11336491Y-13797674D02*
X11317443Y-13788150D01*
X11317443Y-13788150D02*
X11279348Y-13788150D01*
X11279348Y-13788150D02*
X11260301Y-13797674D01*
X11346015Y-13911960D02*
X11326967Y-13921484D01*
X11326967Y-13921484D02*
X11279348Y-13921484D01*
X11279348Y-13921484D02*
X11260301Y-13911960D01*
X11260301Y-13911960D02*
X11250777Y-13892912D01*
X11250777Y-13892912D02*
X11250777Y-13873865D01*
X11250777Y-13873865D02*
X11260301Y-13854817D01*
X11260301Y-13854817D02*
X11279348Y-13845293D01*
X11279348Y-13845293D02*
X11326967Y-13845293D01*
X11326967Y-13845293D02*
X11346015Y-13835769D01*
X11441253Y-13788150D02*
X11441253Y-13988150D01*
X11441253Y-13797674D02*
X11460301Y-13788150D01*
X11460301Y-13788150D02*
X11498396Y-13788150D01*
X11498396Y-13788150D02*
X11517443Y-13797674D01*
X11517443Y-13797674D02*
X11526967Y-13807198D01*
X11526967Y-13807198D02*
X11536491Y-13826246D01*
X11536491Y-13826246D02*
X11536491Y-13883388D01*
X11536491Y-13883388D02*
X11526967Y-13902436D01*
X11526967Y-13902436D02*
X11517443Y-13911960D01*
X11517443Y-13911960D02*
X11498396Y-13921484D01*
X11498396Y-13921484D02*
X11460301Y-13921484D01*
X11460301Y-13921484D02*
X11441253Y-13911960D01*
X11622205Y-13902436D02*
X11631729Y-13911960D01*
X11631729Y-13911960D02*
X11622205Y-13921484D01*
X11622205Y-13921484D02*
X11612682Y-13911960D01*
X11612682Y-13911960D02*
X11622205Y-13902436D01*
X11622205Y-13902436D02*
X11622205Y-13921484D01*
X11622205Y-13797674D02*
X11631729Y-13807198D01*
X11631729Y-13807198D02*
X11622205Y-13816722D01*
X11622205Y-13816722D02*
X11612682Y-13807198D01*
X11612682Y-13807198D02*
X11622205Y-13797674D01*
X11622205Y-13797674D02*
X11622205Y-13816722D01*
X9790000Y-14150000D02*
X9990000Y-14350000D01*
X9990000Y-14150000D02*
X9790000Y-14350000D01*
X10241253Y-14160531D02*
X10250777Y-14151008D01*
X10250777Y-14151008D02*
X10269824Y-14141484D01*
X10269824Y-14141484D02*
X10317444Y-14141484D01*
X10317444Y-14141484D02*
X10336491Y-14151008D01*
X10336491Y-14151008D02*
X10346015Y-14160531D01*
X10346015Y-14160531D02*
X10355539Y-14179579D01*
X10355539Y-14179579D02*
X10355539Y-14198627D01*
X10355539Y-14198627D02*
X10346015Y-14227198D01*
X10346015Y-14227198D02*
X10231729Y-14341484D01*
X10231729Y-14341484D02*
X10355539Y-14341484D01*
X10441253Y-14322436D02*
X10450777Y-14331960D01*
X10450777Y-14331960D02*
X10441253Y-14341484D01*
X10441253Y-14341484D02*
X10431729Y-14331960D01*
X10431729Y-14331960D02*
X10441253Y-14322436D01*
X10441253Y-14322436D02*
X10441253Y-14341484D01*
X10526967Y-14160531D02*
X10536491Y-14151008D01*
X10536491Y-14151008D02*
X10555539Y-14141484D01*
X10555539Y-14141484D02*
X10603158Y-14141484D01*
X10603158Y-14141484D02*
X10622205Y-14151008D01*
X10622205Y-14151008D02*
X10631729Y-14160531D01*
X10631729Y-14160531D02*
X10641253Y-14179579D01*
X10641253Y-14179579D02*
X10641253Y-14198627D01*
X10641253Y-14198627D02*
X10631729Y-14227198D01*
X10631729Y-14227198D02*
X10517444Y-14341484D01*
X10517444Y-14341484D02*
X10641253Y-14341484D01*
X10822205Y-14141484D02*
X10726967Y-14141484D01*
X10726967Y-14141484D02*
X10717444Y-14236722D01*
X10717444Y-14236722D02*
X10726967Y-14227198D01*
X10726967Y-14227198D02*
X10746015Y-14217674D01*
X10746015Y-14217674D02*
X10793634Y-14217674D01*
X10793634Y-14217674D02*
X10812682Y-14227198D01*
X10812682Y-14227198D02*
X10822205Y-14236722D01*
X10822205Y-14236722D02*
X10831729Y-14255769D01*
X10831729Y-14255769D02*
X10831729Y-14303388D01*
X10831729Y-14303388D02*
X10822205Y-14322436D01*
X10822205Y-14322436D02*
X10812682Y-14331960D01*
X10812682Y-14331960D02*
X10793634Y-14341484D01*
X10793634Y-14341484D02*
X10746015Y-14341484D01*
X10746015Y-14341484D02*
X10726967Y-14331960D01*
X10726967Y-14331960D02*
X10717444Y-14322436D01*
X10955539Y-14141484D02*
X10974586Y-14141484D01*
X10974586Y-14141484D02*
X10993634Y-14151008D01*
X10993634Y-14151008D02*
X11003158Y-14160531D01*
X11003158Y-14160531D02*
X11012682Y-14179579D01*
X11012682Y-14179579D02*
X11022205Y-14217674D01*
X11022205Y-14217674D02*
X11022205Y-14265293D01*
X11022205Y-14265293D02*
X11012682Y-14303388D01*
X11012682Y-14303388D02*
X11003158Y-14322436D01*
X11003158Y-14322436D02*
X10993634Y-14331960D01*
X10993634Y-14331960D02*
X10974586Y-14341484D01*
X10974586Y-14341484D02*
X10955539Y-14341484D01*
X10955539Y-14341484D02*
X10936491Y-14331960D01*
X10936491Y-14331960D02*
X10926967Y-14322436D01*
X10926967Y-14322436D02*
X10917444Y-14303388D01*
X10917444Y-14303388D02*
X10907920Y-14265293D01*
X10907920Y-14265293D02*
X10907920Y-14217674D01*
X10907920Y-14217674D02*
X10917444Y-14179579D01*
X10917444Y-14179579D02*
X10926967Y-14160531D01*
X10926967Y-14160531D02*
X10936491Y-14151008D01*
X10936491Y-14151008D02*
X10955539Y-14141484D01*
X11107920Y-14341484D02*
X11107920Y-14208150D01*
X11107920Y-14227198D02*
X11117444Y-14217674D01*
X11117444Y-14217674D02*
X11136491Y-14208150D01*
X11136491Y-14208150D02*
X11165063Y-14208150D01*
X11165063Y-14208150D02*
X11184110Y-14217674D01*
X11184110Y-14217674D02*
X11193634Y-14236722D01*
X11193634Y-14236722D02*
X11193634Y-14341484D01*
X11193634Y-14236722D02*
X11203158Y-14217674D01*
X11203158Y-14217674D02*
X11222205Y-14208150D01*
X11222205Y-14208150D02*
X11250777Y-14208150D01*
X11250777Y-14208150D02*
X11269824Y-14217674D01*
X11269824Y-14217674D02*
X11279348Y-14236722D01*
X11279348Y-14236722D02*
X11279348Y-14341484D01*
X11374586Y-14341484D02*
X11374586Y-14208150D01*
X11374586Y-14227198D02*
X11384110Y-14217674D01*
X11384110Y-14217674D02*
X11403158Y-14208150D01*
X11403158Y-14208150D02*
X11431729Y-14208150D01*
X11431729Y-14208150D02*
X11450777Y-14217674D01*
X11450777Y-14217674D02*
X11460301Y-14236722D01*
X11460301Y-14236722D02*
X11460301Y-14341484D01*
X11460301Y-14236722D02*
X11469824Y-14217674D01*
X11469824Y-14217674D02*
X11488872Y-14208150D01*
X11488872Y-14208150D02*
X11517443Y-14208150D01*
X11517443Y-14208150D02*
X11536491Y-14217674D01*
X11536491Y-14217674D02*
X11546015Y-14236722D01*
X11546015Y-14236722D02*
X11546015Y-14341484D01*
X11936491Y-14131960D02*
X11765063Y-14389103D01*
X12193634Y-14141484D02*
X12212682Y-14141484D01*
X12212682Y-14141484D02*
X12231729Y-14151008D01*
X12231729Y-14151008D02*
X12241253Y-14160531D01*
X12241253Y-14160531D02*
X12250777Y-14179579D01*
X12250777Y-14179579D02*
X12260301Y-14217674D01*
X12260301Y-14217674D02*
X12260301Y-14265293D01*
X12260301Y-14265293D02*
X12250777Y-14303388D01*
X12250777Y-14303388D02*
X12241253Y-14322436D01*
X12241253Y-14322436D02*
X12231729Y-14331960D01*
X12231729Y-14331960D02*
X12212682Y-14341484D01*
X12212682Y-14341484D02*
X12193634Y-14341484D01*
X12193634Y-14341484D02*
X12174586Y-14331960D01*
X12174586Y-14331960D02*
X12165063Y-14322436D01*
X12165063Y-14322436D02*
X12155539Y-14303388D01*
X12155539Y-14303388D02*
X12146015Y-14265293D01*
X12146015Y-14265293D02*
X12146015Y-14217674D01*
X12146015Y-14217674D02*
X12155539Y-14179579D01*
X12155539Y-14179579D02*
X12165063Y-14160531D01*
X12165063Y-14160531D02*
X12174586Y-14151008D01*
X12174586Y-14151008D02*
X12193634Y-14141484D01*
X12346015Y-14322436D02*
X12355539Y-14331960D01*
X12355539Y-14331960D02*
X12346015Y-14341484D01*
X12346015Y-14341484D02*
X12336491Y-14331960D01*
X12336491Y-14331960D02*
X12346015Y-14322436D01*
X12346015Y-14322436D02*
X12346015Y-14341484D01*
X12479348Y-14141484D02*
X12498396Y-14141484D01*
X12498396Y-14141484D02*
X12517444Y-14151008D01*
X12517444Y-14151008D02*
X12526967Y-14160531D01*
X12526967Y-14160531D02*
X12536491Y-14179579D01*
X12536491Y-14179579D02*
X12546015Y-14217674D01*
X12546015Y-14217674D02*
X12546015Y-14265293D01*
X12546015Y-14265293D02*
X12536491Y-14303388D01*
X12536491Y-14303388D02*
X12526967Y-14322436D01*
X12526967Y-14322436D02*
X12517444Y-14331960D01*
X12517444Y-14331960D02*
X12498396Y-14341484D01*
X12498396Y-14341484D02*
X12479348Y-14341484D01*
X12479348Y-14341484D02*
X12460301Y-14331960D01*
X12460301Y-14331960D02*
X12450777Y-14322436D01*
X12450777Y-14322436D02*
X12441253Y-14303388D01*
X12441253Y-14303388D02*
X12431729Y-14265293D01*
X12431729Y-14265293D02*
X12431729Y-14217674D01*
X12431729Y-14217674D02*
X12441253Y-14179579D01*
X12441253Y-14179579D02*
X12450777Y-14160531D01*
X12450777Y-14160531D02*
X12460301Y-14151008D01*
X12460301Y-14151008D02*
X12479348Y-14141484D01*
X12660301Y-14227198D02*
X12641253Y-14217674D01*
X12641253Y-14217674D02*
X12631729Y-14208150D01*
X12631729Y-14208150D02*
X12622206Y-14189103D01*
X12622206Y-14189103D02*
X12622206Y-14179579D01*
X12622206Y-14179579D02*
X12631729Y-14160531D01*
X12631729Y-14160531D02*
X12641253Y-14151008D01*
X12641253Y-14151008D02*
X12660301Y-14141484D01*
X12660301Y-14141484D02*
X12698396Y-14141484D01*
X12698396Y-14141484D02*
X12717444Y-14151008D01*
X12717444Y-14151008D02*
X12726967Y-14160531D01*
X12726967Y-14160531D02*
X12736491Y-14179579D01*
X12736491Y-14179579D02*
X12736491Y-14189103D01*
X12736491Y-14189103D02*
X12726967Y-14208150D01*
X12726967Y-14208150D02*
X12717444Y-14217674D01*
X12717444Y-14217674D02*
X12698396Y-14227198D01*
X12698396Y-14227198D02*
X12660301Y-14227198D01*
X12660301Y-14227198D02*
X12641253Y-14236722D01*
X12641253Y-14236722D02*
X12631729Y-14246246D01*
X12631729Y-14246246D02*
X12622206Y-14265293D01*
X12622206Y-14265293D02*
X12622206Y-14303388D01*
X12622206Y-14303388D02*
X12631729Y-14322436D01*
X12631729Y-14322436D02*
X12641253Y-14331960D01*
X12641253Y-14331960D02*
X12660301Y-14341484D01*
X12660301Y-14341484D02*
X12698396Y-14341484D01*
X12698396Y-14341484D02*
X12717444Y-14331960D01*
X12717444Y-14331960D02*
X12726967Y-14322436D01*
X12726967Y-14322436D02*
X12736491Y-14303388D01*
X12736491Y-14303388D02*
X12736491Y-14265293D01*
X12736491Y-14265293D02*
X12726967Y-14246246D01*
X12726967Y-14246246D02*
X12717444Y-14236722D01*
X12717444Y-14236722D02*
X12698396Y-14227198D01*
X12850777Y-14227198D02*
X12831729Y-14217674D01*
X12831729Y-14217674D02*
X12822206Y-14208150D01*
X12822206Y-14208150D02*
X12812682Y-14189103D01*
X12812682Y-14189103D02*
X12812682Y-14179579D01*
X12812682Y-14179579D02*
X12822206Y-14160531D01*
X12822206Y-14160531D02*
X12831729Y-14151008D01*
X12831729Y-14151008D02*
X12850777Y-14141484D01*
X12850777Y-14141484D02*
X12888872Y-14141484D01*
X12888872Y-14141484D02*
X12907920Y-14151008D01*
X12907920Y-14151008D02*
X12917444Y-14160531D01*
X12917444Y-14160531D02*
X12926967Y-14179579D01*
X12926967Y-14179579D02*
X12926967Y-14189103D01*
X12926967Y-14189103D02*
X12917444Y-14208150D01*
X12917444Y-14208150D02*
X12907920Y-14217674D01*
X12907920Y-14217674D02*
X12888872Y-14227198D01*
X12888872Y-14227198D02*
X12850777Y-14227198D01*
X12850777Y-14227198D02*
X12831729Y-14236722D01*
X12831729Y-14236722D02*
X12822206Y-14246246D01*
X12822206Y-14246246D02*
X12812682Y-14265293D01*
X12812682Y-14265293D02*
X12812682Y-14303388D01*
X12812682Y-14303388D02*
X12822206Y-14322436D01*
X12822206Y-14322436D02*
X12831729Y-14331960D01*
X12831729Y-14331960D02*
X12850777Y-14341484D01*
X12850777Y-14341484D02*
X12888872Y-14341484D01*
X12888872Y-14341484D02*
X12907920Y-14331960D01*
X12907920Y-14331960D02*
X12917444Y-14322436D01*
X12917444Y-14322436D02*
X12926967Y-14303388D01*
X12926967Y-14303388D02*
X12926967Y-14265293D01*
X12926967Y-14265293D02*
X12917444Y-14246246D01*
X12917444Y-14246246D02*
X12907920Y-14236722D01*
X12907920Y-14236722D02*
X12888872Y-14227198D01*
X13098396Y-14141484D02*
X13060301Y-14141484D01*
X13060301Y-14141484D02*
X13041253Y-14151008D01*
X13041253Y-14151008D02*
X13031729Y-14160531D01*
X13031729Y-14160531D02*
X13012682Y-14189103D01*
X13012682Y-14189103D02*
X13003158Y-14227198D01*
X13003158Y-14227198D02*
X13003158Y-14303388D01*
X13003158Y-14303388D02*
X13012682Y-14322436D01*
X13012682Y-14322436D02*
X13022206Y-14331960D01*
X13022206Y-14331960D02*
X13041253Y-14341484D01*
X13041253Y-14341484D02*
X13079348Y-14341484D01*
X13079348Y-14341484D02*
X13098396Y-14331960D01*
X13098396Y-14331960D02*
X13107920Y-14322436D01*
X13107920Y-14322436D02*
X13117444Y-14303388D01*
X13117444Y-14303388D02*
X13117444Y-14255769D01*
X13117444Y-14255769D02*
X13107920Y-14236722D01*
X13107920Y-14236722D02*
X13098396Y-14227198D01*
X13098396Y-14227198D02*
X13079348Y-14217674D01*
X13079348Y-14217674D02*
X13041253Y-14217674D01*
X13041253Y-14217674D02*
X13022206Y-14227198D01*
X13022206Y-14227198D02*
X13012682Y-14236722D01*
X13012682Y-14236722D02*
X13003158Y-14255769D01*
X13193634Y-14141484D02*
X13193634Y-14179579D01*
X13269825Y-14141484D02*
X13269825Y-14179579D01*
X13565063Y-14417674D02*
X13555539Y-14408150D01*
X13555539Y-14408150D02*
X13536491Y-14379579D01*
X13536491Y-14379579D02*
X13526968Y-14360531D01*
X13526968Y-14360531D02*
X13517444Y-14331960D01*
X13517444Y-14331960D02*
X13507920Y-14284341D01*
X13507920Y-14284341D02*
X13507920Y-14246246D01*
X13507920Y-14246246D02*
X13517444Y-14198627D01*
X13517444Y-14198627D02*
X13526968Y-14170055D01*
X13526968Y-14170055D02*
X13536491Y-14151008D01*
X13536491Y-14151008D02*
X13555539Y-14122436D01*
X13555539Y-14122436D02*
X13565063Y-14112912D01*
X13679348Y-14141484D02*
X13698396Y-14141484D01*
X13698396Y-14141484D02*
X13717444Y-14151008D01*
X13717444Y-14151008D02*
X13726968Y-14160531D01*
X13726968Y-14160531D02*
X13736491Y-14179579D01*
X13736491Y-14179579D02*
X13746015Y-14217674D01*
X13746015Y-14217674D02*
X13746015Y-14265293D01*
X13746015Y-14265293D02*
X13736491Y-14303388D01*
X13736491Y-14303388D02*
X13726968Y-14322436D01*
X13726968Y-14322436D02*
X13717444Y-14331960D01*
X13717444Y-14331960D02*
X13698396Y-14341484D01*
X13698396Y-14341484D02*
X13679348Y-14341484D01*
X13679348Y-14341484D02*
X13660301Y-14331960D01*
X13660301Y-14331960D02*
X13650777Y-14322436D01*
X13650777Y-14322436D02*
X13641253Y-14303388D01*
X13641253Y-14303388D02*
X13631729Y-14265293D01*
X13631729Y-14265293D02*
X13631729Y-14217674D01*
X13631729Y-14217674D02*
X13641253Y-14179579D01*
X13641253Y-14179579D02*
X13650777Y-14160531D01*
X13650777Y-14160531D02*
X13660301Y-14151008D01*
X13660301Y-14151008D02*
X13679348Y-14141484D01*
X13984110Y-14341484D02*
X13984110Y-14141484D01*
X14069825Y-14341484D02*
X14069825Y-14236722D01*
X14069825Y-14236722D02*
X14060301Y-14217674D01*
X14060301Y-14217674D02*
X14041253Y-14208150D01*
X14041253Y-14208150D02*
X14012682Y-14208150D01*
X14012682Y-14208150D02*
X13993634Y-14217674D01*
X13993634Y-14217674D02*
X13984110Y-14227198D01*
X14193634Y-14341484D02*
X14174587Y-14331960D01*
X14174587Y-14331960D02*
X14165063Y-14322436D01*
X14165063Y-14322436D02*
X14155539Y-14303388D01*
X14155539Y-14303388D02*
X14155539Y-14246246D01*
X14155539Y-14246246D02*
X14165063Y-14227198D01*
X14165063Y-14227198D02*
X14174587Y-14217674D01*
X14174587Y-14217674D02*
X14193634Y-14208150D01*
X14193634Y-14208150D02*
X14222206Y-14208150D01*
X14222206Y-14208150D02*
X14241253Y-14217674D01*
X14241253Y-14217674D02*
X14250777Y-14227198D01*
X14250777Y-14227198D02*
X14260301Y-14246246D01*
X14260301Y-14246246D02*
X14260301Y-14303388D01*
X14260301Y-14303388D02*
X14250777Y-14322436D01*
X14250777Y-14322436D02*
X14241253Y-14331960D01*
X14241253Y-14331960D02*
X14222206Y-14341484D01*
X14222206Y-14341484D02*
X14193634Y-14341484D01*
X14374587Y-14341484D02*
X14355539Y-14331960D01*
X14355539Y-14331960D02*
X14346015Y-14312912D01*
X14346015Y-14312912D02*
X14346015Y-14141484D01*
X14526968Y-14331960D02*
X14507920Y-14341484D01*
X14507920Y-14341484D02*
X14469825Y-14341484D01*
X14469825Y-14341484D02*
X14450777Y-14331960D01*
X14450777Y-14331960D02*
X14441253Y-14312912D01*
X14441253Y-14312912D02*
X14441253Y-14236722D01*
X14441253Y-14236722D02*
X14450777Y-14217674D01*
X14450777Y-14217674D02*
X14469825Y-14208150D01*
X14469825Y-14208150D02*
X14507920Y-14208150D01*
X14507920Y-14208150D02*
X14526968Y-14217674D01*
X14526968Y-14217674D02*
X14536491Y-14236722D01*
X14536491Y-14236722D02*
X14536491Y-14255769D01*
X14536491Y-14255769D02*
X14441253Y-14274817D01*
X14612682Y-14331960D02*
X14631730Y-14341484D01*
X14631730Y-14341484D02*
X14669825Y-14341484D01*
X14669825Y-14341484D02*
X14688872Y-14331960D01*
X14688872Y-14331960D02*
X14698396Y-14312912D01*
X14698396Y-14312912D02*
X14698396Y-14303388D01*
X14698396Y-14303388D02*
X14688872Y-14284341D01*
X14688872Y-14284341D02*
X14669825Y-14274817D01*
X14669825Y-14274817D02*
X14641253Y-14274817D01*
X14641253Y-14274817D02*
X14622206Y-14265293D01*
X14622206Y-14265293D02*
X14612682Y-14246246D01*
X14612682Y-14246246D02*
X14612682Y-14236722D01*
X14612682Y-14236722D02*
X14622206Y-14217674D01*
X14622206Y-14217674D02*
X14641253Y-14208150D01*
X14641253Y-14208150D02*
X14669825Y-14208150D01*
X14669825Y-14208150D02*
X14688872Y-14217674D01*
X14936492Y-14265293D02*
X15088873Y-14265293D01*
X15012682Y-14341484D02*
X15012682Y-14189103D01*
X15326968Y-14160531D02*
X15336492Y-14151008D01*
X15336492Y-14151008D02*
X15355539Y-14141484D01*
X15355539Y-14141484D02*
X15403158Y-14141484D01*
X15403158Y-14141484D02*
X15422206Y-14151008D01*
X15422206Y-14151008D02*
X15431730Y-14160531D01*
X15431730Y-14160531D02*
X15441253Y-14179579D01*
X15441253Y-14179579D02*
X15441253Y-14198627D01*
X15441253Y-14198627D02*
X15431730Y-14227198D01*
X15431730Y-14227198D02*
X15317444Y-14341484D01*
X15317444Y-14341484D02*
X15441253Y-14341484D01*
X15669825Y-14331960D02*
X15688873Y-14341484D01*
X15688873Y-14341484D02*
X15726968Y-14341484D01*
X15726968Y-14341484D02*
X15746015Y-14331960D01*
X15746015Y-14331960D02*
X15755539Y-14312912D01*
X15755539Y-14312912D02*
X15755539Y-14303388D01*
X15755539Y-14303388D02*
X15746015Y-14284341D01*
X15746015Y-14284341D02*
X15726968Y-14274817D01*
X15726968Y-14274817D02*
X15698396Y-14274817D01*
X15698396Y-14274817D02*
X15679349Y-14265293D01*
X15679349Y-14265293D02*
X15669825Y-14246246D01*
X15669825Y-14246246D02*
X15669825Y-14236722D01*
X15669825Y-14236722D02*
X15679349Y-14217674D01*
X15679349Y-14217674D02*
X15698396Y-14208150D01*
X15698396Y-14208150D02*
X15726968Y-14208150D01*
X15726968Y-14208150D02*
X15746015Y-14217674D01*
X15869825Y-14341484D02*
X15850777Y-14331960D01*
X15850777Y-14331960D02*
X15841254Y-14312912D01*
X15841254Y-14312912D02*
X15841254Y-14141484D01*
X15974587Y-14341484D02*
X15955539Y-14331960D01*
X15955539Y-14331960D02*
X15946015Y-14322436D01*
X15946015Y-14322436D02*
X15936492Y-14303388D01*
X15936492Y-14303388D02*
X15936492Y-14246246D01*
X15936492Y-14246246D02*
X15946015Y-14227198D01*
X15946015Y-14227198D02*
X15955539Y-14217674D01*
X15955539Y-14217674D02*
X15974587Y-14208150D01*
X15974587Y-14208150D02*
X16003158Y-14208150D01*
X16003158Y-14208150D02*
X16022206Y-14217674D01*
X16022206Y-14217674D02*
X16031730Y-14227198D01*
X16031730Y-14227198D02*
X16041254Y-14246246D01*
X16041254Y-14246246D02*
X16041254Y-14303388D01*
X16041254Y-14303388D02*
X16031730Y-14322436D01*
X16031730Y-14322436D02*
X16022206Y-14331960D01*
X16022206Y-14331960D02*
X16003158Y-14341484D01*
X16003158Y-14341484D02*
X15974587Y-14341484D01*
X16098396Y-14208150D02*
X16174587Y-14208150D01*
X16126968Y-14141484D02*
X16126968Y-14312912D01*
X16126968Y-14312912D02*
X16136492Y-14331960D01*
X16136492Y-14331960D02*
X16155539Y-14341484D01*
X16155539Y-14341484D02*
X16174587Y-14341484D01*
X16231730Y-14331960D02*
X16250777Y-14341484D01*
X16250777Y-14341484D02*
X16288873Y-14341484D01*
X16288873Y-14341484D02*
X16307920Y-14331960D01*
X16307920Y-14331960D02*
X16317444Y-14312912D01*
X16317444Y-14312912D02*
X16317444Y-14303388D01*
X16317444Y-14303388D02*
X16307920Y-14284341D01*
X16307920Y-14284341D02*
X16288873Y-14274817D01*
X16288873Y-14274817D02*
X16260301Y-14274817D01*
X16260301Y-14274817D02*
X16241254Y-14265293D01*
X16241254Y-14265293D02*
X16231730Y-14246246D01*
X16231730Y-14246246D02*
X16231730Y-14236722D01*
X16231730Y-14236722D02*
X16241254Y-14217674D01*
X16241254Y-14217674D02*
X16260301Y-14208150D01*
X16260301Y-14208150D02*
X16288873Y-14208150D01*
X16288873Y-14208150D02*
X16307920Y-14217674D01*
X16384111Y-14417674D02*
X16393635Y-14408150D01*
X16393635Y-14408150D02*
X16412682Y-14379579D01*
X16412682Y-14379579D02*
X16422206Y-14360531D01*
X16422206Y-14360531D02*
X16431730Y-14331960D01*
X16431730Y-14331960D02*
X16441254Y-14284341D01*
X16441254Y-14284341D02*
X16441254Y-14246246D01*
X16441254Y-14246246D02*
X16431730Y-14198627D01*
X16431730Y-14198627D02*
X16422206Y-14170055D01*
X16422206Y-14170055D02*
X16412682Y-14151008D01*
X16412682Y-14151008D02*
X16393635Y-14122436D01*
X16393635Y-14122436D02*
X16384111Y-14112912D01*
X16746016Y-14417674D02*
X16736492Y-14408150D01*
X16736492Y-14408150D02*
X16717444Y-14379579D01*
X16717444Y-14379579D02*
X16707920Y-14360531D01*
X16707920Y-14360531D02*
X16698396Y-14331960D01*
X16698396Y-14331960D02*
X16688873Y-14284341D01*
X16688873Y-14284341D02*
X16688873Y-14246246D01*
X16688873Y-14246246D02*
X16698396Y-14198627D01*
X16698396Y-14198627D02*
X16707920Y-14170055D01*
X16707920Y-14170055D02*
X16717444Y-14151008D01*
X16717444Y-14151008D02*
X16736492Y-14122436D01*
X16736492Y-14122436D02*
X16746016Y-14112912D01*
X16822206Y-14208150D02*
X16822206Y-14341484D01*
X16822206Y-14227198D02*
X16831730Y-14217674D01*
X16831730Y-14217674D02*
X16850777Y-14208150D01*
X16850777Y-14208150D02*
X16879349Y-14208150D01*
X16879349Y-14208150D02*
X16898397Y-14217674D01*
X16898397Y-14217674D02*
X16907920Y-14236722D01*
X16907920Y-14236722D02*
X16907920Y-14341484D01*
X17031730Y-14341484D02*
X17012682Y-14331960D01*
X17012682Y-14331960D02*
X17003158Y-14322436D01*
X17003158Y-14322436D02*
X16993635Y-14303388D01*
X16993635Y-14303388D02*
X16993635Y-14246246D01*
X16993635Y-14246246D02*
X17003158Y-14227198D01*
X17003158Y-14227198D02*
X17012682Y-14217674D01*
X17012682Y-14217674D02*
X17031730Y-14208150D01*
X17031730Y-14208150D02*
X17060301Y-14208150D01*
X17060301Y-14208150D02*
X17079349Y-14217674D01*
X17079349Y-14217674D02*
X17088873Y-14227198D01*
X17088873Y-14227198D02*
X17098397Y-14246246D01*
X17098397Y-14246246D02*
X17098397Y-14303388D01*
X17098397Y-14303388D02*
X17088873Y-14322436D01*
X17088873Y-14322436D02*
X17079349Y-14331960D01*
X17079349Y-14331960D02*
X17060301Y-14341484D01*
X17060301Y-14341484D02*
X17031730Y-14341484D01*
X17155539Y-14208150D02*
X17231730Y-14208150D01*
X17184111Y-14141484D02*
X17184111Y-14312912D01*
X17184111Y-14312912D02*
X17193635Y-14331960D01*
X17193635Y-14331960D02*
X17212682Y-14341484D01*
X17212682Y-14341484D02*
X17231730Y-14341484D01*
X17450778Y-14208150D02*
X17450778Y-14408150D01*
X17450778Y-14217674D02*
X17469825Y-14208150D01*
X17469825Y-14208150D02*
X17507920Y-14208150D01*
X17507920Y-14208150D02*
X17526968Y-14217674D01*
X17526968Y-14217674D02*
X17536492Y-14227198D01*
X17536492Y-14227198D02*
X17546016Y-14246246D01*
X17546016Y-14246246D02*
X17546016Y-14303388D01*
X17546016Y-14303388D02*
X17536492Y-14322436D01*
X17536492Y-14322436D02*
X17526968Y-14331960D01*
X17526968Y-14331960D02*
X17507920Y-14341484D01*
X17507920Y-14341484D02*
X17469825Y-14341484D01*
X17469825Y-14341484D02*
X17450778Y-14331960D01*
X17660301Y-14341484D02*
X17641254Y-14331960D01*
X17641254Y-14331960D02*
X17631730Y-14312912D01*
X17631730Y-14312912D02*
X17631730Y-14141484D01*
X17822206Y-14341484D02*
X17822206Y-14236722D01*
X17822206Y-14236722D02*
X17812682Y-14217674D01*
X17812682Y-14217674D02*
X17793635Y-14208150D01*
X17793635Y-14208150D02*
X17755539Y-14208150D01*
X17755539Y-14208150D02*
X17736492Y-14217674D01*
X17822206Y-14331960D02*
X17803159Y-14341484D01*
X17803159Y-14341484D02*
X17755539Y-14341484D01*
X17755539Y-14341484D02*
X17736492Y-14331960D01*
X17736492Y-14331960D02*
X17726968Y-14312912D01*
X17726968Y-14312912D02*
X17726968Y-14293865D01*
X17726968Y-14293865D02*
X17736492Y-14274817D01*
X17736492Y-14274817D02*
X17755539Y-14265293D01*
X17755539Y-14265293D02*
X17803159Y-14265293D01*
X17803159Y-14265293D02*
X17822206Y-14255769D01*
X17888873Y-14208150D02*
X17965063Y-14208150D01*
X17917444Y-14141484D02*
X17917444Y-14312912D01*
X17917444Y-14312912D02*
X17926968Y-14331960D01*
X17926968Y-14331960D02*
X17946016Y-14341484D01*
X17946016Y-14341484D02*
X17965063Y-14341484D01*
X18107920Y-14331960D02*
X18088873Y-14341484D01*
X18088873Y-14341484D02*
X18050778Y-14341484D01*
X18050778Y-14341484D02*
X18031730Y-14331960D01*
X18031730Y-14331960D02*
X18022206Y-14312912D01*
X18022206Y-14312912D02*
X18022206Y-14236722D01*
X18022206Y-14236722D02*
X18031730Y-14217674D01*
X18031730Y-14217674D02*
X18050778Y-14208150D01*
X18050778Y-14208150D02*
X18088873Y-14208150D01*
X18088873Y-14208150D02*
X18107920Y-14217674D01*
X18107920Y-14217674D02*
X18117444Y-14236722D01*
X18117444Y-14236722D02*
X18117444Y-14255769D01*
X18117444Y-14255769D02*
X18022206Y-14274817D01*
X18288873Y-14341484D02*
X18288873Y-14141484D01*
X18288873Y-14331960D02*
X18269825Y-14341484D01*
X18269825Y-14341484D02*
X18231730Y-14341484D01*
X18231730Y-14341484D02*
X18212682Y-14331960D01*
X18212682Y-14331960D02*
X18203159Y-14322436D01*
X18203159Y-14322436D02*
X18193635Y-14303388D01*
X18193635Y-14303388D02*
X18193635Y-14246246D01*
X18193635Y-14246246D02*
X18203159Y-14227198D01*
X18203159Y-14227198D02*
X18212682Y-14217674D01*
X18212682Y-14217674D02*
X18231730Y-14208150D01*
X18231730Y-14208150D02*
X18269825Y-14208150D01*
X18269825Y-14208150D02*
X18288873Y-14217674D01*
X18365063Y-14417674D02*
X18374587Y-14408150D01*
X18374587Y-14408150D02*
X18393635Y-14379579D01*
X18393635Y-14379579D02*
X18403159Y-14360531D01*
X18403159Y-14360531D02*
X18412682Y-14331960D01*
X18412682Y-14331960D02*
X18422206Y-14284341D01*
X18422206Y-14284341D02*
X18422206Y-14246246D01*
X18422206Y-14246246D02*
X18412682Y-14198627D01*
X18412682Y-14198627D02*
X18403159Y-14170055D01*
X18403159Y-14170055D02*
X18393635Y-14151008D01*
X18393635Y-14151008D02*
X18374587Y-14122436D01*
X18374587Y-14122436D02*
X18365063Y-14112912D01*
X9990000Y-14570000D02*
G75*
G02*
X9790000Y-14570000I-100000J0D01*
G01*
X9790000Y-14570000D02*
G75*
G02*
X9990000Y-14570000I100000J0D01*
G01*
X10336491Y-14461484D02*
X10298396Y-14461484D01*
X10298396Y-14461484D02*
X10279348Y-14471008D01*
X10279348Y-14471008D02*
X10269824Y-14480531D01*
X10269824Y-14480531D02*
X10250777Y-14509103D01*
X10250777Y-14509103D02*
X10241253Y-14547198D01*
X10241253Y-14547198D02*
X10241253Y-14623388D01*
X10241253Y-14623388D02*
X10250777Y-14642436D01*
X10250777Y-14642436D02*
X10260301Y-14651960D01*
X10260301Y-14651960D02*
X10279348Y-14661484D01*
X10279348Y-14661484D02*
X10317444Y-14661484D01*
X10317444Y-14661484D02*
X10336491Y-14651960D01*
X10336491Y-14651960D02*
X10346015Y-14642436D01*
X10346015Y-14642436D02*
X10355539Y-14623388D01*
X10355539Y-14623388D02*
X10355539Y-14575769D01*
X10355539Y-14575769D02*
X10346015Y-14556722D01*
X10346015Y-14556722D02*
X10336491Y-14547198D01*
X10336491Y-14547198D02*
X10317444Y-14537674D01*
X10317444Y-14537674D02*
X10279348Y-14537674D01*
X10279348Y-14537674D02*
X10260301Y-14547198D01*
X10260301Y-14547198D02*
X10250777Y-14556722D01*
X10250777Y-14556722D02*
X10241253Y-14575769D01*
X10441253Y-14642436D02*
X10450777Y-14651960D01*
X10450777Y-14651960D02*
X10441253Y-14661484D01*
X10441253Y-14661484D02*
X10431729Y-14651960D01*
X10431729Y-14651960D02*
X10441253Y-14642436D01*
X10441253Y-14642436D02*
X10441253Y-14661484D01*
X10631729Y-14461484D02*
X10536491Y-14461484D01*
X10536491Y-14461484D02*
X10526967Y-14556722D01*
X10526967Y-14556722D02*
X10536491Y-14547198D01*
X10536491Y-14547198D02*
X10555539Y-14537674D01*
X10555539Y-14537674D02*
X10603158Y-14537674D01*
X10603158Y-14537674D02*
X10622205Y-14547198D01*
X10622205Y-14547198D02*
X10631729Y-14556722D01*
X10631729Y-14556722D02*
X10641253Y-14575769D01*
X10641253Y-14575769D02*
X10641253Y-14623388D01*
X10641253Y-14623388D02*
X10631729Y-14642436D01*
X10631729Y-14642436D02*
X10622205Y-14651960D01*
X10622205Y-14651960D02*
X10603158Y-14661484D01*
X10603158Y-14661484D02*
X10555539Y-14661484D01*
X10555539Y-14661484D02*
X10536491Y-14651960D01*
X10536491Y-14651960D02*
X10526967Y-14642436D01*
X10765063Y-14461484D02*
X10784110Y-14461484D01*
X10784110Y-14461484D02*
X10803158Y-14471008D01*
X10803158Y-14471008D02*
X10812682Y-14480531D01*
X10812682Y-14480531D02*
X10822205Y-14499579D01*
X10822205Y-14499579D02*
X10831729Y-14537674D01*
X10831729Y-14537674D02*
X10831729Y-14585293D01*
X10831729Y-14585293D02*
X10822205Y-14623388D01*
X10822205Y-14623388D02*
X10812682Y-14642436D01*
X10812682Y-14642436D02*
X10803158Y-14651960D01*
X10803158Y-14651960D02*
X10784110Y-14661484D01*
X10784110Y-14661484D02*
X10765063Y-14661484D01*
X10765063Y-14661484D02*
X10746015Y-14651960D01*
X10746015Y-14651960D02*
X10736491Y-14642436D01*
X10736491Y-14642436D02*
X10726967Y-14623388D01*
X10726967Y-14623388D02*
X10717444Y-14585293D01*
X10717444Y-14585293D02*
X10717444Y-14537674D01*
X10717444Y-14537674D02*
X10726967Y-14499579D01*
X10726967Y-14499579D02*
X10736491Y-14480531D01*
X10736491Y-14480531D02*
X10746015Y-14471008D01*
X10746015Y-14471008D02*
X10765063Y-14461484D01*
X10955539Y-14461484D02*
X10974586Y-14461484D01*
X10974586Y-14461484D02*
X10993634Y-14471008D01*
X10993634Y-14471008D02*
X11003158Y-14480531D01*
X11003158Y-14480531D02*
X11012682Y-14499579D01*
X11012682Y-14499579D02*
X11022205Y-14537674D01*
X11022205Y-14537674D02*
X11022205Y-14585293D01*
X11022205Y-14585293D02*
X11012682Y-14623388D01*
X11012682Y-14623388D02*
X11003158Y-14642436D01*
X11003158Y-14642436D02*
X10993634Y-14651960D01*
X10993634Y-14651960D02*
X10974586Y-14661484D01*
X10974586Y-14661484D02*
X10955539Y-14661484D01*
X10955539Y-14661484D02*
X10936491Y-14651960D01*
X10936491Y-14651960D02*
X10926967Y-14642436D01*
X10926967Y-14642436D02*
X10917444Y-14623388D01*
X10917444Y-14623388D02*
X10907920Y-14585293D01*
X10907920Y-14585293D02*
X10907920Y-14537674D01*
X10907920Y-14537674D02*
X10917444Y-14499579D01*
X10917444Y-14499579D02*
X10926967Y-14480531D01*
X10926967Y-14480531D02*
X10936491Y-14471008D01*
X10936491Y-14471008D02*
X10955539Y-14461484D01*
X11107920Y-14661484D02*
X11107920Y-14528150D01*
X11107920Y-14547198D02*
X11117444Y-14537674D01*
X11117444Y-14537674D02*
X11136491Y-14528150D01*
X11136491Y-14528150D02*
X11165063Y-14528150D01*
X11165063Y-14528150D02*
X11184110Y-14537674D01*
X11184110Y-14537674D02*
X11193634Y-14556722D01*
X11193634Y-14556722D02*
X11193634Y-14661484D01*
X11193634Y-14556722D02*
X11203158Y-14537674D01*
X11203158Y-14537674D02*
X11222205Y-14528150D01*
X11222205Y-14528150D02*
X11250777Y-14528150D01*
X11250777Y-14528150D02*
X11269824Y-14537674D01*
X11269824Y-14537674D02*
X11279348Y-14556722D01*
X11279348Y-14556722D02*
X11279348Y-14661484D01*
X11374586Y-14661484D02*
X11374586Y-14528150D01*
X11374586Y-14547198D02*
X11384110Y-14537674D01*
X11384110Y-14537674D02*
X11403158Y-14528150D01*
X11403158Y-14528150D02*
X11431729Y-14528150D01*
X11431729Y-14528150D02*
X11450777Y-14537674D01*
X11450777Y-14537674D02*
X11460301Y-14556722D01*
X11460301Y-14556722D02*
X11460301Y-14661484D01*
X11460301Y-14556722D02*
X11469824Y-14537674D01*
X11469824Y-14537674D02*
X11488872Y-14528150D01*
X11488872Y-14528150D02*
X11517443Y-14528150D01*
X11517443Y-14528150D02*
X11536491Y-14537674D01*
X11536491Y-14537674D02*
X11546015Y-14556722D01*
X11546015Y-14556722D02*
X11546015Y-14661484D01*
X11936491Y-14451960D02*
X11765063Y-14709103D01*
X12193634Y-14461484D02*
X12212682Y-14461484D01*
X12212682Y-14461484D02*
X12231729Y-14471008D01*
X12231729Y-14471008D02*
X12241253Y-14480531D01*
X12241253Y-14480531D02*
X12250777Y-14499579D01*
X12250777Y-14499579D02*
X12260301Y-14537674D01*
X12260301Y-14537674D02*
X12260301Y-14585293D01*
X12260301Y-14585293D02*
X12250777Y-14623388D01*
X12250777Y-14623388D02*
X12241253Y-14642436D01*
X12241253Y-14642436D02*
X12231729Y-14651960D01*
X12231729Y-14651960D02*
X12212682Y-14661484D01*
X12212682Y-14661484D02*
X12193634Y-14661484D01*
X12193634Y-14661484D02*
X12174586Y-14651960D01*
X12174586Y-14651960D02*
X12165063Y-14642436D01*
X12165063Y-14642436D02*
X12155539Y-14623388D01*
X12155539Y-14623388D02*
X12146015Y-14585293D01*
X12146015Y-14585293D02*
X12146015Y-14537674D01*
X12146015Y-14537674D02*
X12155539Y-14499579D01*
X12155539Y-14499579D02*
X12165063Y-14480531D01*
X12165063Y-14480531D02*
X12174586Y-14471008D01*
X12174586Y-14471008D02*
X12193634Y-14461484D01*
X12346015Y-14642436D02*
X12355539Y-14651960D01*
X12355539Y-14651960D02*
X12346015Y-14661484D01*
X12346015Y-14661484D02*
X12336491Y-14651960D01*
X12336491Y-14651960D02*
X12346015Y-14642436D01*
X12346015Y-14642436D02*
X12346015Y-14661484D01*
X12431729Y-14480531D02*
X12441253Y-14471008D01*
X12441253Y-14471008D02*
X12460301Y-14461484D01*
X12460301Y-14461484D02*
X12507920Y-14461484D01*
X12507920Y-14461484D02*
X12526967Y-14471008D01*
X12526967Y-14471008D02*
X12536491Y-14480531D01*
X12536491Y-14480531D02*
X12546015Y-14499579D01*
X12546015Y-14499579D02*
X12546015Y-14518627D01*
X12546015Y-14518627D02*
X12536491Y-14547198D01*
X12536491Y-14547198D02*
X12422206Y-14661484D01*
X12422206Y-14661484D02*
X12546015Y-14661484D01*
X12726967Y-14461484D02*
X12631729Y-14461484D01*
X12631729Y-14461484D02*
X12622206Y-14556722D01*
X12622206Y-14556722D02*
X12631729Y-14547198D01*
X12631729Y-14547198D02*
X12650777Y-14537674D01*
X12650777Y-14537674D02*
X12698396Y-14537674D01*
X12698396Y-14537674D02*
X12717444Y-14547198D01*
X12717444Y-14547198D02*
X12726967Y-14556722D01*
X12726967Y-14556722D02*
X12736491Y-14575769D01*
X12736491Y-14575769D02*
X12736491Y-14623388D01*
X12736491Y-14623388D02*
X12726967Y-14642436D01*
X12726967Y-14642436D02*
X12717444Y-14651960D01*
X12717444Y-14651960D02*
X12698396Y-14661484D01*
X12698396Y-14661484D02*
X12650777Y-14661484D01*
X12650777Y-14661484D02*
X12631729Y-14651960D01*
X12631729Y-14651960D02*
X12622206Y-14642436D01*
X12917444Y-14461484D02*
X12822206Y-14461484D01*
X12822206Y-14461484D02*
X12812682Y-14556722D01*
X12812682Y-14556722D02*
X12822206Y-14547198D01*
X12822206Y-14547198D02*
X12841253Y-14537674D01*
X12841253Y-14537674D02*
X12888872Y-14537674D01*
X12888872Y-14537674D02*
X12907920Y-14547198D01*
X12907920Y-14547198D02*
X12917444Y-14556722D01*
X12917444Y-14556722D02*
X12926967Y-14575769D01*
X12926967Y-14575769D02*
X12926967Y-14623388D01*
X12926967Y-14623388D02*
X12917444Y-14642436D01*
X12917444Y-14642436D02*
X12907920Y-14651960D01*
X12907920Y-14651960D02*
X12888872Y-14661484D01*
X12888872Y-14661484D02*
X12841253Y-14661484D01*
X12841253Y-14661484D02*
X12822206Y-14651960D01*
X12822206Y-14651960D02*
X12812682Y-14642436D01*
X13022206Y-14661484D02*
X13060301Y-14661484D01*
X13060301Y-14661484D02*
X13079348Y-14651960D01*
X13079348Y-14651960D02*
X13088872Y-14642436D01*
X13088872Y-14642436D02*
X13107920Y-14613865D01*
X13107920Y-14613865D02*
X13117444Y-14575769D01*
X13117444Y-14575769D02*
X13117444Y-14499579D01*
X13117444Y-14499579D02*
X13107920Y-14480531D01*
X13107920Y-14480531D02*
X13098396Y-14471008D01*
X13098396Y-14471008D02*
X13079348Y-14461484D01*
X13079348Y-14461484D02*
X13041253Y-14461484D01*
X13041253Y-14461484D02*
X13022206Y-14471008D01*
X13022206Y-14471008D02*
X13012682Y-14480531D01*
X13012682Y-14480531D02*
X13003158Y-14499579D01*
X13003158Y-14499579D02*
X13003158Y-14547198D01*
X13003158Y-14547198D02*
X13012682Y-14566246D01*
X13012682Y-14566246D02*
X13022206Y-14575769D01*
X13022206Y-14575769D02*
X13041253Y-14585293D01*
X13041253Y-14585293D02*
X13079348Y-14585293D01*
X13079348Y-14585293D02*
X13098396Y-14575769D01*
X13098396Y-14575769D02*
X13107920Y-14566246D01*
X13107920Y-14566246D02*
X13117444Y-14547198D01*
X13193634Y-14461484D02*
X13193634Y-14499579D01*
X13269825Y-14461484D02*
X13269825Y-14499579D01*
X13565063Y-14737674D02*
X13555539Y-14728150D01*
X13555539Y-14728150D02*
X13536491Y-14699579D01*
X13536491Y-14699579D02*
X13526968Y-14680531D01*
X13526968Y-14680531D02*
X13517444Y-14651960D01*
X13517444Y-14651960D02*
X13507920Y-14604341D01*
X13507920Y-14604341D02*
X13507920Y-14566246D01*
X13507920Y-14566246D02*
X13517444Y-14518627D01*
X13517444Y-14518627D02*
X13526968Y-14490055D01*
X13526968Y-14490055D02*
X13536491Y-14471008D01*
X13536491Y-14471008D02*
X13555539Y-14442436D01*
X13555539Y-14442436D02*
X13565063Y-14432912D01*
X13746015Y-14661484D02*
X13631729Y-14661484D01*
X13688872Y-14661484D02*
X13688872Y-14461484D01*
X13688872Y-14461484D02*
X13669825Y-14490055D01*
X13669825Y-14490055D02*
X13650777Y-14509103D01*
X13650777Y-14509103D02*
X13631729Y-14518627D01*
X13984110Y-14661484D02*
X13984110Y-14461484D01*
X14069825Y-14661484D02*
X14069825Y-14556722D01*
X14069825Y-14556722D02*
X14060301Y-14537674D01*
X14060301Y-14537674D02*
X14041253Y-14528150D01*
X14041253Y-14528150D02*
X14012682Y-14528150D01*
X14012682Y-14528150D02*
X13993634Y-14537674D01*
X13993634Y-14537674D02*
X13984110Y-14547198D01*
X14193634Y-14661484D02*
X14174587Y-14651960D01*
X14174587Y-14651960D02*
X14165063Y-14642436D01*
X14165063Y-14642436D02*
X14155539Y-14623388D01*
X14155539Y-14623388D02*
X14155539Y-14566246D01*
X14155539Y-14566246D02*
X14165063Y-14547198D01*
X14165063Y-14547198D02*
X14174587Y-14537674D01*
X14174587Y-14537674D02*
X14193634Y-14528150D01*
X14193634Y-14528150D02*
X14222206Y-14528150D01*
X14222206Y-14528150D02*
X14241253Y-14537674D01*
X14241253Y-14537674D02*
X14250777Y-14547198D01*
X14250777Y-14547198D02*
X14260301Y-14566246D01*
X14260301Y-14566246D02*
X14260301Y-14623388D01*
X14260301Y-14623388D02*
X14250777Y-14642436D01*
X14250777Y-14642436D02*
X14241253Y-14651960D01*
X14241253Y-14651960D02*
X14222206Y-14661484D01*
X14222206Y-14661484D02*
X14193634Y-14661484D01*
X14374587Y-14661484D02*
X14355539Y-14651960D01*
X14355539Y-14651960D02*
X14346015Y-14632912D01*
X14346015Y-14632912D02*
X14346015Y-14461484D01*
X14526968Y-14651960D02*
X14507920Y-14661484D01*
X14507920Y-14661484D02*
X14469825Y-14661484D01*
X14469825Y-14661484D02*
X14450777Y-14651960D01*
X14450777Y-14651960D02*
X14441253Y-14632912D01*
X14441253Y-14632912D02*
X14441253Y-14556722D01*
X14441253Y-14556722D02*
X14450777Y-14537674D01*
X14450777Y-14537674D02*
X14469825Y-14528150D01*
X14469825Y-14528150D02*
X14507920Y-14528150D01*
X14507920Y-14528150D02*
X14526968Y-14537674D01*
X14526968Y-14537674D02*
X14536491Y-14556722D01*
X14536491Y-14556722D02*
X14536491Y-14575769D01*
X14536491Y-14575769D02*
X14441253Y-14594817D01*
X14603158Y-14737674D02*
X14612682Y-14728150D01*
X14612682Y-14728150D02*
X14631730Y-14699579D01*
X14631730Y-14699579D02*
X14641253Y-14680531D01*
X14641253Y-14680531D02*
X14650777Y-14651960D01*
X14650777Y-14651960D02*
X14660301Y-14604341D01*
X14660301Y-14604341D02*
X14660301Y-14566246D01*
X14660301Y-14566246D02*
X14650777Y-14518627D01*
X14650777Y-14518627D02*
X14641253Y-14490055D01*
X14641253Y-14490055D02*
X14631730Y-14471008D01*
X14631730Y-14471008D02*
X14612682Y-14442436D01*
X14612682Y-14442436D02*
X14603158Y-14432912D01*
X14965063Y-14737674D02*
X14955539Y-14728150D01*
X14955539Y-14728150D02*
X14936491Y-14699579D01*
X14936491Y-14699579D02*
X14926968Y-14680531D01*
X14926968Y-14680531D02*
X14917444Y-14651960D01*
X14917444Y-14651960D02*
X14907920Y-14604341D01*
X14907920Y-14604341D02*
X14907920Y-14566246D01*
X14907920Y-14566246D02*
X14917444Y-14518627D01*
X14917444Y-14518627D02*
X14926968Y-14490055D01*
X14926968Y-14490055D02*
X14936491Y-14471008D01*
X14936491Y-14471008D02*
X14955539Y-14442436D01*
X14955539Y-14442436D02*
X14965063Y-14432912D01*
X15041253Y-14528150D02*
X15041253Y-14661484D01*
X15041253Y-14547198D02*
X15050777Y-14537674D01*
X15050777Y-14537674D02*
X15069825Y-14528150D01*
X15069825Y-14528150D02*
X15098396Y-14528150D01*
X15098396Y-14528150D02*
X15117444Y-14537674D01*
X15117444Y-14537674D02*
X15126968Y-14556722D01*
X15126968Y-14556722D02*
X15126968Y-14661484D01*
X15250777Y-14661484D02*
X15231730Y-14651960D01*
X15231730Y-14651960D02*
X15222206Y-14642436D01*
X15222206Y-14642436D02*
X15212682Y-14623388D01*
X15212682Y-14623388D02*
X15212682Y-14566246D01*
X15212682Y-14566246D02*
X15222206Y-14547198D01*
X15222206Y-14547198D02*
X15231730Y-14537674D01*
X15231730Y-14537674D02*
X15250777Y-14528150D01*
X15250777Y-14528150D02*
X15279349Y-14528150D01*
X15279349Y-14528150D02*
X15298396Y-14537674D01*
X15298396Y-14537674D02*
X15307920Y-14547198D01*
X15307920Y-14547198D02*
X15317444Y-14566246D01*
X15317444Y-14566246D02*
X15317444Y-14623388D01*
X15317444Y-14623388D02*
X15307920Y-14642436D01*
X15307920Y-14642436D02*
X15298396Y-14651960D01*
X15298396Y-14651960D02*
X15279349Y-14661484D01*
X15279349Y-14661484D02*
X15250777Y-14661484D01*
X15374587Y-14528150D02*
X15450777Y-14528150D01*
X15403158Y-14461484D02*
X15403158Y-14632912D01*
X15403158Y-14632912D02*
X15412682Y-14651960D01*
X15412682Y-14651960D02*
X15431730Y-14661484D01*
X15431730Y-14661484D02*
X15450777Y-14661484D01*
X15669825Y-14528150D02*
X15669825Y-14728150D01*
X15669825Y-14537674D02*
X15688872Y-14528150D01*
X15688872Y-14528150D02*
X15726968Y-14528150D01*
X15726968Y-14528150D02*
X15746015Y-14537674D01*
X15746015Y-14537674D02*
X15755539Y-14547198D01*
X15755539Y-14547198D02*
X15765063Y-14566246D01*
X15765063Y-14566246D02*
X15765063Y-14623388D01*
X15765063Y-14623388D02*
X15755539Y-14642436D01*
X15755539Y-14642436D02*
X15746015Y-14651960D01*
X15746015Y-14651960D02*
X15726968Y-14661484D01*
X15726968Y-14661484D02*
X15688872Y-14661484D01*
X15688872Y-14661484D02*
X15669825Y-14651960D01*
X15879349Y-14661484D02*
X15860301Y-14651960D01*
X15860301Y-14651960D02*
X15850777Y-14632912D01*
X15850777Y-14632912D02*
X15850777Y-14461484D01*
X16041253Y-14661484D02*
X16041253Y-14556722D01*
X16041253Y-14556722D02*
X16031730Y-14537674D01*
X16031730Y-14537674D02*
X16012682Y-14528150D01*
X16012682Y-14528150D02*
X15974587Y-14528150D01*
X15974587Y-14528150D02*
X15955539Y-14537674D01*
X16041253Y-14651960D02*
X16022206Y-14661484D01*
X16022206Y-14661484D02*
X15974587Y-14661484D01*
X15974587Y-14661484D02*
X15955539Y-14651960D01*
X15955539Y-14651960D02*
X15946015Y-14632912D01*
X15946015Y-14632912D02*
X15946015Y-14613865D01*
X15946015Y-14613865D02*
X15955539Y-14594817D01*
X15955539Y-14594817D02*
X15974587Y-14585293D01*
X15974587Y-14585293D02*
X16022206Y-14585293D01*
X16022206Y-14585293D02*
X16041253Y-14575769D01*
X16107920Y-14528150D02*
X16184111Y-14528150D01*
X16136492Y-14461484D02*
X16136492Y-14632912D01*
X16136492Y-14632912D02*
X16146015Y-14651960D01*
X16146015Y-14651960D02*
X16165063Y-14661484D01*
X16165063Y-14661484D02*
X16184111Y-14661484D01*
X16326968Y-14651960D02*
X16307920Y-14661484D01*
X16307920Y-14661484D02*
X16269825Y-14661484D01*
X16269825Y-14661484D02*
X16250777Y-14651960D01*
X16250777Y-14651960D02*
X16241253Y-14632912D01*
X16241253Y-14632912D02*
X16241253Y-14556722D01*
X16241253Y-14556722D02*
X16250777Y-14537674D01*
X16250777Y-14537674D02*
X16269825Y-14528150D01*
X16269825Y-14528150D02*
X16307920Y-14528150D01*
X16307920Y-14528150D02*
X16326968Y-14537674D01*
X16326968Y-14537674D02*
X16336492Y-14556722D01*
X16336492Y-14556722D02*
X16336492Y-14575769D01*
X16336492Y-14575769D02*
X16241253Y-14594817D01*
X16507920Y-14661484D02*
X16507920Y-14461484D01*
X16507920Y-14651960D02*
X16488873Y-14661484D01*
X16488873Y-14661484D02*
X16450777Y-14661484D01*
X16450777Y-14661484D02*
X16431730Y-14651960D01*
X16431730Y-14651960D02*
X16422206Y-14642436D01*
X16422206Y-14642436D02*
X16412682Y-14623388D01*
X16412682Y-14623388D02*
X16412682Y-14566246D01*
X16412682Y-14566246D02*
X16422206Y-14547198D01*
X16422206Y-14547198D02*
X16431730Y-14537674D01*
X16431730Y-14537674D02*
X16450777Y-14528150D01*
X16450777Y-14528150D02*
X16488873Y-14528150D01*
X16488873Y-14528150D02*
X16507920Y-14537674D01*
X16584111Y-14737674D02*
X16593634Y-14728150D01*
X16593634Y-14728150D02*
X16612682Y-14699579D01*
X16612682Y-14699579D02*
X16622206Y-14680531D01*
X16622206Y-14680531D02*
X16631730Y-14651960D01*
X16631730Y-14651960D02*
X16641253Y-14604341D01*
X16641253Y-14604341D02*
X16641253Y-14566246D01*
X16641253Y-14566246D02*
X16631730Y-14518627D01*
X16631730Y-14518627D02*
X16622206Y-14490055D01*
X16622206Y-14490055D02*
X16612682Y-14471008D01*
X16612682Y-14471008D02*
X16593634Y-14442436D01*
X16593634Y-14442436D02*
X16584111Y-14432912D01*
M02*
