G04 #@! TF.GenerationSoftware,KiCad,Pcbnew,9.0.1-9.0.1-0~ubuntu22.04.1*
G04 #@! TF.CreationDate,2025-04-10T12:51:45-07:00*
G04 #@! TF.ProjectId,kicad_port,6b696361-645f-4706-9f72-742e6b696361,rev?*
G04 #@! TF.SameCoordinates,Original*
G04 #@! TF.FileFunction,Legend,Bot*
G04 #@! TF.FilePolarity,Positive*
%FSLAX46Y46*%
G04 Gerber Fmt 4.6, Leading zero omitted, Abs format (unit mm)*
G04 Created by KiCad (PCBNEW 9.0.1-9.0.1-0~ubuntu22.04.1) date 2025-04-10 12:51:45*
%MOMM*%
%LPD*%
G01*
G04 APERTURE LIST*
%ADD10C,0.150000*%
%ADD11C,0.300000*%
%ADD12C,0.120000*%
%ADD13C,0.203200*%
%ADD14C,0.127000*%
%ADD15O,4.750000X2.250000*%
%ADD16O,1.400000X1.400000*%
%ADD17C,1.400000*%
%ADD18O,1.700000X1.700000*%
%ADD19R,1.700000X1.700000*%
%ADD20R,1.800000X1.800000*%
%ADD21C,1.800000*%
%ADD22C,8.600000*%
%ADD23O,2.000000X1.200000*%
%ADD24C,1.511200*%
%ADD25C,6.500000*%
%ADD26C,1.638200*%
G04 APERTURE END LIST*
D10*
X189768847Y-108101047D02*
X188768847Y-108101047D01*
X188768847Y-108101047D02*
X189483132Y-108434380D01*
X189483132Y-108434380D02*
X188768847Y-108767713D01*
X188768847Y-108767713D02*
X189768847Y-108767713D01*
X189768847Y-109386761D02*
X189721228Y-109291523D01*
X189721228Y-109291523D02*
X189673608Y-109243904D01*
X189673608Y-109243904D02*
X189578370Y-109196285D01*
X189578370Y-109196285D02*
X189292656Y-109196285D01*
X189292656Y-109196285D02*
X189197418Y-109243904D01*
X189197418Y-109243904D02*
X189149799Y-109291523D01*
X189149799Y-109291523D02*
X189102180Y-109386761D01*
X189102180Y-109386761D02*
X189102180Y-109529618D01*
X189102180Y-109529618D02*
X189149799Y-109624856D01*
X189149799Y-109624856D02*
X189197418Y-109672475D01*
X189197418Y-109672475D02*
X189292656Y-109720094D01*
X189292656Y-109720094D02*
X189578370Y-109720094D01*
X189578370Y-109720094D02*
X189673608Y-109672475D01*
X189673608Y-109672475D02*
X189721228Y-109624856D01*
X189721228Y-109624856D02*
X189768847Y-109529618D01*
X189768847Y-109529618D02*
X189768847Y-109386761D01*
X189768847Y-110291523D02*
X189721228Y-110196285D01*
X189721228Y-110196285D02*
X189625989Y-110148666D01*
X189625989Y-110148666D02*
X188768847Y-110148666D01*
X189721228Y-111053428D02*
X189768847Y-110958190D01*
X189768847Y-110958190D02*
X189768847Y-110767714D01*
X189768847Y-110767714D02*
X189721228Y-110672476D01*
X189721228Y-110672476D02*
X189625989Y-110624857D01*
X189625989Y-110624857D02*
X189245037Y-110624857D01*
X189245037Y-110624857D02*
X189149799Y-110672476D01*
X189149799Y-110672476D02*
X189102180Y-110767714D01*
X189102180Y-110767714D02*
X189102180Y-110958190D01*
X189102180Y-110958190D02*
X189149799Y-111053428D01*
X189149799Y-111053428D02*
X189245037Y-111101047D01*
X189245037Y-111101047D02*
X189340275Y-111101047D01*
X189340275Y-111101047D02*
X189435513Y-110624857D01*
X189768847Y-111434381D02*
X189102180Y-111958190D01*
X189102180Y-111434381D02*
X189768847Y-111958190D01*
X190378791Y-105077238D02*
X190378791Y-105696285D01*
X190378791Y-105696285D02*
X190759743Y-105362952D01*
X190759743Y-105362952D02*
X190759743Y-105505809D01*
X190759743Y-105505809D02*
X190807362Y-105601047D01*
X190807362Y-105601047D02*
X190854981Y-105648666D01*
X190854981Y-105648666D02*
X190950219Y-105696285D01*
X190950219Y-105696285D02*
X191188314Y-105696285D01*
X191188314Y-105696285D02*
X191283552Y-105648666D01*
X191283552Y-105648666D02*
X191331172Y-105601047D01*
X191331172Y-105601047D02*
X191378791Y-105505809D01*
X191378791Y-105505809D02*
X191378791Y-105220095D01*
X191378791Y-105220095D02*
X191331172Y-105124857D01*
X191331172Y-105124857D02*
X191283552Y-105077238D01*
X191378791Y-106172476D02*
X191378791Y-106362952D01*
X191378791Y-106362952D02*
X191331172Y-106458190D01*
X191331172Y-106458190D02*
X191283552Y-106505809D01*
X191283552Y-106505809D02*
X191140695Y-106601047D01*
X191140695Y-106601047D02*
X190950219Y-106648666D01*
X190950219Y-106648666D02*
X190569267Y-106648666D01*
X190569267Y-106648666D02*
X190474029Y-106601047D01*
X190474029Y-106601047D02*
X190426410Y-106553428D01*
X190426410Y-106553428D02*
X190378791Y-106458190D01*
X190378791Y-106458190D02*
X190378791Y-106267714D01*
X190378791Y-106267714D02*
X190426410Y-106172476D01*
X190426410Y-106172476D02*
X190474029Y-106124857D01*
X190474029Y-106124857D02*
X190569267Y-106077238D01*
X190569267Y-106077238D02*
X190807362Y-106077238D01*
X190807362Y-106077238D02*
X190902600Y-106124857D01*
X190902600Y-106124857D02*
X190950219Y-106172476D01*
X190950219Y-106172476D02*
X190997838Y-106267714D01*
X190997838Y-106267714D02*
X190997838Y-106458190D01*
X190997838Y-106458190D02*
X190950219Y-106553428D01*
X190950219Y-106553428D02*
X190902600Y-106601047D01*
X190902600Y-106601047D02*
X190807362Y-106648666D01*
X190997838Y-107077238D02*
X190997838Y-107839143D01*
X190378791Y-108791523D02*
X190378791Y-108315333D01*
X190378791Y-108315333D02*
X190854981Y-108267714D01*
X190854981Y-108267714D02*
X190807362Y-108315333D01*
X190807362Y-108315333D02*
X190759743Y-108410571D01*
X190759743Y-108410571D02*
X190759743Y-108648666D01*
X190759743Y-108648666D02*
X190807362Y-108743904D01*
X190807362Y-108743904D02*
X190854981Y-108791523D01*
X190854981Y-108791523D02*
X190950219Y-108839142D01*
X190950219Y-108839142D02*
X191188314Y-108839142D01*
X191188314Y-108839142D02*
X191283552Y-108791523D01*
X191283552Y-108791523D02*
X191331172Y-108743904D01*
X191331172Y-108743904D02*
X191378791Y-108648666D01*
X191378791Y-108648666D02*
X191378791Y-108410571D01*
X191378791Y-108410571D02*
X191331172Y-108315333D01*
X191331172Y-108315333D02*
X191283552Y-108267714D01*
X190378791Y-109172476D02*
X190378791Y-109791523D01*
X190378791Y-109791523D02*
X190759743Y-109458190D01*
X190759743Y-109458190D02*
X190759743Y-109601047D01*
X190759743Y-109601047D02*
X190807362Y-109696285D01*
X190807362Y-109696285D02*
X190854981Y-109743904D01*
X190854981Y-109743904D02*
X190950219Y-109791523D01*
X190950219Y-109791523D02*
X191188314Y-109791523D01*
X191188314Y-109791523D02*
X191283552Y-109743904D01*
X191283552Y-109743904D02*
X191331172Y-109696285D01*
X191331172Y-109696285D02*
X191378791Y-109601047D01*
X191378791Y-109601047D02*
X191378791Y-109315333D01*
X191378791Y-109315333D02*
X191331172Y-109220095D01*
X191331172Y-109220095D02*
X191283552Y-109172476D01*
X190997838Y-110220095D02*
X190997838Y-110982000D01*
X190474029Y-111410571D02*
X190426410Y-111458190D01*
X190426410Y-111458190D02*
X190378791Y-111553428D01*
X190378791Y-111553428D02*
X190378791Y-111791523D01*
X190378791Y-111791523D02*
X190426410Y-111886761D01*
X190426410Y-111886761D02*
X190474029Y-111934380D01*
X190474029Y-111934380D02*
X190569267Y-111981999D01*
X190569267Y-111981999D02*
X190664505Y-111981999D01*
X190664505Y-111981999D02*
X190807362Y-111934380D01*
X190807362Y-111934380D02*
X191378791Y-111362952D01*
X191378791Y-111362952D02*
X191378791Y-111981999D01*
X191378791Y-112934380D02*
X191378791Y-112362952D01*
X191378791Y-112648666D02*
X190378791Y-112648666D01*
X190378791Y-112648666D02*
X190521648Y-112553428D01*
X190521648Y-112553428D02*
X190616886Y-112458190D01*
X190616886Y-112458190D02*
X190664505Y-112362952D01*
X190378791Y-113267714D02*
X190378791Y-113886761D01*
X190378791Y-113886761D02*
X190759743Y-113553428D01*
X190759743Y-113553428D02*
X190759743Y-113696285D01*
X190759743Y-113696285D02*
X190807362Y-113791523D01*
X190807362Y-113791523D02*
X190854981Y-113839142D01*
X190854981Y-113839142D02*
X190950219Y-113886761D01*
X190950219Y-113886761D02*
X191188314Y-113886761D01*
X191188314Y-113886761D02*
X191283552Y-113839142D01*
X191283552Y-113839142D02*
X191331172Y-113791523D01*
X191331172Y-113791523D02*
X191378791Y-113696285D01*
X191378791Y-113696285D02*
X191378791Y-113410571D01*
X191378791Y-113410571D02*
X191331172Y-113315333D01*
X191331172Y-113315333D02*
X191283552Y-113267714D01*
X190378791Y-114791523D02*
X190378791Y-114315333D01*
X190378791Y-114315333D02*
X190854981Y-114267714D01*
X190854981Y-114267714D02*
X190807362Y-114315333D01*
X190807362Y-114315333D02*
X190759743Y-114410571D01*
X190759743Y-114410571D02*
X190759743Y-114648666D01*
X190759743Y-114648666D02*
X190807362Y-114743904D01*
X190807362Y-114743904D02*
X190854981Y-114791523D01*
X190854981Y-114791523D02*
X190950219Y-114839142D01*
X190950219Y-114839142D02*
X191188314Y-114839142D01*
X191188314Y-114839142D02*
X191283552Y-114791523D01*
X191283552Y-114791523D02*
X191331172Y-114743904D01*
X191331172Y-114743904D02*
X191378791Y-114648666D01*
X191378791Y-114648666D02*
X191378791Y-114410571D01*
X191378791Y-114410571D02*
X191331172Y-114315333D01*
X191331172Y-114315333D02*
X191283552Y-114267714D01*
X179736475Y-123390819D02*
X179736475Y-122390819D01*
X179165047Y-123390819D02*
X179593618Y-122819390D01*
X179165047Y-122390819D02*
X179736475Y-122962247D01*
X178403142Y-122867009D02*
X178260285Y-122914628D01*
X178260285Y-122914628D02*
X178212666Y-122962247D01*
X178212666Y-122962247D02*
X178165047Y-123057485D01*
X178165047Y-123057485D02*
X178165047Y-123200342D01*
X178165047Y-123200342D02*
X178212666Y-123295580D01*
X178212666Y-123295580D02*
X178260285Y-123343200D01*
X178260285Y-123343200D02*
X178355523Y-123390819D01*
X178355523Y-123390819D02*
X178736475Y-123390819D01*
X178736475Y-123390819D02*
X178736475Y-122390819D01*
X178736475Y-122390819D02*
X178403142Y-122390819D01*
X178403142Y-122390819D02*
X178307904Y-122438438D01*
X178307904Y-122438438D02*
X178260285Y-122486057D01*
X178260285Y-122486057D02*
X178212666Y-122581295D01*
X178212666Y-122581295D02*
X178212666Y-122676533D01*
X178212666Y-122676533D02*
X178260285Y-122771771D01*
X178260285Y-122771771D02*
X178307904Y-122819390D01*
X178307904Y-122819390D02*
X178403142Y-122867009D01*
X178403142Y-122867009D02*
X178736475Y-122867009D01*
X177307904Y-122390819D02*
X177498380Y-122390819D01*
X177498380Y-122390819D02*
X177593618Y-122438438D01*
X177593618Y-122438438D02*
X177641237Y-122486057D01*
X177641237Y-122486057D02*
X177736475Y-122628914D01*
X177736475Y-122628914D02*
X177784094Y-122819390D01*
X177784094Y-122819390D02*
X177784094Y-123200342D01*
X177784094Y-123200342D02*
X177736475Y-123295580D01*
X177736475Y-123295580D02*
X177688856Y-123343200D01*
X177688856Y-123343200D02*
X177593618Y-123390819D01*
X177593618Y-123390819D02*
X177403142Y-123390819D01*
X177403142Y-123390819D02*
X177307904Y-123343200D01*
X177307904Y-123343200D02*
X177260285Y-123295580D01*
X177260285Y-123295580D02*
X177212666Y-123200342D01*
X177212666Y-123200342D02*
X177212666Y-122962247D01*
X177212666Y-122962247D02*
X177260285Y-122867009D01*
X177260285Y-122867009D02*
X177307904Y-122819390D01*
X177307904Y-122819390D02*
X177403142Y-122771771D01*
X177403142Y-122771771D02*
X177593618Y-122771771D01*
X177593618Y-122771771D02*
X177688856Y-122819390D01*
X177688856Y-122819390D02*
X177736475Y-122867009D01*
X177736475Y-122867009D02*
X177784094Y-122962247D01*
X176593618Y-122390819D02*
X176498380Y-122390819D01*
X176498380Y-122390819D02*
X176403142Y-122438438D01*
X176403142Y-122438438D02*
X176355523Y-122486057D01*
X176355523Y-122486057D02*
X176307904Y-122581295D01*
X176307904Y-122581295D02*
X176260285Y-122771771D01*
X176260285Y-122771771D02*
X176260285Y-123009866D01*
X176260285Y-123009866D02*
X176307904Y-123200342D01*
X176307904Y-123200342D02*
X176355523Y-123295580D01*
X176355523Y-123295580D02*
X176403142Y-123343200D01*
X176403142Y-123343200D02*
X176498380Y-123390819D01*
X176498380Y-123390819D02*
X176593618Y-123390819D01*
X176593618Y-123390819D02*
X176688856Y-123343200D01*
X176688856Y-123343200D02*
X176736475Y-123295580D01*
X176736475Y-123295580D02*
X176784094Y-123200342D01*
X176784094Y-123200342D02*
X176831713Y-123009866D01*
X176831713Y-123009866D02*
X176831713Y-122771771D01*
X176831713Y-122771771D02*
X176784094Y-122581295D01*
X176784094Y-122581295D02*
X176736475Y-122486057D01*
X176736475Y-122486057D02*
X176688856Y-122438438D01*
X176688856Y-122438438D02*
X176593618Y-122390819D01*
X175641237Y-122390819D02*
X175545999Y-122390819D01*
X175545999Y-122390819D02*
X175450761Y-122438438D01*
X175450761Y-122438438D02*
X175403142Y-122486057D01*
X175403142Y-122486057D02*
X175355523Y-122581295D01*
X175355523Y-122581295D02*
X175307904Y-122771771D01*
X175307904Y-122771771D02*
X175307904Y-123009866D01*
X175307904Y-123009866D02*
X175355523Y-123200342D01*
X175355523Y-123200342D02*
X175403142Y-123295580D01*
X175403142Y-123295580D02*
X175450761Y-123343200D01*
X175450761Y-123343200D02*
X175545999Y-123390819D01*
X175545999Y-123390819D02*
X175641237Y-123390819D01*
X175641237Y-123390819D02*
X175736475Y-123343200D01*
X175736475Y-123343200D02*
X175784094Y-123295580D01*
X175784094Y-123295580D02*
X175831713Y-123200342D01*
X175831713Y-123200342D02*
X175879332Y-123009866D01*
X175879332Y-123009866D02*
X175879332Y-122771771D01*
X175879332Y-122771771D02*
X175831713Y-122581295D01*
X175831713Y-122581295D02*
X175784094Y-122486057D01*
X175784094Y-122486057D02*
X175736475Y-122438438D01*
X175736475Y-122438438D02*
X175641237Y-122390819D01*
X103535847Y-60603047D02*
X102535847Y-60603047D01*
X102535847Y-60603047D02*
X103250132Y-60936380D01*
X103250132Y-60936380D02*
X102535847Y-61269713D01*
X102535847Y-61269713D02*
X103535847Y-61269713D01*
X103535847Y-61888761D02*
X103488228Y-61793523D01*
X103488228Y-61793523D02*
X103440608Y-61745904D01*
X103440608Y-61745904D02*
X103345370Y-61698285D01*
X103345370Y-61698285D02*
X103059656Y-61698285D01*
X103059656Y-61698285D02*
X102964418Y-61745904D01*
X102964418Y-61745904D02*
X102916799Y-61793523D01*
X102916799Y-61793523D02*
X102869180Y-61888761D01*
X102869180Y-61888761D02*
X102869180Y-62031618D01*
X102869180Y-62031618D02*
X102916799Y-62126856D01*
X102916799Y-62126856D02*
X102964418Y-62174475D01*
X102964418Y-62174475D02*
X103059656Y-62222094D01*
X103059656Y-62222094D02*
X103345370Y-62222094D01*
X103345370Y-62222094D02*
X103440608Y-62174475D01*
X103440608Y-62174475D02*
X103488228Y-62126856D01*
X103488228Y-62126856D02*
X103535847Y-62031618D01*
X103535847Y-62031618D02*
X103535847Y-61888761D01*
X103535847Y-62793523D02*
X103488228Y-62698285D01*
X103488228Y-62698285D02*
X103392989Y-62650666D01*
X103392989Y-62650666D02*
X102535847Y-62650666D01*
X103488228Y-63555428D02*
X103535847Y-63460190D01*
X103535847Y-63460190D02*
X103535847Y-63269714D01*
X103535847Y-63269714D02*
X103488228Y-63174476D01*
X103488228Y-63174476D02*
X103392989Y-63126857D01*
X103392989Y-63126857D02*
X103012037Y-63126857D01*
X103012037Y-63126857D02*
X102916799Y-63174476D01*
X102916799Y-63174476D02*
X102869180Y-63269714D01*
X102869180Y-63269714D02*
X102869180Y-63460190D01*
X102869180Y-63460190D02*
X102916799Y-63555428D01*
X102916799Y-63555428D02*
X103012037Y-63603047D01*
X103012037Y-63603047D02*
X103107275Y-63603047D01*
X103107275Y-63603047D02*
X103202513Y-63126857D01*
X103535847Y-63936381D02*
X102869180Y-64460190D01*
X102869180Y-63936381D02*
X103535847Y-64460190D01*
X104145791Y-57579238D02*
X104145791Y-58198285D01*
X104145791Y-58198285D02*
X104526743Y-57864952D01*
X104526743Y-57864952D02*
X104526743Y-58007809D01*
X104526743Y-58007809D02*
X104574362Y-58103047D01*
X104574362Y-58103047D02*
X104621981Y-58150666D01*
X104621981Y-58150666D02*
X104717219Y-58198285D01*
X104717219Y-58198285D02*
X104955314Y-58198285D01*
X104955314Y-58198285D02*
X105050552Y-58150666D01*
X105050552Y-58150666D02*
X105098172Y-58103047D01*
X105098172Y-58103047D02*
X105145791Y-58007809D01*
X105145791Y-58007809D02*
X105145791Y-57722095D01*
X105145791Y-57722095D02*
X105098172Y-57626857D01*
X105098172Y-57626857D02*
X105050552Y-57579238D01*
X105145791Y-58674476D02*
X105145791Y-58864952D01*
X105145791Y-58864952D02*
X105098172Y-58960190D01*
X105098172Y-58960190D02*
X105050552Y-59007809D01*
X105050552Y-59007809D02*
X104907695Y-59103047D01*
X104907695Y-59103047D02*
X104717219Y-59150666D01*
X104717219Y-59150666D02*
X104336267Y-59150666D01*
X104336267Y-59150666D02*
X104241029Y-59103047D01*
X104241029Y-59103047D02*
X104193410Y-59055428D01*
X104193410Y-59055428D02*
X104145791Y-58960190D01*
X104145791Y-58960190D02*
X104145791Y-58769714D01*
X104145791Y-58769714D02*
X104193410Y-58674476D01*
X104193410Y-58674476D02*
X104241029Y-58626857D01*
X104241029Y-58626857D02*
X104336267Y-58579238D01*
X104336267Y-58579238D02*
X104574362Y-58579238D01*
X104574362Y-58579238D02*
X104669600Y-58626857D01*
X104669600Y-58626857D02*
X104717219Y-58674476D01*
X104717219Y-58674476D02*
X104764838Y-58769714D01*
X104764838Y-58769714D02*
X104764838Y-58960190D01*
X104764838Y-58960190D02*
X104717219Y-59055428D01*
X104717219Y-59055428D02*
X104669600Y-59103047D01*
X104669600Y-59103047D02*
X104574362Y-59150666D01*
X104764838Y-59579238D02*
X104764838Y-60341143D01*
X104145791Y-61293523D02*
X104145791Y-60817333D01*
X104145791Y-60817333D02*
X104621981Y-60769714D01*
X104621981Y-60769714D02*
X104574362Y-60817333D01*
X104574362Y-60817333D02*
X104526743Y-60912571D01*
X104526743Y-60912571D02*
X104526743Y-61150666D01*
X104526743Y-61150666D02*
X104574362Y-61245904D01*
X104574362Y-61245904D02*
X104621981Y-61293523D01*
X104621981Y-61293523D02*
X104717219Y-61341142D01*
X104717219Y-61341142D02*
X104955314Y-61341142D01*
X104955314Y-61341142D02*
X105050552Y-61293523D01*
X105050552Y-61293523D02*
X105098172Y-61245904D01*
X105098172Y-61245904D02*
X105145791Y-61150666D01*
X105145791Y-61150666D02*
X105145791Y-60912571D01*
X105145791Y-60912571D02*
X105098172Y-60817333D01*
X105098172Y-60817333D02*
X105050552Y-60769714D01*
X104145791Y-61674476D02*
X104145791Y-62293523D01*
X104145791Y-62293523D02*
X104526743Y-61960190D01*
X104526743Y-61960190D02*
X104526743Y-62103047D01*
X104526743Y-62103047D02*
X104574362Y-62198285D01*
X104574362Y-62198285D02*
X104621981Y-62245904D01*
X104621981Y-62245904D02*
X104717219Y-62293523D01*
X104717219Y-62293523D02*
X104955314Y-62293523D01*
X104955314Y-62293523D02*
X105050552Y-62245904D01*
X105050552Y-62245904D02*
X105098172Y-62198285D01*
X105098172Y-62198285D02*
X105145791Y-62103047D01*
X105145791Y-62103047D02*
X105145791Y-61817333D01*
X105145791Y-61817333D02*
X105098172Y-61722095D01*
X105098172Y-61722095D02*
X105050552Y-61674476D01*
X104764838Y-62722095D02*
X104764838Y-63484000D01*
X104241029Y-63912571D02*
X104193410Y-63960190D01*
X104193410Y-63960190D02*
X104145791Y-64055428D01*
X104145791Y-64055428D02*
X104145791Y-64293523D01*
X104145791Y-64293523D02*
X104193410Y-64388761D01*
X104193410Y-64388761D02*
X104241029Y-64436380D01*
X104241029Y-64436380D02*
X104336267Y-64483999D01*
X104336267Y-64483999D02*
X104431505Y-64483999D01*
X104431505Y-64483999D02*
X104574362Y-64436380D01*
X104574362Y-64436380D02*
X105145791Y-63864952D01*
X105145791Y-63864952D02*
X105145791Y-64483999D01*
X105145791Y-65436380D02*
X105145791Y-64864952D01*
X105145791Y-65150666D02*
X104145791Y-65150666D01*
X104145791Y-65150666D02*
X104288648Y-65055428D01*
X104288648Y-65055428D02*
X104383886Y-64960190D01*
X104383886Y-64960190D02*
X104431505Y-64864952D01*
X104145791Y-65769714D02*
X104145791Y-66388761D01*
X104145791Y-66388761D02*
X104526743Y-66055428D01*
X104526743Y-66055428D02*
X104526743Y-66198285D01*
X104526743Y-66198285D02*
X104574362Y-66293523D01*
X104574362Y-66293523D02*
X104621981Y-66341142D01*
X104621981Y-66341142D02*
X104717219Y-66388761D01*
X104717219Y-66388761D02*
X104955314Y-66388761D01*
X104955314Y-66388761D02*
X105050552Y-66341142D01*
X105050552Y-66341142D02*
X105098172Y-66293523D01*
X105098172Y-66293523D02*
X105145791Y-66198285D01*
X105145791Y-66198285D02*
X105145791Y-65912571D01*
X105145791Y-65912571D02*
X105098172Y-65817333D01*
X105098172Y-65817333D02*
X105050552Y-65769714D01*
X104145791Y-67293523D02*
X104145791Y-66817333D01*
X104145791Y-66817333D02*
X104621981Y-66769714D01*
X104621981Y-66769714D02*
X104574362Y-66817333D01*
X104574362Y-66817333D02*
X104526743Y-66912571D01*
X104526743Y-66912571D02*
X104526743Y-67150666D01*
X104526743Y-67150666D02*
X104574362Y-67245904D01*
X104574362Y-67245904D02*
X104621981Y-67293523D01*
X104621981Y-67293523D02*
X104717219Y-67341142D01*
X104717219Y-67341142D02*
X104955314Y-67341142D01*
X104955314Y-67341142D02*
X105050552Y-67293523D01*
X105050552Y-67293523D02*
X105098172Y-67245904D01*
X105098172Y-67245904D02*
X105145791Y-67150666D01*
X105145791Y-67150666D02*
X105145791Y-66912571D01*
X105145791Y-66912571D02*
X105098172Y-66817333D01*
X105098172Y-66817333D02*
X105050552Y-66769714D01*
D11*
X149478572Y-118988328D02*
X149478572Y-117488328D01*
X149478572Y-117488328D02*
X148621429Y-118988328D01*
X148621429Y-118988328D02*
X148621429Y-117488328D01*
X147907143Y-117488328D02*
X147907143Y-118702614D01*
X147907143Y-118702614D02*
X147835714Y-118845471D01*
X147835714Y-118845471D02*
X147764286Y-118916900D01*
X147764286Y-118916900D02*
X147621428Y-118988328D01*
X147621428Y-118988328D02*
X147335714Y-118988328D01*
X147335714Y-118988328D02*
X147192857Y-118916900D01*
X147192857Y-118916900D02*
X147121428Y-118845471D01*
X147121428Y-118845471D02*
X147050000Y-118702614D01*
X147050000Y-118702614D02*
X147050000Y-117488328D01*
X146335714Y-118988328D02*
X146335714Y-117488328D01*
X146335714Y-117488328D02*
X145835714Y-118559757D01*
X145835714Y-118559757D02*
X145335714Y-117488328D01*
X145335714Y-117488328D02*
X145335714Y-118988328D01*
X143907142Y-118988328D02*
X144621428Y-118988328D01*
X144621428Y-118988328D02*
X144621428Y-117488328D01*
X142549999Y-118845471D02*
X142621427Y-118916900D01*
X142621427Y-118916900D02*
X142835713Y-118988328D01*
X142835713Y-118988328D02*
X142978570Y-118988328D01*
X142978570Y-118988328D02*
X143192856Y-118916900D01*
X143192856Y-118916900D02*
X143335713Y-118774042D01*
X143335713Y-118774042D02*
X143407142Y-118631185D01*
X143407142Y-118631185D02*
X143478570Y-118345471D01*
X143478570Y-118345471D02*
X143478570Y-118131185D01*
X143478570Y-118131185D02*
X143407142Y-117845471D01*
X143407142Y-117845471D02*
X143335713Y-117702614D01*
X143335713Y-117702614D02*
X143192856Y-117559757D01*
X143192856Y-117559757D02*
X142978570Y-117488328D01*
X142978570Y-117488328D02*
X142835713Y-117488328D01*
X142835713Y-117488328D02*
X142621427Y-117559757D01*
X142621427Y-117559757D02*
X142549999Y-117631185D01*
X141907142Y-118988328D02*
X141907142Y-117488328D01*
X141049999Y-118988328D02*
X141692856Y-118131185D01*
X141049999Y-117488328D02*
X141907142Y-118345471D01*
D10*
X115545952Y-121696847D02*
X115545952Y-120696847D01*
X115545952Y-120696847D02*
X115212619Y-121411132D01*
X115212619Y-121411132D02*
X114879286Y-120696847D01*
X114879286Y-120696847D02*
X114879286Y-121696847D01*
X114260238Y-121696847D02*
X114355476Y-121649228D01*
X114355476Y-121649228D02*
X114403095Y-121601608D01*
X114403095Y-121601608D02*
X114450714Y-121506370D01*
X114450714Y-121506370D02*
X114450714Y-121220656D01*
X114450714Y-121220656D02*
X114403095Y-121125418D01*
X114403095Y-121125418D02*
X114355476Y-121077799D01*
X114355476Y-121077799D02*
X114260238Y-121030180D01*
X114260238Y-121030180D02*
X114117381Y-121030180D01*
X114117381Y-121030180D02*
X114022143Y-121077799D01*
X114022143Y-121077799D02*
X113974524Y-121125418D01*
X113974524Y-121125418D02*
X113926905Y-121220656D01*
X113926905Y-121220656D02*
X113926905Y-121506370D01*
X113926905Y-121506370D02*
X113974524Y-121601608D01*
X113974524Y-121601608D02*
X114022143Y-121649228D01*
X114022143Y-121649228D02*
X114117381Y-121696847D01*
X114117381Y-121696847D02*
X114260238Y-121696847D01*
X113355476Y-121696847D02*
X113450714Y-121649228D01*
X113450714Y-121649228D02*
X113498333Y-121553989D01*
X113498333Y-121553989D02*
X113498333Y-120696847D01*
X112593571Y-121649228D02*
X112688809Y-121696847D01*
X112688809Y-121696847D02*
X112879285Y-121696847D01*
X112879285Y-121696847D02*
X112974523Y-121649228D01*
X112974523Y-121649228D02*
X113022142Y-121553989D01*
X113022142Y-121553989D02*
X113022142Y-121173037D01*
X113022142Y-121173037D02*
X112974523Y-121077799D01*
X112974523Y-121077799D02*
X112879285Y-121030180D01*
X112879285Y-121030180D02*
X112688809Y-121030180D01*
X112688809Y-121030180D02*
X112593571Y-121077799D01*
X112593571Y-121077799D02*
X112545952Y-121173037D01*
X112545952Y-121173037D02*
X112545952Y-121268275D01*
X112545952Y-121268275D02*
X113022142Y-121363513D01*
X112212618Y-121696847D02*
X111688809Y-121030180D01*
X112212618Y-121030180D02*
X111688809Y-121696847D01*
X118569761Y-122306791D02*
X117950714Y-122306791D01*
X117950714Y-122306791D02*
X118284047Y-122687743D01*
X118284047Y-122687743D02*
X118141190Y-122687743D01*
X118141190Y-122687743D02*
X118045952Y-122735362D01*
X118045952Y-122735362D02*
X117998333Y-122782981D01*
X117998333Y-122782981D02*
X117950714Y-122878219D01*
X117950714Y-122878219D02*
X117950714Y-123116314D01*
X117950714Y-123116314D02*
X117998333Y-123211552D01*
X117998333Y-123211552D02*
X118045952Y-123259172D01*
X118045952Y-123259172D02*
X118141190Y-123306791D01*
X118141190Y-123306791D02*
X118426904Y-123306791D01*
X118426904Y-123306791D02*
X118522142Y-123259172D01*
X118522142Y-123259172D02*
X118569761Y-123211552D01*
X117474523Y-123306791D02*
X117284047Y-123306791D01*
X117284047Y-123306791D02*
X117188809Y-123259172D01*
X117188809Y-123259172D02*
X117141190Y-123211552D01*
X117141190Y-123211552D02*
X117045952Y-123068695D01*
X117045952Y-123068695D02*
X116998333Y-122878219D01*
X116998333Y-122878219D02*
X116998333Y-122497267D01*
X116998333Y-122497267D02*
X117045952Y-122402029D01*
X117045952Y-122402029D02*
X117093571Y-122354410D01*
X117093571Y-122354410D02*
X117188809Y-122306791D01*
X117188809Y-122306791D02*
X117379285Y-122306791D01*
X117379285Y-122306791D02*
X117474523Y-122354410D01*
X117474523Y-122354410D02*
X117522142Y-122402029D01*
X117522142Y-122402029D02*
X117569761Y-122497267D01*
X117569761Y-122497267D02*
X117569761Y-122735362D01*
X117569761Y-122735362D02*
X117522142Y-122830600D01*
X117522142Y-122830600D02*
X117474523Y-122878219D01*
X117474523Y-122878219D02*
X117379285Y-122925838D01*
X117379285Y-122925838D02*
X117188809Y-122925838D01*
X117188809Y-122925838D02*
X117093571Y-122878219D01*
X117093571Y-122878219D02*
X117045952Y-122830600D01*
X117045952Y-122830600D02*
X116998333Y-122735362D01*
X116569761Y-122925838D02*
X115807857Y-122925838D01*
X114855476Y-122306791D02*
X115331666Y-122306791D01*
X115331666Y-122306791D02*
X115379285Y-122782981D01*
X115379285Y-122782981D02*
X115331666Y-122735362D01*
X115331666Y-122735362D02*
X115236428Y-122687743D01*
X115236428Y-122687743D02*
X114998333Y-122687743D01*
X114998333Y-122687743D02*
X114903095Y-122735362D01*
X114903095Y-122735362D02*
X114855476Y-122782981D01*
X114855476Y-122782981D02*
X114807857Y-122878219D01*
X114807857Y-122878219D02*
X114807857Y-123116314D01*
X114807857Y-123116314D02*
X114855476Y-123211552D01*
X114855476Y-123211552D02*
X114903095Y-123259172D01*
X114903095Y-123259172D02*
X114998333Y-123306791D01*
X114998333Y-123306791D02*
X115236428Y-123306791D01*
X115236428Y-123306791D02*
X115331666Y-123259172D01*
X115331666Y-123259172D02*
X115379285Y-123211552D01*
X114474523Y-122306791D02*
X113855476Y-122306791D01*
X113855476Y-122306791D02*
X114188809Y-122687743D01*
X114188809Y-122687743D02*
X114045952Y-122687743D01*
X114045952Y-122687743D02*
X113950714Y-122735362D01*
X113950714Y-122735362D02*
X113903095Y-122782981D01*
X113903095Y-122782981D02*
X113855476Y-122878219D01*
X113855476Y-122878219D02*
X113855476Y-123116314D01*
X113855476Y-123116314D02*
X113903095Y-123211552D01*
X113903095Y-123211552D02*
X113950714Y-123259172D01*
X113950714Y-123259172D02*
X114045952Y-123306791D01*
X114045952Y-123306791D02*
X114331666Y-123306791D01*
X114331666Y-123306791D02*
X114426904Y-123259172D01*
X114426904Y-123259172D02*
X114474523Y-123211552D01*
X113426904Y-122925838D02*
X112665000Y-122925838D01*
X112236428Y-122402029D02*
X112188809Y-122354410D01*
X112188809Y-122354410D02*
X112093571Y-122306791D01*
X112093571Y-122306791D02*
X111855476Y-122306791D01*
X111855476Y-122306791D02*
X111760238Y-122354410D01*
X111760238Y-122354410D02*
X111712619Y-122402029D01*
X111712619Y-122402029D02*
X111665000Y-122497267D01*
X111665000Y-122497267D02*
X111665000Y-122592505D01*
X111665000Y-122592505D02*
X111712619Y-122735362D01*
X111712619Y-122735362D02*
X112284047Y-123306791D01*
X112284047Y-123306791D02*
X111665000Y-123306791D01*
X110712619Y-123306791D02*
X111284047Y-123306791D01*
X110998333Y-123306791D02*
X110998333Y-122306791D01*
X110998333Y-122306791D02*
X111093571Y-122449648D01*
X111093571Y-122449648D02*
X111188809Y-122544886D01*
X111188809Y-122544886D02*
X111284047Y-122592505D01*
X110379285Y-122306791D02*
X109760238Y-122306791D01*
X109760238Y-122306791D02*
X110093571Y-122687743D01*
X110093571Y-122687743D02*
X109950714Y-122687743D01*
X109950714Y-122687743D02*
X109855476Y-122735362D01*
X109855476Y-122735362D02*
X109807857Y-122782981D01*
X109807857Y-122782981D02*
X109760238Y-122878219D01*
X109760238Y-122878219D02*
X109760238Y-123116314D01*
X109760238Y-123116314D02*
X109807857Y-123211552D01*
X109807857Y-123211552D02*
X109855476Y-123259172D01*
X109855476Y-123259172D02*
X109950714Y-123306791D01*
X109950714Y-123306791D02*
X110236428Y-123306791D01*
X110236428Y-123306791D02*
X110331666Y-123259172D01*
X110331666Y-123259172D02*
X110379285Y-123211552D01*
X108855476Y-122306791D02*
X109331666Y-122306791D01*
X109331666Y-122306791D02*
X109379285Y-122782981D01*
X109379285Y-122782981D02*
X109331666Y-122735362D01*
X109331666Y-122735362D02*
X109236428Y-122687743D01*
X109236428Y-122687743D02*
X108998333Y-122687743D01*
X108998333Y-122687743D02*
X108903095Y-122735362D01*
X108903095Y-122735362D02*
X108855476Y-122782981D01*
X108855476Y-122782981D02*
X108807857Y-122878219D01*
X108807857Y-122878219D02*
X108807857Y-123116314D01*
X108807857Y-123116314D02*
X108855476Y-123211552D01*
X108855476Y-123211552D02*
X108903095Y-123259172D01*
X108903095Y-123259172D02*
X108998333Y-123306791D01*
X108998333Y-123306791D02*
X109236428Y-123306791D01*
X109236428Y-123306791D02*
X109331666Y-123259172D01*
X109331666Y-123259172D02*
X109379285Y-123211552D01*
X188189952Y-121696847D02*
X188189952Y-120696847D01*
X188189952Y-120696847D02*
X187856619Y-121411132D01*
X187856619Y-121411132D02*
X187523286Y-120696847D01*
X187523286Y-120696847D02*
X187523286Y-121696847D01*
X186904238Y-121696847D02*
X186999476Y-121649228D01*
X186999476Y-121649228D02*
X187047095Y-121601608D01*
X187047095Y-121601608D02*
X187094714Y-121506370D01*
X187094714Y-121506370D02*
X187094714Y-121220656D01*
X187094714Y-121220656D02*
X187047095Y-121125418D01*
X187047095Y-121125418D02*
X186999476Y-121077799D01*
X186999476Y-121077799D02*
X186904238Y-121030180D01*
X186904238Y-121030180D02*
X186761381Y-121030180D01*
X186761381Y-121030180D02*
X186666143Y-121077799D01*
X186666143Y-121077799D02*
X186618524Y-121125418D01*
X186618524Y-121125418D02*
X186570905Y-121220656D01*
X186570905Y-121220656D02*
X186570905Y-121506370D01*
X186570905Y-121506370D02*
X186618524Y-121601608D01*
X186618524Y-121601608D02*
X186666143Y-121649228D01*
X186666143Y-121649228D02*
X186761381Y-121696847D01*
X186761381Y-121696847D02*
X186904238Y-121696847D01*
X185999476Y-121696847D02*
X186094714Y-121649228D01*
X186094714Y-121649228D02*
X186142333Y-121553989D01*
X186142333Y-121553989D02*
X186142333Y-120696847D01*
X185237571Y-121649228D02*
X185332809Y-121696847D01*
X185332809Y-121696847D02*
X185523285Y-121696847D01*
X185523285Y-121696847D02*
X185618523Y-121649228D01*
X185618523Y-121649228D02*
X185666142Y-121553989D01*
X185666142Y-121553989D02*
X185666142Y-121173037D01*
X185666142Y-121173037D02*
X185618523Y-121077799D01*
X185618523Y-121077799D02*
X185523285Y-121030180D01*
X185523285Y-121030180D02*
X185332809Y-121030180D01*
X185332809Y-121030180D02*
X185237571Y-121077799D01*
X185237571Y-121077799D02*
X185189952Y-121173037D01*
X185189952Y-121173037D02*
X185189952Y-121268275D01*
X185189952Y-121268275D02*
X185666142Y-121363513D01*
X184856618Y-121696847D02*
X184332809Y-121030180D01*
X184856618Y-121030180D02*
X184332809Y-121696847D01*
X191213761Y-122306791D02*
X190594714Y-122306791D01*
X190594714Y-122306791D02*
X190928047Y-122687743D01*
X190928047Y-122687743D02*
X190785190Y-122687743D01*
X190785190Y-122687743D02*
X190689952Y-122735362D01*
X190689952Y-122735362D02*
X190642333Y-122782981D01*
X190642333Y-122782981D02*
X190594714Y-122878219D01*
X190594714Y-122878219D02*
X190594714Y-123116314D01*
X190594714Y-123116314D02*
X190642333Y-123211552D01*
X190642333Y-123211552D02*
X190689952Y-123259172D01*
X190689952Y-123259172D02*
X190785190Y-123306791D01*
X190785190Y-123306791D02*
X191070904Y-123306791D01*
X191070904Y-123306791D02*
X191166142Y-123259172D01*
X191166142Y-123259172D02*
X191213761Y-123211552D01*
X190118523Y-123306791D02*
X189928047Y-123306791D01*
X189928047Y-123306791D02*
X189832809Y-123259172D01*
X189832809Y-123259172D02*
X189785190Y-123211552D01*
X189785190Y-123211552D02*
X189689952Y-123068695D01*
X189689952Y-123068695D02*
X189642333Y-122878219D01*
X189642333Y-122878219D02*
X189642333Y-122497267D01*
X189642333Y-122497267D02*
X189689952Y-122402029D01*
X189689952Y-122402029D02*
X189737571Y-122354410D01*
X189737571Y-122354410D02*
X189832809Y-122306791D01*
X189832809Y-122306791D02*
X190023285Y-122306791D01*
X190023285Y-122306791D02*
X190118523Y-122354410D01*
X190118523Y-122354410D02*
X190166142Y-122402029D01*
X190166142Y-122402029D02*
X190213761Y-122497267D01*
X190213761Y-122497267D02*
X190213761Y-122735362D01*
X190213761Y-122735362D02*
X190166142Y-122830600D01*
X190166142Y-122830600D02*
X190118523Y-122878219D01*
X190118523Y-122878219D02*
X190023285Y-122925838D01*
X190023285Y-122925838D02*
X189832809Y-122925838D01*
X189832809Y-122925838D02*
X189737571Y-122878219D01*
X189737571Y-122878219D02*
X189689952Y-122830600D01*
X189689952Y-122830600D02*
X189642333Y-122735362D01*
X189213761Y-122925838D02*
X188451857Y-122925838D01*
X187499476Y-122306791D02*
X187975666Y-122306791D01*
X187975666Y-122306791D02*
X188023285Y-122782981D01*
X188023285Y-122782981D02*
X187975666Y-122735362D01*
X187975666Y-122735362D02*
X187880428Y-122687743D01*
X187880428Y-122687743D02*
X187642333Y-122687743D01*
X187642333Y-122687743D02*
X187547095Y-122735362D01*
X187547095Y-122735362D02*
X187499476Y-122782981D01*
X187499476Y-122782981D02*
X187451857Y-122878219D01*
X187451857Y-122878219D02*
X187451857Y-123116314D01*
X187451857Y-123116314D02*
X187499476Y-123211552D01*
X187499476Y-123211552D02*
X187547095Y-123259172D01*
X187547095Y-123259172D02*
X187642333Y-123306791D01*
X187642333Y-123306791D02*
X187880428Y-123306791D01*
X187880428Y-123306791D02*
X187975666Y-123259172D01*
X187975666Y-123259172D02*
X188023285Y-123211552D01*
X187118523Y-122306791D02*
X186499476Y-122306791D01*
X186499476Y-122306791D02*
X186832809Y-122687743D01*
X186832809Y-122687743D02*
X186689952Y-122687743D01*
X186689952Y-122687743D02*
X186594714Y-122735362D01*
X186594714Y-122735362D02*
X186547095Y-122782981D01*
X186547095Y-122782981D02*
X186499476Y-122878219D01*
X186499476Y-122878219D02*
X186499476Y-123116314D01*
X186499476Y-123116314D02*
X186547095Y-123211552D01*
X186547095Y-123211552D02*
X186594714Y-123259172D01*
X186594714Y-123259172D02*
X186689952Y-123306791D01*
X186689952Y-123306791D02*
X186975666Y-123306791D01*
X186975666Y-123306791D02*
X187070904Y-123259172D01*
X187070904Y-123259172D02*
X187118523Y-123211552D01*
X186070904Y-122925838D02*
X185309000Y-122925838D01*
X184880428Y-122402029D02*
X184832809Y-122354410D01*
X184832809Y-122354410D02*
X184737571Y-122306791D01*
X184737571Y-122306791D02*
X184499476Y-122306791D01*
X184499476Y-122306791D02*
X184404238Y-122354410D01*
X184404238Y-122354410D02*
X184356619Y-122402029D01*
X184356619Y-122402029D02*
X184309000Y-122497267D01*
X184309000Y-122497267D02*
X184309000Y-122592505D01*
X184309000Y-122592505D02*
X184356619Y-122735362D01*
X184356619Y-122735362D02*
X184928047Y-123306791D01*
X184928047Y-123306791D02*
X184309000Y-123306791D01*
X183356619Y-123306791D02*
X183928047Y-123306791D01*
X183642333Y-123306791D02*
X183642333Y-122306791D01*
X183642333Y-122306791D02*
X183737571Y-122449648D01*
X183737571Y-122449648D02*
X183832809Y-122544886D01*
X183832809Y-122544886D02*
X183928047Y-122592505D01*
X183023285Y-122306791D02*
X182404238Y-122306791D01*
X182404238Y-122306791D02*
X182737571Y-122687743D01*
X182737571Y-122687743D02*
X182594714Y-122687743D01*
X182594714Y-122687743D02*
X182499476Y-122735362D01*
X182499476Y-122735362D02*
X182451857Y-122782981D01*
X182451857Y-122782981D02*
X182404238Y-122878219D01*
X182404238Y-122878219D02*
X182404238Y-123116314D01*
X182404238Y-123116314D02*
X182451857Y-123211552D01*
X182451857Y-123211552D02*
X182499476Y-123259172D01*
X182499476Y-123259172D02*
X182594714Y-123306791D01*
X182594714Y-123306791D02*
X182880428Y-123306791D01*
X182880428Y-123306791D02*
X182975666Y-123259172D01*
X182975666Y-123259172D02*
X183023285Y-123211552D01*
X181499476Y-122306791D02*
X181975666Y-122306791D01*
X181975666Y-122306791D02*
X182023285Y-122782981D01*
X182023285Y-122782981D02*
X181975666Y-122735362D01*
X181975666Y-122735362D02*
X181880428Y-122687743D01*
X181880428Y-122687743D02*
X181642333Y-122687743D01*
X181642333Y-122687743D02*
X181547095Y-122735362D01*
X181547095Y-122735362D02*
X181499476Y-122782981D01*
X181499476Y-122782981D02*
X181451857Y-122878219D01*
X181451857Y-122878219D02*
X181451857Y-123116314D01*
X181451857Y-123116314D02*
X181499476Y-123211552D01*
X181499476Y-123211552D02*
X181547095Y-123259172D01*
X181547095Y-123259172D02*
X181642333Y-123306791D01*
X181642333Y-123306791D02*
X181880428Y-123306791D01*
X181880428Y-123306791D02*
X181975666Y-123259172D01*
X181975666Y-123259172D02*
X182023285Y-123211552D01*
D11*
X168657142Y-118788328D02*
X168657142Y-117288328D01*
X167799999Y-118788328D02*
X168442856Y-117931185D01*
X167799999Y-117288328D02*
X168657142Y-118145471D01*
X167157142Y-118002614D02*
X166657142Y-118002614D01*
X166442856Y-118788328D02*
X167157142Y-118788328D01*
X167157142Y-118788328D02*
X167157142Y-117288328D01*
X167157142Y-117288328D02*
X166442856Y-117288328D01*
X165514284Y-118074042D02*
X165514284Y-118788328D01*
X166014284Y-117288328D02*
X165514284Y-118074042D01*
X165514284Y-118074042D02*
X165014284Y-117288328D01*
X164514285Y-118788328D02*
X164514285Y-117288328D01*
X164514285Y-117288328D02*
X163942856Y-117288328D01*
X163942856Y-117288328D02*
X163799999Y-117359757D01*
X163799999Y-117359757D02*
X163728570Y-117431185D01*
X163728570Y-117431185D02*
X163657142Y-117574042D01*
X163657142Y-117574042D02*
X163657142Y-117788328D01*
X163657142Y-117788328D02*
X163728570Y-117931185D01*
X163728570Y-117931185D02*
X163799999Y-118002614D01*
X163799999Y-118002614D02*
X163942856Y-118074042D01*
X163942856Y-118074042D02*
X164514285Y-118074042D01*
X163085713Y-118359757D02*
X162371428Y-118359757D01*
X163228570Y-118788328D02*
X162728570Y-117288328D01*
X162728570Y-117288328D02*
X162228570Y-118788328D01*
X161728571Y-118788328D02*
X161728571Y-117288328D01*
X161728571Y-117288328D02*
X161371428Y-117288328D01*
X161371428Y-117288328D02*
X161157142Y-117359757D01*
X161157142Y-117359757D02*
X161014285Y-117502614D01*
X161014285Y-117502614D02*
X160942856Y-117645471D01*
X160942856Y-117645471D02*
X160871428Y-117931185D01*
X160871428Y-117931185D02*
X160871428Y-118145471D01*
X160871428Y-118145471D02*
X160942856Y-118431185D01*
X160942856Y-118431185D02*
X161014285Y-118574042D01*
X161014285Y-118574042D02*
X161157142Y-118716900D01*
X161157142Y-118716900D02*
X161371428Y-118788328D01*
X161371428Y-118788328D02*
X161728571Y-118788328D01*
X187188346Y-67288870D02*
X187688346Y-66574584D01*
X188045489Y-67288870D02*
X188045489Y-65788870D01*
X188045489Y-65788870D02*
X187474060Y-65788870D01*
X187474060Y-65788870D02*
X187331203Y-65860299D01*
X187331203Y-65860299D02*
X187259774Y-65931727D01*
X187259774Y-65931727D02*
X187188346Y-66074584D01*
X187188346Y-66074584D02*
X187188346Y-66288870D01*
X187188346Y-66288870D02*
X187259774Y-66431727D01*
X187259774Y-66431727D02*
X187331203Y-66503156D01*
X187331203Y-66503156D02*
X187474060Y-66574584D01*
X187474060Y-66574584D02*
X188045489Y-66574584D01*
X186545489Y-67288870D02*
X186545489Y-65788870D01*
X186545489Y-65788870D02*
X185974060Y-65788870D01*
X185974060Y-65788870D02*
X185831203Y-65860299D01*
X185831203Y-65860299D02*
X185759774Y-65931727D01*
X185759774Y-65931727D02*
X185688346Y-66074584D01*
X185688346Y-66074584D02*
X185688346Y-66288870D01*
X185688346Y-66288870D02*
X185759774Y-66431727D01*
X185759774Y-66431727D02*
X185831203Y-66503156D01*
X185831203Y-66503156D02*
X185974060Y-66574584D01*
X185974060Y-66574584D02*
X186545489Y-66574584D01*
X185116917Y-65931727D02*
X185045489Y-65860299D01*
X185045489Y-65860299D02*
X184902632Y-65788870D01*
X184902632Y-65788870D02*
X184545489Y-65788870D01*
X184545489Y-65788870D02*
X184402632Y-65860299D01*
X184402632Y-65860299D02*
X184331203Y-65931727D01*
X184331203Y-65931727D02*
X184259774Y-66074584D01*
X184259774Y-66074584D02*
X184259774Y-66217442D01*
X184259774Y-66217442D02*
X184331203Y-66431727D01*
X184331203Y-66431727D02*
X185188346Y-67288870D01*
X185188346Y-67288870D02*
X184259774Y-67288870D01*
X183331203Y-65788870D02*
X183188346Y-65788870D01*
X183188346Y-65788870D02*
X183045489Y-65860299D01*
X183045489Y-65860299D02*
X182974061Y-65931727D01*
X182974061Y-65931727D02*
X182902632Y-66074584D01*
X182902632Y-66074584D02*
X182831203Y-66360299D01*
X182831203Y-66360299D02*
X182831203Y-66717442D01*
X182831203Y-66717442D02*
X182902632Y-67003156D01*
X182902632Y-67003156D02*
X182974061Y-67146013D01*
X182974061Y-67146013D02*
X183045489Y-67217442D01*
X183045489Y-67217442D02*
X183188346Y-67288870D01*
X183188346Y-67288870D02*
X183331203Y-67288870D01*
X183331203Y-67288870D02*
X183474061Y-67217442D01*
X183474061Y-67217442D02*
X183545489Y-67146013D01*
X183545489Y-67146013D02*
X183616918Y-67003156D01*
X183616918Y-67003156D02*
X183688346Y-66717442D01*
X183688346Y-66717442D02*
X183688346Y-66360299D01*
X183688346Y-66360299D02*
X183616918Y-66074584D01*
X183616918Y-66074584D02*
X183545489Y-65931727D01*
X183545489Y-65931727D02*
X183474061Y-65860299D01*
X183474061Y-65860299D02*
X183331203Y-65788870D01*
X181545490Y-66288870D02*
X181545490Y-67288870D01*
X181902632Y-65717442D02*
X182259775Y-66788870D01*
X182259775Y-66788870D02*
X181331204Y-66788870D01*
X180474061Y-65788870D02*
X180331204Y-65788870D01*
X180331204Y-65788870D02*
X180188347Y-65860299D01*
X180188347Y-65860299D02*
X180116919Y-65931727D01*
X180116919Y-65931727D02*
X180045490Y-66074584D01*
X180045490Y-66074584D02*
X179974061Y-66360299D01*
X179974061Y-66360299D02*
X179974061Y-66717442D01*
X179974061Y-66717442D02*
X180045490Y-67003156D01*
X180045490Y-67003156D02*
X180116919Y-67146013D01*
X180116919Y-67146013D02*
X180188347Y-67217442D01*
X180188347Y-67217442D02*
X180331204Y-67288870D01*
X180331204Y-67288870D02*
X180474061Y-67288870D01*
X180474061Y-67288870D02*
X180616919Y-67217442D01*
X180616919Y-67217442D02*
X180688347Y-67146013D01*
X180688347Y-67146013D02*
X180759776Y-67003156D01*
X180759776Y-67003156D02*
X180831204Y-66717442D01*
X180831204Y-66717442D02*
X180831204Y-66360299D01*
X180831204Y-66360299D02*
X180759776Y-66074584D01*
X180759776Y-66074584D02*
X180688347Y-65931727D01*
X180688347Y-65931727D02*
X180616919Y-65860299D01*
X180616919Y-65860299D02*
X180474061Y-65788870D01*
X178188348Y-67288870D02*
X178188348Y-65788870D01*
X178188348Y-65788870D02*
X177616919Y-65788870D01*
X177616919Y-65788870D02*
X177474062Y-65860299D01*
X177474062Y-65860299D02*
X177402633Y-65931727D01*
X177402633Y-65931727D02*
X177331205Y-66074584D01*
X177331205Y-66074584D02*
X177331205Y-66288870D01*
X177331205Y-66288870D02*
X177402633Y-66431727D01*
X177402633Y-66431727D02*
X177474062Y-66503156D01*
X177474062Y-66503156D02*
X177616919Y-66574584D01*
X177616919Y-66574584D02*
X178188348Y-66574584D01*
X176688348Y-67288870D02*
X176688348Y-66288870D01*
X176688348Y-65788870D02*
X176759776Y-65860299D01*
X176759776Y-65860299D02*
X176688348Y-65931727D01*
X176688348Y-65931727D02*
X176616919Y-65860299D01*
X176616919Y-65860299D02*
X176688348Y-65788870D01*
X176688348Y-65788870D02*
X176688348Y-65931727D01*
X175331205Y-67217442D02*
X175474062Y-67288870D01*
X175474062Y-67288870D02*
X175759776Y-67288870D01*
X175759776Y-67288870D02*
X175902633Y-67217442D01*
X175902633Y-67217442D02*
X175974062Y-67146013D01*
X175974062Y-67146013D02*
X176045490Y-67003156D01*
X176045490Y-67003156D02*
X176045490Y-66574584D01*
X176045490Y-66574584D02*
X175974062Y-66431727D01*
X175974062Y-66431727D02*
X175902633Y-66360299D01*
X175902633Y-66360299D02*
X175759776Y-66288870D01*
X175759776Y-66288870D02*
X175474062Y-66288870D01*
X175474062Y-66288870D02*
X175331205Y-66360299D01*
X174474062Y-67288870D02*
X174616919Y-67217442D01*
X174616919Y-67217442D02*
X174688348Y-67146013D01*
X174688348Y-67146013D02*
X174759776Y-67003156D01*
X174759776Y-67003156D02*
X174759776Y-66574584D01*
X174759776Y-66574584D02*
X174688348Y-66431727D01*
X174688348Y-66431727D02*
X174616919Y-66360299D01*
X174616919Y-66360299D02*
X174474062Y-66288870D01*
X174474062Y-66288870D02*
X174259776Y-66288870D01*
X174259776Y-66288870D02*
X174116919Y-66360299D01*
X174116919Y-66360299D02*
X174045491Y-66431727D01*
X174045491Y-66431727D02*
X173974062Y-66574584D01*
X173974062Y-66574584D02*
X173974062Y-67003156D01*
X173974062Y-67003156D02*
X174045491Y-67146013D01*
X174045491Y-67146013D02*
X174116919Y-67217442D01*
X174116919Y-67217442D02*
X174259776Y-67288870D01*
X174259776Y-67288870D02*
X174474062Y-67288870D01*
X172188348Y-67288870D02*
X172188348Y-65788870D01*
X172188348Y-65788870D02*
X171688348Y-66860299D01*
X171688348Y-66860299D02*
X171188348Y-65788870D01*
X171188348Y-65788870D02*
X171188348Y-67288870D01*
X170259776Y-67288870D02*
X170402633Y-67217442D01*
X170402633Y-67217442D02*
X170474062Y-67146013D01*
X170474062Y-67146013D02*
X170545490Y-67003156D01*
X170545490Y-67003156D02*
X170545490Y-66574584D01*
X170545490Y-66574584D02*
X170474062Y-66431727D01*
X170474062Y-66431727D02*
X170402633Y-66360299D01*
X170402633Y-66360299D02*
X170259776Y-66288870D01*
X170259776Y-66288870D02*
X170045490Y-66288870D01*
X170045490Y-66288870D02*
X169902633Y-66360299D01*
X169902633Y-66360299D02*
X169831205Y-66431727D01*
X169831205Y-66431727D02*
X169759776Y-66574584D01*
X169759776Y-66574584D02*
X169759776Y-67003156D01*
X169759776Y-67003156D02*
X169831205Y-67146013D01*
X169831205Y-67146013D02*
X169902633Y-67217442D01*
X169902633Y-67217442D02*
X170045490Y-67288870D01*
X170045490Y-67288870D02*
X170259776Y-67288870D01*
X168474062Y-67288870D02*
X168474062Y-65788870D01*
X168474062Y-67217442D02*
X168616919Y-67288870D01*
X168616919Y-67288870D02*
X168902633Y-67288870D01*
X168902633Y-67288870D02*
X169045490Y-67217442D01*
X169045490Y-67217442D02*
X169116919Y-67146013D01*
X169116919Y-67146013D02*
X169188347Y-67003156D01*
X169188347Y-67003156D02*
X169188347Y-66574584D01*
X169188347Y-66574584D02*
X169116919Y-66431727D01*
X169116919Y-66431727D02*
X169045490Y-66360299D01*
X169045490Y-66360299D02*
X168902633Y-66288870D01*
X168902633Y-66288870D02*
X168616919Y-66288870D01*
X168616919Y-66288870D02*
X168474062Y-66360299D01*
X188045489Y-69703786D02*
X188045489Y-68203786D01*
X188045489Y-68775215D02*
X187902632Y-68703786D01*
X187902632Y-68703786D02*
X187616917Y-68703786D01*
X187616917Y-68703786D02*
X187474060Y-68775215D01*
X187474060Y-68775215D02*
X187402632Y-68846643D01*
X187402632Y-68846643D02*
X187331203Y-68989500D01*
X187331203Y-68989500D02*
X187331203Y-69418072D01*
X187331203Y-69418072D02*
X187402632Y-69560929D01*
X187402632Y-69560929D02*
X187474060Y-69632358D01*
X187474060Y-69632358D02*
X187616917Y-69703786D01*
X187616917Y-69703786D02*
X187902632Y-69703786D01*
X187902632Y-69703786D02*
X188045489Y-69632358D01*
X186831203Y-68703786D02*
X186474060Y-69703786D01*
X186116917Y-68703786D02*
X186474060Y-69703786D01*
X186474060Y-69703786D02*
X186616917Y-70060929D01*
X186616917Y-70060929D02*
X186688346Y-70132358D01*
X186688346Y-70132358D02*
X186831203Y-70203786D01*
X184188346Y-69703786D02*
X184331203Y-69632358D01*
X184331203Y-69632358D02*
X184402632Y-69560929D01*
X184402632Y-69560929D02*
X184474060Y-69418072D01*
X184474060Y-69418072D02*
X184474060Y-68989500D01*
X184474060Y-68989500D02*
X184402632Y-68846643D01*
X184402632Y-68846643D02*
X184331203Y-68775215D01*
X184331203Y-68775215D02*
X184188346Y-68703786D01*
X184188346Y-68703786D02*
X183974060Y-68703786D01*
X183974060Y-68703786D02*
X183831203Y-68775215D01*
X183831203Y-68775215D02*
X183759775Y-68846643D01*
X183759775Y-68846643D02*
X183688346Y-68989500D01*
X183688346Y-68989500D02*
X183688346Y-69418072D01*
X183688346Y-69418072D02*
X183759775Y-69560929D01*
X183759775Y-69560929D02*
X183831203Y-69632358D01*
X183831203Y-69632358D02*
X183974060Y-69703786D01*
X183974060Y-69703786D02*
X184188346Y-69703786D01*
X183045489Y-68703786D02*
X183045489Y-69703786D01*
X183045489Y-68846643D02*
X182974060Y-68775215D01*
X182974060Y-68775215D02*
X182831203Y-68703786D01*
X182831203Y-68703786D02*
X182616917Y-68703786D01*
X182616917Y-68703786D02*
X182474060Y-68775215D01*
X182474060Y-68775215D02*
X182402632Y-68918072D01*
X182402632Y-68918072D02*
X182402632Y-69703786D01*
X181116917Y-69632358D02*
X181259774Y-69703786D01*
X181259774Y-69703786D02*
X181545489Y-69703786D01*
X181545489Y-69703786D02*
X181688346Y-69632358D01*
X181688346Y-69632358D02*
X181759774Y-69489500D01*
X181759774Y-69489500D02*
X181759774Y-68918072D01*
X181759774Y-68918072D02*
X181688346Y-68775215D01*
X181688346Y-68775215D02*
X181545489Y-68703786D01*
X181545489Y-68703786D02*
X181259774Y-68703786D01*
X181259774Y-68703786D02*
X181116917Y-68775215D01*
X181116917Y-68775215D02*
X181045489Y-68918072D01*
X181045489Y-68918072D02*
X181045489Y-69060929D01*
X181045489Y-69060929D02*
X181759774Y-69203786D01*
X180188346Y-69703786D02*
X180331203Y-69632358D01*
X180331203Y-69632358D02*
X180402632Y-69489500D01*
X180402632Y-69489500D02*
X180402632Y-68203786D01*
X179045489Y-69632358D02*
X179188346Y-69703786D01*
X179188346Y-69703786D02*
X179474061Y-69703786D01*
X179474061Y-69703786D02*
X179616918Y-69632358D01*
X179616918Y-69632358D02*
X179688346Y-69489500D01*
X179688346Y-69489500D02*
X179688346Y-68918072D01*
X179688346Y-68918072D02*
X179616918Y-68775215D01*
X179616918Y-68775215D02*
X179474061Y-68703786D01*
X179474061Y-68703786D02*
X179188346Y-68703786D01*
X179188346Y-68703786D02*
X179045489Y-68775215D01*
X179045489Y-68775215D02*
X178974061Y-68918072D01*
X178974061Y-68918072D02*
X178974061Y-69060929D01*
X178974061Y-69060929D02*
X179688346Y-69203786D01*
X177688347Y-69703786D02*
X177688347Y-68918072D01*
X177688347Y-68918072D02*
X177759775Y-68775215D01*
X177759775Y-68775215D02*
X177902632Y-68703786D01*
X177902632Y-68703786D02*
X178188347Y-68703786D01*
X178188347Y-68703786D02*
X178331204Y-68775215D01*
X177688347Y-69632358D02*
X177831204Y-69703786D01*
X177831204Y-69703786D02*
X178188347Y-69703786D01*
X178188347Y-69703786D02*
X178331204Y-69632358D01*
X178331204Y-69632358D02*
X178402632Y-69489500D01*
X178402632Y-69489500D02*
X178402632Y-69346643D01*
X178402632Y-69346643D02*
X178331204Y-69203786D01*
X178331204Y-69203786D02*
X178188347Y-69132358D01*
X178188347Y-69132358D02*
X177831204Y-69132358D01*
X177831204Y-69132358D02*
X177688347Y-69060929D01*
X177188346Y-68703786D02*
X176616918Y-68703786D01*
X176974061Y-69703786D02*
X176974061Y-68418072D01*
X176974061Y-68418072D02*
X176902632Y-68275215D01*
X176902632Y-68275215D02*
X176759775Y-68203786D01*
X176759775Y-68203786D02*
X176616918Y-68203786D01*
X176331203Y-68703786D02*
X175759775Y-68703786D01*
X176116918Y-68203786D02*
X176116918Y-69489500D01*
X176116918Y-69489500D02*
X176045489Y-69632358D01*
X176045489Y-69632358D02*
X175902632Y-69703786D01*
X175902632Y-69703786D02*
X175759775Y-69703786D01*
X174688346Y-69632358D02*
X174831203Y-69703786D01*
X174831203Y-69703786D02*
X175116918Y-69703786D01*
X175116918Y-69703786D02*
X175259775Y-69632358D01*
X175259775Y-69632358D02*
X175331203Y-69489500D01*
X175331203Y-69489500D02*
X175331203Y-68918072D01*
X175331203Y-68918072D02*
X175259775Y-68775215D01*
X175259775Y-68775215D02*
X175116918Y-68703786D01*
X175116918Y-68703786D02*
X174831203Y-68703786D01*
X174831203Y-68703786D02*
X174688346Y-68775215D01*
X174688346Y-68775215D02*
X174616918Y-68918072D01*
X174616918Y-68918072D02*
X174616918Y-69060929D01*
X174616918Y-69060929D02*
X175331203Y-69203786D01*
X173331204Y-69703786D02*
X173331204Y-68918072D01*
X173331204Y-68918072D02*
X173402632Y-68775215D01*
X173402632Y-68775215D02*
X173545489Y-68703786D01*
X173545489Y-68703786D02*
X173831204Y-68703786D01*
X173831204Y-68703786D02*
X173974061Y-68775215D01*
X173331204Y-69632358D02*
X173474061Y-69703786D01*
X173474061Y-69703786D02*
X173831204Y-69703786D01*
X173831204Y-69703786D02*
X173974061Y-69632358D01*
X173974061Y-69632358D02*
X174045489Y-69489500D01*
X174045489Y-69489500D02*
X174045489Y-69346643D01*
X174045489Y-69346643D02*
X173974061Y-69203786D01*
X173974061Y-69203786D02*
X173831204Y-69132358D01*
X173831204Y-69132358D02*
X173474061Y-69132358D01*
X173474061Y-69132358D02*
X173331204Y-69060929D01*
X171045489Y-70275215D02*
X171116918Y-70203786D01*
X171116918Y-70203786D02*
X171259775Y-69989500D01*
X171259775Y-69989500D02*
X171331204Y-69846643D01*
X171331204Y-69846643D02*
X171402632Y-69632358D01*
X171402632Y-69632358D02*
X171474061Y-69275215D01*
X171474061Y-69275215D02*
X171474061Y-68989500D01*
X171474061Y-68989500D02*
X171402632Y-68632358D01*
X171402632Y-68632358D02*
X171331204Y-68418072D01*
X171331204Y-68418072D02*
X171259775Y-68275215D01*
X171259775Y-68275215D02*
X171116918Y-68060929D01*
X171116918Y-68060929D02*
X171045489Y-67989500D01*
X169616918Y-69703786D02*
X170116918Y-68989500D01*
X170474061Y-69703786D02*
X170474061Y-68203786D01*
X170474061Y-68203786D02*
X169902632Y-68203786D01*
X169902632Y-68203786D02*
X169759775Y-68275215D01*
X169759775Y-68275215D02*
X169688346Y-68346643D01*
X169688346Y-68346643D02*
X169616918Y-68489500D01*
X169616918Y-68489500D02*
X169616918Y-68703786D01*
X169616918Y-68703786D02*
X169688346Y-68846643D01*
X169688346Y-68846643D02*
X169759775Y-68918072D01*
X169759775Y-68918072D02*
X169902632Y-68989500D01*
X169902632Y-68989500D02*
X170474061Y-68989500D01*
X168402632Y-69632358D02*
X168545489Y-69703786D01*
X168545489Y-69703786D02*
X168831204Y-69703786D01*
X168831204Y-69703786D02*
X168974061Y-69632358D01*
X168974061Y-69632358D02*
X169045489Y-69489500D01*
X169045489Y-69489500D02*
X169045489Y-68918072D01*
X169045489Y-68918072D02*
X168974061Y-68775215D01*
X168974061Y-68775215D02*
X168831204Y-68703786D01*
X168831204Y-68703786D02*
X168545489Y-68703786D01*
X168545489Y-68703786D02*
X168402632Y-68775215D01*
X168402632Y-68775215D02*
X168331204Y-68918072D01*
X168331204Y-68918072D02*
X168331204Y-69060929D01*
X168331204Y-69060929D02*
X169045489Y-69203786D01*
X167831204Y-68703786D02*
X167474061Y-69703786D01*
X167474061Y-69703786D02*
X167116918Y-68703786D01*
X164616918Y-69703786D02*
X165474061Y-69703786D01*
X165045490Y-69703786D02*
X165045490Y-68203786D01*
X165045490Y-68203786D02*
X165188347Y-68418072D01*
X165188347Y-68418072D02*
X165331204Y-68560929D01*
X165331204Y-68560929D02*
X165474061Y-68632358D01*
X164116919Y-70275215D02*
X164045490Y-70203786D01*
X164045490Y-70203786D02*
X163902633Y-69989500D01*
X163902633Y-69989500D02*
X163831205Y-69846643D01*
X163831205Y-69846643D02*
X163759776Y-69632358D01*
X163759776Y-69632358D02*
X163688347Y-69275215D01*
X163688347Y-69275215D02*
X163688347Y-68989500D01*
X163688347Y-68989500D02*
X163759776Y-68632358D01*
X163759776Y-68632358D02*
X163831205Y-68418072D01*
X163831205Y-68418072D02*
X163902633Y-68275215D01*
X163902633Y-68275215D02*
X164045490Y-68060929D01*
X164045490Y-68060929D02*
X164116919Y-67989500D01*
D10*
X110332152Y-111862952D02*
X111332152Y-111862952D01*
X111332152Y-111862952D02*
X110617867Y-111529619D01*
X110617867Y-111529619D02*
X111332152Y-111196286D01*
X111332152Y-111196286D02*
X110332152Y-111196286D01*
X110332152Y-110577238D02*
X110379772Y-110672476D01*
X110379772Y-110672476D02*
X110427391Y-110720095D01*
X110427391Y-110720095D02*
X110522629Y-110767714D01*
X110522629Y-110767714D02*
X110808343Y-110767714D01*
X110808343Y-110767714D02*
X110903581Y-110720095D01*
X110903581Y-110720095D02*
X110951200Y-110672476D01*
X110951200Y-110672476D02*
X110998819Y-110577238D01*
X110998819Y-110577238D02*
X110998819Y-110434381D01*
X110998819Y-110434381D02*
X110951200Y-110339143D01*
X110951200Y-110339143D02*
X110903581Y-110291524D01*
X110903581Y-110291524D02*
X110808343Y-110243905D01*
X110808343Y-110243905D02*
X110522629Y-110243905D01*
X110522629Y-110243905D02*
X110427391Y-110291524D01*
X110427391Y-110291524D02*
X110379772Y-110339143D01*
X110379772Y-110339143D02*
X110332152Y-110434381D01*
X110332152Y-110434381D02*
X110332152Y-110577238D01*
X110332152Y-109672476D02*
X110379772Y-109767714D01*
X110379772Y-109767714D02*
X110475010Y-109815333D01*
X110475010Y-109815333D02*
X111332152Y-109815333D01*
X110379772Y-108910571D02*
X110332152Y-109005809D01*
X110332152Y-109005809D02*
X110332152Y-109196285D01*
X110332152Y-109196285D02*
X110379772Y-109291523D01*
X110379772Y-109291523D02*
X110475010Y-109339142D01*
X110475010Y-109339142D02*
X110855962Y-109339142D01*
X110855962Y-109339142D02*
X110951200Y-109291523D01*
X110951200Y-109291523D02*
X110998819Y-109196285D01*
X110998819Y-109196285D02*
X110998819Y-109005809D01*
X110998819Y-109005809D02*
X110951200Y-108910571D01*
X110951200Y-108910571D02*
X110855962Y-108862952D01*
X110855962Y-108862952D02*
X110760724Y-108862952D01*
X110760724Y-108862952D02*
X110665486Y-109339142D01*
X110332152Y-108529618D02*
X110998819Y-108005809D01*
X110998819Y-108529618D02*
X110332152Y-108005809D01*
X109722208Y-114886761D02*
X109722208Y-114267714D01*
X109722208Y-114267714D02*
X109341256Y-114601047D01*
X109341256Y-114601047D02*
X109341256Y-114458190D01*
X109341256Y-114458190D02*
X109293637Y-114362952D01*
X109293637Y-114362952D02*
X109246018Y-114315333D01*
X109246018Y-114315333D02*
X109150780Y-114267714D01*
X109150780Y-114267714D02*
X108912685Y-114267714D01*
X108912685Y-114267714D02*
X108817447Y-114315333D01*
X108817447Y-114315333D02*
X108769828Y-114362952D01*
X108769828Y-114362952D02*
X108722208Y-114458190D01*
X108722208Y-114458190D02*
X108722208Y-114743904D01*
X108722208Y-114743904D02*
X108769828Y-114839142D01*
X108769828Y-114839142D02*
X108817447Y-114886761D01*
X108722208Y-113791523D02*
X108722208Y-113601047D01*
X108722208Y-113601047D02*
X108769828Y-113505809D01*
X108769828Y-113505809D02*
X108817447Y-113458190D01*
X108817447Y-113458190D02*
X108960304Y-113362952D01*
X108960304Y-113362952D02*
X109150780Y-113315333D01*
X109150780Y-113315333D02*
X109531732Y-113315333D01*
X109531732Y-113315333D02*
X109626970Y-113362952D01*
X109626970Y-113362952D02*
X109674589Y-113410571D01*
X109674589Y-113410571D02*
X109722208Y-113505809D01*
X109722208Y-113505809D02*
X109722208Y-113696285D01*
X109722208Y-113696285D02*
X109674589Y-113791523D01*
X109674589Y-113791523D02*
X109626970Y-113839142D01*
X109626970Y-113839142D02*
X109531732Y-113886761D01*
X109531732Y-113886761D02*
X109293637Y-113886761D01*
X109293637Y-113886761D02*
X109198399Y-113839142D01*
X109198399Y-113839142D02*
X109150780Y-113791523D01*
X109150780Y-113791523D02*
X109103161Y-113696285D01*
X109103161Y-113696285D02*
X109103161Y-113505809D01*
X109103161Y-113505809D02*
X109150780Y-113410571D01*
X109150780Y-113410571D02*
X109198399Y-113362952D01*
X109198399Y-113362952D02*
X109293637Y-113315333D01*
X109103161Y-112886761D02*
X109103161Y-112124857D01*
X109722208Y-111172476D02*
X109722208Y-111648666D01*
X109722208Y-111648666D02*
X109246018Y-111696285D01*
X109246018Y-111696285D02*
X109293637Y-111648666D01*
X109293637Y-111648666D02*
X109341256Y-111553428D01*
X109341256Y-111553428D02*
X109341256Y-111315333D01*
X109341256Y-111315333D02*
X109293637Y-111220095D01*
X109293637Y-111220095D02*
X109246018Y-111172476D01*
X109246018Y-111172476D02*
X109150780Y-111124857D01*
X109150780Y-111124857D02*
X108912685Y-111124857D01*
X108912685Y-111124857D02*
X108817447Y-111172476D01*
X108817447Y-111172476D02*
X108769828Y-111220095D01*
X108769828Y-111220095D02*
X108722208Y-111315333D01*
X108722208Y-111315333D02*
X108722208Y-111553428D01*
X108722208Y-111553428D02*
X108769828Y-111648666D01*
X108769828Y-111648666D02*
X108817447Y-111696285D01*
X109722208Y-110791523D02*
X109722208Y-110172476D01*
X109722208Y-110172476D02*
X109341256Y-110505809D01*
X109341256Y-110505809D02*
X109341256Y-110362952D01*
X109341256Y-110362952D02*
X109293637Y-110267714D01*
X109293637Y-110267714D02*
X109246018Y-110220095D01*
X109246018Y-110220095D02*
X109150780Y-110172476D01*
X109150780Y-110172476D02*
X108912685Y-110172476D01*
X108912685Y-110172476D02*
X108817447Y-110220095D01*
X108817447Y-110220095D02*
X108769828Y-110267714D01*
X108769828Y-110267714D02*
X108722208Y-110362952D01*
X108722208Y-110362952D02*
X108722208Y-110648666D01*
X108722208Y-110648666D02*
X108769828Y-110743904D01*
X108769828Y-110743904D02*
X108817447Y-110791523D01*
X109103161Y-109743904D02*
X109103161Y-108982000D01*
X109626970Y-108553428D02*
X109674589Y-108505809D01*
X109674589Y-108505809D02*
X109722208Y-108410571D01*
X109722208Y-108410571D02*
X109722208Y-108172476D01*
X109722208Y-108172476D02*
X109674589Y-108077238D01*
X109674589Y-108077238D02*
X109626970Y-108029619D01*
X109626970Y-108029619D02*
X109531732Y-107982000D01*
X109531732Y-107982000D02*
X109436494Y-107982000D01*
X109436494Y-107982000D02*
X109293637Y-108029619D01*
X109293637Y-108029619D02*
X108722208Y-108601047D01*
X108722208Y-108601047D02*
X108722208Y-107982000D01*
X108722208Y-107029619D02*
X108722208Y-107601047D01*
X108722208Y-107315333D02*
X109722208Y-107315333D01*
X109722208Y-107315333D02*
X109579351Y-107410571D01*
X109579351Y-107410571D02*
X109484113Y-107505809D01*
X109484113Y-107505809D02*
X109436494Y-107601047D01*
X109722208Y-106696285D02*
X109722208Y-106077238D01*
X109722208Y-106077238D02*
X109341256Y-106410571D01*
X109341256Y-106410571D02*
X109341256Y-106267714D01*
X109341256Y-106267714D02*
X109293637Y-106172476D01*
X109293637Y-106172476D02*
X109246018Y-106124857D01*
X109246018Y-106124857D02*
X109150780Y-106077238D01*
X109150780Y-106077238D02*
X108912685Y-106077238D01*
X108912685Y-106077238D02*
X108817447Y-106124857D01*
X108817447Y-106124857D02*
X108769828Y-106172476D01*
X108769828Y-106172476D02*
X108722208Y-106267714D01*
X108722208Y-106267714D02*
X108722208Y-106553428D01*
X108722208Y-106553428D02*
X108769828Y-106648666D01*
X108769828Y-106648666D02*
X108817447Y-106696285D01*
X109722208Y-105172476D02*
X109722208Y-105648666D01*
X109722208Y-105648666D02*
X109246018Y-105696285D01*
X109246018Y-105696285D02*
X109293637Y-105648666D01*
X109293637Y-105648666D02*
X109341256Y-105553428D01*
X109341256Y-105553428D02*
X109341256Y-105315333D01*
X109341256Y-105315333D02*
X109293637Y-105220095D01*
X109293637Y-105220095D02*
X109246018Y-105172476D01*
X109246018Y-105172476D02*
X109150780Y-105124857D01*
X109150780Y-105124857D02*
X108912685Y-105124857D01*
X108912685Y-105124857D02*
X108817447Y-105172476D01*
X108817447Y-105172476D02*
X108769828Y-105220095D01*
X108769828Y-105220095D02*
X108722208Y-105315333D01*
X108722208Y-105315333D02*
X108722208Y-105553428D01*
X108722208Y-105553428D02*
X108769828Y-105648666D01*
X108769828Y-105648666D02*
X108817447Y-105696285D01*
X124745475Y-123390819D02*
X124745475Y-122390819D01*
X124174047Y-123390819D02*
X124602618Y-122819390D01*
X124174047Y-122390819D02*
X124745475Y-122962247D01*
X123412142Y-122867009D02*
X123269285Y-122914628D01*
X123269285Y-122914628D02*
X123221666Y-122962247D01*
X123221666Y-122962247D02*
X123174047Y-123057485D01*
X123174047Y-123057485D02*
X123174047Y-123200342D01*
X123174047Y-123200342D02*
X123221666Y-123295580D01*
X123221666Y-123295580D02*
X123269285Y-123343200D01*
X123269285Y-123343200D02*
X123364523Y-123390819D01*
X123364523Y-123390819D02*
X123745475Y-123390819D01*
X123745475Y-123390819D02*
X123745475Y-122390819D01*
X123745475Y-122390819D02*
X123412142Y-122390819D01*
X123412142Y-122390819D02*
X123316904Y-122438438D01*
X123316904Y-122438438D02*
X123269285Y-122486057D01*
X123269285Y-122486057D02*
X123221666Y-122581295D01*
X123221666Y-122581295D02*
X123221666Y-122676533D01*
X123221666Y-122676533D02*
X123269285Y-122771771D01*
X123269285Y-122771771D02*
X123316904Y-122819390D01*
X123316904Y-122819390D02*
X123412142Y-122867009D01*
X123412142Y-122867009D02*
X123745475Y-122867009D01*
X122316904Y-122390819D02*
X122507380Y-122390819D01*
X122507380Y-122390819D02*
X122602618Y-122438438D01*
X122602618Y-122438438D02*
X122650237Y-122486057D01*
X122650237Y-122486057D02*
X122745475Y-122628914D01*
X122745475Y-122628914D02*
X122793094Y-122819390D01*
X122793094Y-122819390D02*
X122793094Y-123200342D01*
X122793094Y-123200342D02*
X122745475Y-123295580D01*
X122745475Y-123295580D02*
X122697856Y-123343200D01*
X122697856Y-123343200D02*
X122602618Y-123390819D01*
X122602618Y-123390819D02*
X122412142Y-123390819D01*
X122412142Y-123390819D02*
X122316904Y-123343200D01*
X122316904Y-123343200D02*
X122269285Y-123295580D01*
X122269285Y-123295580D02*
X122221666Y-123200342D01*
X122221666Y-123200342D02*
X122221666Y-122962247D01*
X122221666Y-122962247D02*
X122269285Y-122867009D01*
X122269285Y-122867009D02*
X122316904Y-122819390D01*
X122316904Y-122819390D02*
X122412142Y-122771771D01*
X122412142Y-122771771D02*
X122602618Y-122771771D01*
X122602618Y-122771771D02*
X122697856Y-122819390D01*
X122697856Y-122819390D02*
X122745475Y-122867009D01*
X122745475Y-122867009D02*
X122793094Y-122962247D01*
X121602618Y-122390819D02*
X121507380Y-122390819D01*
X121507380Y-122390819D02*
X121412142Y-122438438D01*
X121412142Y-122438438D02*
X121364523Y-122486057D01*
X121364523Y-122486057D02*
X121316904Y-122581295D01*
X121316904Y-122581295D02*
X121269285Y-122771771D01*
X121269285Y-122771771D02*
X121269285Y-123009866D01*
X121269285Y-123009866D02*
X121316904Y-123200342D01*
X121316904Y-123200342D02*
X121364523Y-123295580D01*
X121364523Y-123295580D02*
X121412142Y-123343200D01*
X121412142Y-123343200D02*
X121507380Y-123390819D01*
X121507380Y-123390819D02*
X121602618Y-123390819D01*
X121602618Y-123390819D02*
X121697856Y-123343200D01*
X121697856Y-123343200D02*
X121745475Y-123295580D01*
X121745475Y-123295580D02*
X121793094Y-123200342D01*
X121793094Y-123200342D02*
X121840713Y-123009866D01*
X121840713Y-123009866D02*
X121840713Y-122771771D01*
X121840713Y-122771771D02*
X121793094Y-122581295D01*
X121793094Y-122581295D02*
X121745475Y-122486057D01*
X121745475Y-122486057D02*
X121697856Y-122438438D01*
X121697856Y-122438438D02*
X121602618Y-122390819D01*
X120650237Y-122390819D02*
X120554999Y-122390819D01*
X120554999Y-122390819D02*
X120459761Y-122438438D01*
X120459761Y-122438438D02*
X120412142Y-122486057D01*
X120412142Y-122486057D02*
X120364523Y-122581295D01*
X120364523Y-122581295D02*
X120316904Y-122771771D01*
X120316904Y-122771771D02*
X120316904Y-123009866D01*
X120316904Y-123009866D02*
X120364523Y-123200342D01*
X120364523Y-123200342D02*
X120412142Y-123295580D01*
X120412142Y-123295580D02*
X120459761Y-123343200D01*
X120459761Y-123343200D02*
X120554999Y-123390819D01*
X120554999Y-123390819D02*
X120650237Y-123390819D01*
X120650237Y-123390819D02*
X120745475Y-123343200D01*
X120745475Y-123343200D02*
X120793094Y-123295580D01*
X120793094Y-123295580D02*
X120840713Y-123200342D01*
X120840713Y-123200342D02*
X120888332Y-123009866D01*
X120888332Y-123009866D02*
X120888332Y-122771771D01*
X120888332Y-122771771D02*
X120840713Y-122581295D01*
X120840713Y-122581295D02*
X120793094Y-122486057D01*
X120793094Y-122486057D02*
X120745475Y-122438438D01*
X120745475Y-122438438D02*
X120650237Y-122390819D01*
X196311152Y-64364952D02*
X197311152Y-64364952D01*
X197311152Y-64364952D02*
X196596867Y-64031619D01*
X196596867Y-64031619D02*
X197311152Y-63698286D01*
X197311152Y-63698286D02*
X196311152Y-63698286D01*
X196311152Y-63079238D02*
X196358772Y-63174476D01*
X196358772Y-63174476D02*
X196406391Y-63222095D01*
X196406391Y-63222095D02*
X196501629Y-63269714D01*
X196501629Y-63269714D02*
X196787343Y-63269714D01*
X196787343Y-63269714D02*
X196882581Y-63222095D01*
X196882581Y-63222095D02*
X196930200Y-63174476D01*
X196930200Y-63174476D02*
X196977819Y-63079238D01*
X196977819Y-63079238D02*
X196977819Y-62936381D01*
X196977819Y-62936381D02*
X196930200Y-62841143D01*
X196930200Y-62841143D02*
X196882581Y-62793524D01*
X196882581Y-62793524D02*
X196787343Y-62745905D01*
X196787343Y-62745905D02*
X196501629Y-62745905D01*
X196501629Y-62745905D02*
X196406391Y-62793524D01*
X196406391Y-62793524D02*
X196358772Y-62841143D01*
X196358772Y-62841143D02*
X196311152Y-62936381D01*
X196311152Y-62936381D02*
X196311152Y-63079238D01*
X196311152Y-62174476D02*
X196358772Y-62269714D01*
X196358772Y-62269714D02*
X196454010Y-62317333D01*
X196454010Y-62317333D02*
X197311152Y-62317333D01*
X196358772Y-61412571D02*
X196311152Y-61507809D01*
X196311152Y-61507809D02*
X196311152Y-61698285D01*
X196311152Y-61698285D02*
X196358772Y-61793523D01*
X196358772Y-61793523D02*
X196454010Y-61841142D01*
X196454010Y-61841142D02*
X196834962Y-61841142D01*
X196834962Y-61841142D02*
X196930200Y-61793523D01*
X196930200Y-61793523D02*
X196977819Y-61698285D01*
X196977819Y-61698285D02*
X196977819Y-61507809D01*
X196977819Y-61507809D02*
X196930200Y-61412571D01*
X196930200Y-61412571D02*
X196834962Y-61364952D01*
X196834962Y-61364952D02*
X196739724Y-61364952D01*
X196739724Y-61364952D02*
X196644486Y-61841142D01*
X196311152Y-61031618D02*
X196977819Y-60507809D01*
X196977819Y-61031618D02*
X196311152Y-60507809D01*
X195701208Y-67388761D02*
X195701208Y-66769714D01*
X195701208Y-66769714D02*
X195320256Y-67103047D01*
X195320256Y-67103047D02*
X195320256Y-66960190D01*
X195320256Y-66960190D02*
X195272637Y-66864952D01*
X195272637Y-66864952D02*
X195225018Y-66817333D01*
X195225018Y-66817333D02*
X195129780Y-66769714D01*
X195129780Y-66769714D02*
X194891685Y-66769714D01*
X194891685Y-66769714D02*
X194796447Y-66817333D01*
X194796447Y-66817333D02*
X194748828Y-66864952D01*
X194748828Y-66864952D02*
X194701208Y-66960190D01*
X194701208Y-66960190D02*
X194701208Y-67245904D01*
X194701208Y-67245904D02*
X194748828Y-67341142D01*
X194748828Y-67341142D02*
X194796447Y-67388761D01*
X194701208Y-66293523D02*
X194701208Y-66103047D01*
X194701208Y-66103047D02*
X194748828Y-66007809D01*
X194748828Y-66007809D02*
X194796447Y-65960190D01*
X194796447Y-65960190D02*
X194939304Y-65864952D01*
X194939304Y-65864952D02*
X195129780Y-65817333D01*
X195129780Y-65817333D02*
X195510732Y-65817333D01*
X195510732Y-65817333D02*
X195605970Y-65864952D01*
X195605970Y-65864952D02*
X195653589Y-65912571D01*
X195653589Y-65912571D02*
X195701208Y-66007809D01*
X195701208Y-66007809D02*
X195701208Y-66198285D01*
X195701208Y-66198285D02*
X195653589Y-66293523D01*
X195653589Y-66293523D02*
X195605970Y-66341142D01*
X195605970Y-66341142D02*
X195510732Y-66388761D01*
X195510732Y-66388761D02*
X195272637Y-66388761D01*
X195272637Y-66388761D02*
X195177399Y-66341142D01*
X195177399Y-66341142D02*
X195129780Y-66293523D01*
X195129780Y-66293523D02*
X195082161Y-66198285D01*
X195082161Y-66198285D02*
X195082161Y-66007809D01*
X195082161Y-66007809D02*
X195129780Y-65912571D01*
X195129780Y-65912571D02*
X195177399Y-65864952D01*
X195177399Y-65864952D02*
X195272637Y-65817333D01*
X195082161Y-65388761D02*
X195082161Y-64626857D01*
X195701208Y-63674476D02*
X195701208Y-64150666D01*
X195701208Y-64150666D02*
X195225018Y-64198285D01*
X195225018Y-64198285D02*
X195272637Y-64150666D01*
X195272637Y-64150666D02*
X195320256Y-64055428D01*
X195320256Y-64055428D02*
X195320256Y-63817333D01*
X195320256Y-63817333D02*
X195272637Y-63722095D01*
X195272637Y-63722095D02*
X195225018Y-63674476D01*
X195225018Y-63674476D02*
X195129780Y-63626857D01*
X195129780Y-63626857D02*
X194891685Y-63626857D01*
X194891685Y-63626857D02*
X194796447Y-63674476D01*
X194796447Y-63674476D02*
X194748828Y-63722095D01*
X194748828Y-63722095D02*
X194701208Y-63817333D01*
X194701208Y-63817333D02*
X194701208Y-64055428D01*
X194701208Y-64055428D02*
X194748828Y-64150666D01*
X194748828Y-64150666D02*
X194796447Y-64198285D01*
X195701208Y-63293523D02*
X195701208Y-62674476D01*
X195701208Y-62674476D02*
X195320256Y-63007809D01*
X195320256Y-63007809D02*
X195320256Y-62864952D01*
X195320256Y-62864952D02*
X195272637Y-62769714D01*
X195272637Y-62769714D02*
X195225018Y-62722095D01*
X195225018Y-62722095D02*
X195129780Y-62674476D01*
X195129780Y-62674476D02*
X194891685Y-62674476D01*
X194891685Y-62674476D02*
X194796447Y-62722095D01*
X194796447Y-62722095D02*
X194748828Y-62769714D01*
X194748828Y-62769714D02*
X194701208Y-62864952D01*
X194701208Y-62864952D02*
X194701208Y-63150666D01*
X194701208Y-63150666D02*
X194748828Y-63245904D01*
X194748828Y-63245904D02*
X194796447Y-63293523D01*
X195082161Y-62245904D02*
X195082161Y-61484000D01*
X195605970Y-61055428D02*
X195653589Y-61007809D01*
X195653589Y-61007809D02*
X195701208Y-60912571D01*
X195701208Y-60912571D02*
X195701208Y-60674476D01*
X195701208Y-60674476D02*
X195653589Y-60579238D01*
X195653589Y-60579238D02*
X195605970Y-60531619D01*
X195605970Y-60531619D02*
X195510732Y-60484000D01*
X195510732Y-60484000D02*
X195415494Y-60484000D01*
X195415494Y-60484000D02*
X195272637Y-60531619D01*
X195272637Y-60531619D02*
X194701208Y-61103047D01*
X194701208Y-61103047D02*
X194701208Y-60484000D01*
X194701208Y-59531619D02*
X194701208Y-60103047D01*
X194701208Y-59817333D02*
X195701208Y-59817333D01*
X195701208Y-59817333D02*
X195558351Y-59912571D01*
X195558351Y-59912571D02*
X195463113Y-60007809D01*
X195463113Y-60007809D02*
X195415494Y-60103047D01*
X195701208Y-59198285D02*
X195701208Y-58579238D01*
X195701208Y-58579238D02*
X195320256Y-58912571D01*
X195320256Y-58912571D02*
X195320256Y-58769714D01*
X195320256Y-58769714D02*
X195272637Y-58674476D01*
X195272637Y-58674476D02*
X195225018Y-58626857D01*
X195225018Y-58626857D02*
X195129780Y-58579238D01*
X195129780Y-58579238D02*
X194891685Y-58579238D01*
X194891685Y-58579238D02*
X194796447Y-58626857D01*
X194796447Y-58626857D02*
X194748828Y-58674476D01*
X194748828Y-58674476D02*
X194701208Y-58769714D01*
X194701208Y-58769714D02*
X194701208Y-59055428D01*
X194701208Y-59055428D02*
X194748828Y-59150666D01*
X194748828Y-59150666D02*
X194796447Y-59198285D01*
X195701208Y-57674476D02*
X195701208Y-58150666D01*
X195701208Y-58150666D02*
X195225018Y-58198285D01*
X195225018Y-58198285D02*
X195272637Y-58150666D01*
X195272637Y-58150666D02*
X195320256Y-58055428D01*
X195320256Y-58055428D02*
X195320256Y-57817333D01*
X195320256Y-57817333D02*
X195272637Y-57722095D01*
X195272637Y-57722095D02*
X195225018Y-57674476D01*
X195225018Y-57674476D02*
X195129780Y-57626857D01*
X195129780Y-57626857D02*
X194891685Y-57626857D01*
X194891685Y-57626857D02*
X194796447Y-57674476D01*
X194796447Y-57674476D02*
X194748828Y-57722095D01*
X194748828Y-57722095D02*
X194701208Y-57817333D01*
X194701208Y-57817333D02*
X194701208Y-58055428D01*
X194701208Y-58055428D02*
X194748828Y-58150666D01*
X194748828Y-58150666D02*
X194796447Y-58198285D01*
D11*
X138649999Y-118845471D02*
X138721427Y-118916900D01*
X138721427Y-118916900D02*
X138935713Y-118988328D01*
X138935713Y-118988328D02*
X139078570Y-118988328D01*
X139078570Y-118988328D02*
X139292856Y-118916900D01*
X139292856Y-118916900D02*
X139435713Y-118774042D01*
X139435713Y-118774042D02*
X139507142Y-118631185D01*
X139507142Y-118631185D02*
X139578570Y-118345471D01*
X139578570Y-118345471D02*
X139578570Y-118131185D01*
X139578570Y-118131185D02*
X139507142Y-117845471D01*
X139507142Y-117845471D02*
X139435713Y-117702614D01*
X139435713Y-117702614D02*
X139292856Y-117559757D01*
X139292856Y-117559757D02*
X139078570Y-117488328D01*
X139078570Y-117488328D02*
X138935713Y-117488328D01*
X138935713Y-117488328D02*
X138721427Y-117559757D01*
X138721427Y-117559757D02*
X138649999Y-117631185D01*
X138078570Y-118559757D02*
X137364285Y-118559757D01*
X138221427Y-118988328D02*
X137721427Y-117488328D01*
X137721427Y-117488328D02*
X137221427Y-118988328D01*
X136721428Y-118988328D02*
X136721428Y-117488328D01*
X136721428Y-117488328D02*
X136149999Y-117488328D01*
X136149999Y-117488328D02*
X136007142Y-117559757D01*
X136007142Y-117559757D02*
X135935713Y-117631185D01*
X135935713Y-117631185D02*
X135864285Y-117774042D01*
X135864285Y-117774042D02*
X135864285Y-117988328D01*
X135864285Y-117988328D02*
X135935713Y-118131185D01*
X135935713Y-118131185D02*
X136007142Y-118202614D01*
X136007142Y-118202614D02*
X136149999Y-118274042D01*
X136149999Y-118274042D02*
X136721428Y-118274042D01*
X135292856Y-118916900D02*
X135078571Y-118988328D01*
X135078571Y-118988328D02*
X134721428Y-118988328D01*
X134721428Y-118988328D02*
X134578571Y-118916900D01*
X134578571Y-118916900D02*
X134507142Y-118845471D01*
X134507142Y-118845471D02*
X134435713Y-118702614D01*
X134435713Y-118702614D02*
X134435713Y-118559757D01*
X134435713Y-118559757D02*
X134507142Y-118416900D01*
X134507142Y-118416900D02*
X134578571Y-118345471D01*
X134578571Y-118345471D02*
X134721428Y-118274042D01*
X134721428Y-118274042D02*
X135007142Y-118202614D01*
X135007142Y-118202614D02*
X135149999Y-118131185D01*
X135149999Y-118131185D02*
X135221428Y-118059757D01*
X135221428Y-118059757D02*
X135292856Y-117916900D01*
X135292856Y-117916900D02*
X135292856Y-117774042D01*
X135292856Y-117774042D02*
X135221428Y-117631185D01*
X135221428Y-117631185D02*
X135149999Y-117559757D01*
X135149999Y-117559757D02*
X135007142Y-117488328D01*
X135007142Y-117488328D02*
X134649999Y-117488328D01*
X134649999Y-117488328D02*
X134435713Y-117559757D01*
X133078571Y-118988328D02*
X133792857Y-118988328D01*
X133792857Y-118988328D02*
X133792857Y-117488328D01*
X131721428Y-118845471D02*
X131792856Y-118916900D01*
X131792856Y-118916900D02*
X132007142Y-118988328D01*
X132007142Y-118988328D02*
X132149999Y-118988328D01*
X132149999Y-118988328D02*
X132364285Y-118916900D01*
X132364285Y-118916900D02*
X132507142Y-118774042D01*
X132507142Y-118774042D02*
X132578571Y-118631185D01*
X132578571Y-118631185D02*
X132649999Y-118345471D01*
X132649999Y-118345471D02*
X132649999Y-118131185D01*
X132649999Y-118131185D02*
X132578571Y-117845471D01*
X132578571Y-117845471D02*
X132507142Y-117702614D01*
X132507142Y-117702614D02*
X132364285Y-117559757D01*
X132364285Y-117559757D02*
X132149999Y-117488328D01*
X132149999Y-117488328D02*
X132007142Y-117488328D01*
X132007142Y-117488328D02*
X131792856Y-117559757D01*
X131792856Y-117559757D02*
X131721428Y-117631185D01*
X131078571Y-118988328D02*
X131078571Y-117488328D01*
X130221428Y-118988328D02*
X130864285Y-118131185D01*
X130221428Y-117488328D02*
X131078571Y-118345471D01*
X159135713Y-118816900D02*
X158921428Y-118888328D01*
X158921428Y-118888328D02*
X158564285Y-118888328D01*
X158564285Y-118888328D02*
X158421428Y-118816900D01*
X158421428Y-118816900D02*
X158349999Y-118745471D01*
X158349999Y-118745471D02*
X158278570Y-118602614D01*
X158278570Y-118602614D02*
X158278570Y-118459757D01*
X158278570Y-118459757D02*
X158349999Y-118316900D01*
X158349999Y-118316900D02*
X158421428Y-118245471D01*
X158421428Y-118245471D02*
X158564285Y-118174042D01*
X158564285Y-118174042D02*
X158849999Y-118102614D01*
X158849999Y-118102614D02*
X158992856Y-118031185D01*
X158992856Y-118031185D02*
X159064285Y-117959757D01*
X159064285Y-117959757D02*
X159135713Y-117816900D01*
X159135713Y-117816900D02*
X159135713Y-117674042D01*
X159135713Y-117674042D02*
X159064285Y-117531185D01*
X159064285Y-117531185D02*
X158992856Y-117459757D01*
X158992856Y-117459757D02*
X158849999Y-117388328D01*
X158849999Y-117388328D02*
X158492856Y-117388328D01*
X158492856Y-117388328D02*
X158278570Y-117459757D01*
X156778571Y-118745471D02*
X156849999Y-118816900D01*
X156849999Y-118816900D02*
X157064285Y-118888328D01*
X157064285Y-118888328D02*
X157207142Y-118888328D01*
X157207142Y-118888328D02*
X157421428Y-118816900D01*
X157421428Y-118816900D02*
X157564285Y-118674042D01*
X157564285Y-118674042D02*
X157635714Y-118531185D01*
X157635714Y-118531185D02*
X157707142Y-118245471D01*
X157707142Y-118245471D02*
X157707142Y-118031185D01*
X157707142Y-118031185D02*
X157635714Y-117745471D01*
X157635714Y-117745471D02*
X157564285Y-117602614D01*
X157564285Y-117602614D02*
X157421428Y-117459757D01*
X157421428Y-117459757D02*
X157207142Y-117388328D01*
X157207142Y-117388328D02*
X157064285Y-117388328D01*
X157064285Y-117388328D02*
X156849999Y-117459757D01*
X156849999Y-117459757D02*
X156778571Y-117531185D01*
X155278571Y-118888328D02*
X155778571Y-118174042D01*
X156135714Y-118888328D02*
X156135714Y-117388328D01*
X156135714Y-117388328D02*
X155564285Y-117388328D01*
X155564285Y-117388328D02*
X155421428Y-117459757D01*
X155421428Y-117459757D02*
X155349999Y-117531185D01*
X155349999Y-117531185D02*
X155278571Y-117674042D01*
X155278571Y-117674042D02*
X155278571Y-117888328D01*
X155278571Y-117888328D02*
X155349999Y-118031185D01*
X155349999Y-118031185D02*
X155421428Y-118102614D01*
X155421428Y-118102614D02*
X155564285Y-118174042D01*
X155564285Y-118174042D02*
X156135714Y-118174042D01*
X153921428Y-118888328D02*
X154635714Y-118888328D01*
X154635714Y-118888328D02*
X154635714Y-117388328D01*
X152564285Y-118745471D02*
X152635713Y-118816900D01*
X152635713Y-118816900D02*
X152849999Y-118888328D01*
X152849999Y-118888328D02*
X152992856Y-118888328D01*
X152992856Y-118888328D02*
X153207142Y-118816900D01*
X153207142Y-118816900D02*
X153349999Y-118674042D01*
X153349999Y-118674042D02*
X153421428Y-118531185D01*
X153421428Y-118531185D02*
X153492856Y-118245471D01*
X153492856Y-118245471D02*
X153492856Y-118031185D01*
X153492856Y-118031185D02*
X153421428Y-117745471D01*
X153421428Y-117745471D02*
X153349999Y-117602614D01*
X153349999Y-117602614D02*
X153207142Y-117459757D01*
X153207142Y-117459757D02*
X152992856Y-117388328D01*
X152992856Y-117388328D02*
X152849999Y-117388328D01*
X152849999Y-117388328D02*
X152635713Y-117459757D01*
X152635713Y-117459757D02*
X152564285Y-117531185D01*
X151921428Y-118888328D02*
X151921428Y-117388328D01*
X151064285Y-118888328D02*
X151707142Y-118031185D01*
X151064285Y-117388328D02*
X151921428Y-118245471D01*
D10*
X190909523Y-95354819D02*
X190909523Y-94354819D01*
X190909523Y-94354819D02*
X190576190Y-95069104D01*
X190576190Y-95069104D02*
X190242857Y-94354819D01*
X190242857Y-94354819D02*
X190242857Y-95354819D01*
X189861904Y-94354819D02*
X189242857Y-94354819D01*
X189242857Y-94354819D02*
X189576190Y-94735771D01*
X189576190Y-94735771D02*
X189433333Y-94735771D01*
X189433333Y-94735771D02*
X189338095Y-94783390D01*
X189338095Y-94783390D02*
X189290476Y-94831009D01*
X189290476Y-94831009D02*
X189242857Y-94926247D01*
X189242857Y-94926247D02*
X189242857Y-95164342D01*
X189242857Y-95164342D02*
X189290476Y-95259580D01*
X189290476Y-95259580D02*
X189338095Y-95307200D01*
X189338095Y-95307200D02*
X189433333Y-95354819D01*
X189433333Y-95354819D02*
X189719047Y-95354819D01*
X189719047Y-95354819D02*
X189814285Y-95307200D01*
X189814285Y-95307200D02*
X189861904Y-95259580D01*
X110309523Y-95354819D02*
X110309523Y-94354819D01*
X110309523Y-94354819D02*
X109976190Y-95069104D01*
X109976190Y-95069104D02*
X109642857Y-94354819D01*
X109642857Y-94354819D02*
X109642857Y-95354819D01*
X108738095Y-94688152D02*
X108738095Y-95354819D01*
X108976190Y-94307200D02*
X109214285Y-95021485D01*
X109214285Y-95021485D02*
X108595238Y-95021485D01*
X137502819Y-126579333D02*
X137026628Y-126246000D01*
X137502819Y-126007905D02*
X136502819Y-126007905D01*
X136502819Y-126007905D02*
X136502819Y-126388857D01*
X136502819Y-126388857D02*
X136550438Y-126484095D01*
X136550438Y-126484095D02*
X136598057Y-126531714D01*
X136598057Y-126531714D02*
X136693295Y-126579333D01*
X136693295Y-126579333D02*
X136836152Y-126579333D01*
X136836152Y-126579333D02*
X136931390Y-126531714D01*
X136931390Y-126531714D02*
X136979009Y-126484095D01*
X136979009Y-126484095D02*
X137026628Y-126388857D01*
X137026628Y-126388857D02*
X137026628Y-126007905D01*
X137502819Y-127531714D02*
X137502819Y-126960286D01*
X137502819Y-127246000D02*
X136502819Y-127246000D01*
X136502819Y-127246000D02*
X136645676Y-127150762D01*
X136645676Y-127150762D02*
X136740914Y-127055524D01*
X136740914Y-127055524D02*
X136788533Y-126960286D01*
X146774819Y-88773095D02*
X147584342Y-88773095D01*
X147584342Y-88773095D02*
X147679580Y-88820714D01*
X147679580Y-88820714D02*
X147727200Y-88868333D01*
X147727200Y-88868333D02*
X147774819Y-88963571D01*
X147774819Y-88963571D02*
X147774819Y-89154047D01*
X147774819Y-89154047D02*
X147727200Y-89249285D01*
X147727200Y-89249285D02*
X147679580Y-89296904D01*
X147679580Y-89296904D02*
X147584342Y-89344523D01*
X147584342Y-89344523D02*
X146774819Y-89344523D01*
X147774819Y-90344523D02*
X147774819Y-89773095D01*
X147774819Y-90058809D02*
X146774819Y-90058809D01*
X146774819Y-90058809D02*
X146917676Y-89963571D01*
X146917676Y-89963571D02*
X147012914Y-89868333D01*
X147012914Y-89868333D02*
X147060533Y-89773095D01*
X136280868Y-100662998D02*
X136307805Y-100582185D01*
X136307805Y-100582185D02*
X136388618Y-100501373D01*
X136388618Y-100501373D02*
X136496367Y-100447498D01*
X136496367Y-100447498D02*
X136604117Y-100447498D01*
X136604117Y-100447498D02*
X136684929Y-100474436D01*
X136684929Y-100474436D02*
X136819616Y-100555248D01*
X136819616Y-100555248D02*
X136900428Y-100636060D01*
X136900428Y-100636060D02*
X136981241Y-100770747D01*
X136981241Y-100770747D02*
X137008178Y-100851560D01*
X137008178Y-100851560D02*
X137008178Y-100959309D01*
X137008178Y-100959309D02*
X136954303Y-101067059D01*
X136954303Y-101067059D02*
X136900428Y-101120934D01*
X136900428Y-101120934D02*
X136792679Y-101174808D01*
X136792679Y-101174808D02*
X136738804Y-101174808D01*
X136738804Y-101174808D02*
X136550242Y-100986247D01*
X136550242Y-100986247D02*
X136657992Y-100878497D01*
X136550242Y-101471120D02*
X135984557Y-100905434D01*
X135984557Y-100905434D02*
X135769057Y-101120934D01*
X135769057Y-101120934D02*
X135742120Y-101201746D01*
X135742120Y-101201746D02*
X135742120Y-101255621D01*
X135742120Y-101255621D02*
X135769057Y-101336433D01*
X135769057Y-101336433D02*
X135849870Y-101417245D01*
X135849870Y-101417245D02*
X135930682Y-101444182D01*
X135930682Y-101444182D02*
X135984557Y-101444182D01*
X135984557Y-101444182D02*
X136065369Y-101417245D01*
X136065369Y-101417245D02*
X136280868Y-101201746D01*
X135688245Y-102333117D02*
X136011494Y-102009868D01*
X135849870Y-102171492D02*
X135284184Y-101605807D01*
X135284184Y-101605807D02*
X135418871Y-101632744D01*
X135418871Y-101632744D02*
X135526621Y-101632744D01*
X135526621Y-101632744D02*
X135607433Y-101605807D01*
X135149497Y-102871865D02*
X135472746Y-102548616D01*
X135311121Y-102710240D02*
X134745436Y-102144555D01*
X134745436Y-102144555D02*
X134880123Y-102171492D01*
X134880123Y-102171492D02*
X134987873Y-102171492D01*
X134987873Y-102171492D02*
X135068685Y-102144555D01*
X154761240Y-76813873D02*
X154491866Y-77083247D01*
X154976739Y-76921623D02*
X154222492Y-76544499D01*
X154222492Y-76544499D02*
X154599615Y-77298746D01*
X153575994Y-77244871D02*
X153602932Y-77164059D01*
X153602932Y-77164059D02*
X153683744Y-77083247D01*
X153683744Y-77083247D02*
X153791494Y-77029372D01*
X153791494Y-77029372D02*
X153899243Y-77029372D01*
X153899243Y-77029372D02*
X153980055Y-77056310D01*
X153980055Y-77056310D02*
X154114742Y-77137122D01*
X154114742Y-77137122D02*
X154195555Y-77217934D01*
X154195555Y-77217934D02*
X154276367Y-77352621D01*
X154276367Y-77352621D02*
X154303304Y-77433433D01*
X154303304Y-77433433D02*
X154303304Y-77541183D01*
X154303304Y-77541183D02*
X154249429Y-77648932D01*
X154249429Y-77648932D02*
X154195555Y-77702807D01*
X154195555Y-77702807D02*
X154087805Y-77756682D01*
X154087805Y-77756682D02*
X154033930Y-77756682D01*
X154033930Y-77756682D02*
X153845368Y-77568120D01*
X153845368Y-77568120D02*
X153953118Y-77460371D01*
X153845368Y-78052993D02*
X153279683Y-77487308D01*
X153279683Y-77487308D02*
X153522120Y-78376242D01*
X153522120Y-78376242D02*
X152956434Y-77810557D01*
X153252746Y-78645616D02*
X152687060Y-78079931D01*
X152687060Y-78079931D02*
X152552373Y-78214618D01*
X152552373Y-78214618D02*
X152498498Y-78322367D01*
X152498498Y-78322367D02*
X152498498Y-78430117D01*
X152498498Y-78430117D02*
X152525436Y-78510929D01*
X152525436Y-78510929D02*
X152606248Y-78645616D01*
X152606248Y-78645616D02*
X152687060Y-78726428D01*
X152687060Y-78726428D02*
X152821747Y-78807241D01*
X152821747Y-78807241D02*
X152902560Y-78834178D01*
X152902560Y-78834178D02*
X153010309Y-78834178D01*
X153010309Y-78834178D02*
X153118059Y-78780303D01*
X153118059Y-78780303D02*
X153252746Y-78645616D01*
X128418431Y-77256435D02*
X128445368Y-77175623D01*
X128445368Y-77175623D02*
X128526180Y-77094811D01*
X128526180Y-77094811D02*
X128633930Y-77040936D01*
X128633930Y-77040936D02*
X128741680Y-77040936D01*
X128741680Y-77040936D02*
X128822492Y-77067873D01*
X128822492Y-77067873D02*
X128957179Y-77148685D01*
X128957179Y-77148685D02*
X129037991Y-77229498D01*
X129037991Y-77229498D02*
X129118803Y-77364185D01*
X129118803Y-77364185D02*
X129145741Y-77444997D01*
X129145741Y-77444997D02*
X129145741Y-77552746D01*
X129145741Y-77552746D02*
X129091866Y-77660496D01*
X129091866Y-77660496D02*
X129037991Y-77714371D01*
X129037991Y-77714371D02*
X128930241Y-77768246D01*
X128930241Y-77768246D02*
X128876367Y-77768246D01*
X128876367Y-77768246D02*
X128687805Y-77579684D01*
X128687805Y-77579684D02*
X128795554Y-77471934D01*
X128687805Y-78064557D02*
X128122119Y-77498872D01*
X128122119Y-77498872D02*
X128364556Y-78387806D01*
X128364556Y-78387806D02*
X127798871Y-77822120D01*
X128095182Y-78657180D02*
X127529497Y-78091494D01*
X127529497Y-78091494D02*
X127394810Y-78226181D01*
X127394810Y-78226181D02*
X127340935Y-78333931D01*
X127340935Y-78333931D02*
X127340935Y-78441680D01*
X127340935Y-78441680D02*
X127367872Y-78522493D01*
X127367872Y-78522493D02*
X127448685Y-78657180D01*
X127448685Y-78657180D02*
X127529497Y-78737992D01*
X127529497Y-78737992D02*
X127664184Y-78818804D01*
X127664184Y-78818804D02*
X127744996Y-78845741D01*
X127744996Y-78845741D02*
X127852746Y-78845741D01*
X127852746Y-78845741D02*
X127960495Y-78791867D01*
X127960495Y-78791867D02*
X128095182Y-78657180D01*
X172247585Y-76123406D02*
X172624709Y-76877653D01*
X172624709Y-76877653D02*
X171870462Y-76500529D01*
X171762712Y-77147027D02*
X171708838Y-77254776D01*
X171708838Y-77254776D02*
X171708838Y-77308651D01*
X171708838Y-77308651D02*
X171735775Y-77389463D01*
X171735775Y-77389463D02*
X171816587Y-77470276D01*
X171816587Y-77470276D02*
X171897399Y-77497213D01*
X171897399Y-77497213D02*
X171951274Y-77497213D01*
X171951274Y-77497213D02*
X172032086Y-77470276D01*
X172032086Y-77470276D02*
X172247586Y-77254776D01*
X172247586Y-77254776D02*
X171681900Y-76689091D01*
X171681900Y-76689091D02*
X171493338Y-76877653D01*
X171493338Y-76877653D02*
X171466401Y-76958465D01*
X171466401Y-76958465D02*
X171466401Y-77012340D01*
X171466401Y-77012340D02*
X171493338Y-77093152D01*
X171493338Y-77093152D02*
X171547213Y-77147027D01*
X171547213Y-77147027D02*
X171628025Y-77173964D01*
X171628025Y-77173964D02*
X171681900Y-77173964D01*
X171681900Y-77173964D02*
X171762712Y-77147027D01*
X171762712Y-77147027D02*
X171951274Y-76958465D01*
X171116215Y-77254776D02*
X171574151Y-77712712D01*
X171574151Y-77712712D02*
X171601088Y-77793524D01*
X171601088Y-77793524D02*
X171601088Y-77847399D01*
X171601088Y-77847399D02*
X171574151Y-77928211D01*
X171574151Y-77928211D02*
X171466401Y-78035961D01*
X171466401Y-78035961D02*
X171385589Y-78062898D01*
X171385589Y-78062898D02*
X171331714Y-78062898D01*
X171331714Y-78062898D02*
X171250902Y-78035961D01*
X171250902Y-78035961D02*
X170792966Y-77578025D01*
X171089277Y-78359210D02*
X171035403Y-78466959D01*
X171035403Y-78466959D02*
X170900716Y-78601646D01*
X170900716Y-78601646D02*
X170819903Y-78628584D01*
X170819903Y-78628584D02*
X170766029Y-78628584D01*
X170766029Y-78628584D02*
X170685216Y-78601646D01*
X170685216Y-78601646D02*
X170631342Y-78547771D01*
X170631342Y-78547771D02*
X170604404Y-78466959D01*
X170604404Y-78466959D02*
X170604404Y-78413084D01*
X170604404Y-78413084D02*
X170631342Y-78332272D01*
X170631342Y-78332272D02*
X170712154Y-78197585D01*
X170712154Y-78197585D02*
X170739091Y-78116773D01*
X170739091Y-78116773D02*
X170739091Y-78062898D01*
X170739091Y-78062898D02*
X170712154Y-77982086D01*
X170712154Y-77982086D02*
X170658279Y-77928211D01*
X170658279Y-77928211D02*
X170577467Y-77901274D01*
X170577467Y-77901274D02*
X170523592Y-77901274D01*
X170523592Y-77901274D02*
X170442780Y-77928211D01*
X170442780Y-77928211D02*
X170308093Y-78062898D01*
X170308093Y-78062898D02*
X170254218Y-78170648D01*
X166518431Y-77256435D02*
X166545368Y-77175623D01*
X166545368Y-77175623D02*
X166626180Y-77094811D01*
X166626180Y-77094811D02*
X166733930Y-77040936D01*
X166733930Y-77040936D02*
X166841680Y-77040936D01*
X166841680Y-77040936D02*
X166922492Y-77067873D01*
X166922492Y-77067873D02*
X167057179Y-77148685D01*
X167057179Y-77148685D02*
X167137991Y-77229498D01*
X167137991Y-77229498D02*
X167218803Y-77364185D01*
X167218803Y-77364185D02*
X167245741Y-77444997D01*
X167245741Y-77444997D02*
X167245741Y-77552746D01*
X167245741Y-77552746D02*
X167191866Y-77660496D01*
X167191866Y-77660496D02*
X167137991Y-77714371D01*
X167137991Y-77714371D02*
X167030241Y-77768246D01*
X167030241Y-77768246D02*
X166976367Y-77768246D01*
X166976367Y-77768246D02*
X166787805Y-77579684D01*
X166787805Y-77579684D02*
X166895554Y-77471934D01*
X166787805Y-78064557D02*
X166222119Y-77498872D01*
X166222119Y-77498872D02*
X166464556Y-78387806D01*
X166464556Y-78387806D02*
X165898871Y-77822120D01*
X166195182Y-78657180D02*
X165629497Y-78091494D01*
X165629497Y-78091494D02*
X165494810Y-78226181D01*
X165494810Y-78226181D02*
X165440935Y-78333931D01*
X165440935Y-78333931D02*
X165440935Y-78441680D01*
X165440935Y-78441680D02*
X165467872Y-78522493D01*
X165467872Y-78522493D02*
X165548685Y-78657180D01*
X165548685Y-78657180D02*
X165629497Y-78737992D01*
X165629497Y-78737992D02*
X165764184Y-78818804D01*
X165764184Y-78818804D02*
X165844996Y-78845741D01*
X165844996Y-78845741D02*
X165952746Y-78845741D01*
X165952746Y-78845741D02*
X166060495Y-78791867D01*
X166060495Y-78791867D02*
X166195182Y-78657180D01*
X131200868Y-100516998D02*
X131227805Y-100436185D01*
X131227805Y-100436185D02*
X131308618Y-100355373D01*
X131308618Y-100355373D02*
X131416367Y-100301498D01*
X131416367Y-100301498D02*
X131524117Y-100301498D01*
X131524117Y-100301498D02*
X131604929Y-100328436D01*
X131604929Y-100328436D02*
X131739616Y-100409248D01*
X131739616Y-100409248D02*
X131820428Y-100490060D01*
X131820428Y-100490060D02*
X131901241Y-100624747D01*
X131901241Y-100624747D02*
X131928178Y-100705560D01*
X131928178Y-100705560D02*
X131928178Y-100813309D01*
X131928178Y-100813309D02*
X131874303Y-100921059D01*
X131874303Y-100921059D02*
X131820428Y-100974934D01*
X131820428Y-100974934D02*
X131712679Y-101028808D01*
X131712679Y-101028808D02*
X131658804Y-101028808D01*
X131658804Y-101028808D02*
X131470242Y-100840247D01*
X131470242Y-100840247D02*
X131577992Y-100732497D01*
X131470242Y-101325120D02*
X130904557Y-100759434D01*
X130904557Y-100759434D02*
X130689057Y-100974934D01*
X130689057Y-100974934D02*
X130662120Y-101055746D01*
X130662120Y-101055746D02*
X130662120Y-101109621D01*
X130662120Y-101109621D02*
X130689057Y-101190433D01*
X130689057Y-101190433D02*
X130769870Y-101271245D01*
X130769870Y-101271245D02*
X130850682Y-101298182D01*
X130850682Y-101298182D02*
X130904557Y-101298182D01*
X130904557Y-101298182D02*
X130985369Y-101271245D01*
X130985369Y-101271245D02*
X131200868Y-101055746D01*
X130608245Y-102187117D02*
X130931494Y-101863868D01*
X130769870Y-102025492D02*
X130204184Y-101459807D01*
X130204184Y-101459807D02*
X130338871Y-101486744D01*
X130338871Y-101486744D02*
X130446621Y-101486744D01*
X130446621Y-101486744D02*
X130527433Y-101459807D01*
X129853998Y-101809993D02*
X129503812Y-102160179D01*
X129503812Y-102160179D02*
X129907873Y-102187117D01*
X129907873Y-102187117D02*
X129827060Y-102267929D01*
X129827060Y-102267929D02*
X129800123Y-102348741D01*
X129800123Y-102348741D02*
X129800123Y-102402616D01*
X129800123Y-102402616D02*
X129827060Y-102483428D01*
X129827060Y-102483428D02*
X129961747Y-102618115D01*
X129961747Y-102618115D02*
X130042560Y-102645053D01*
X130042560Y-102645053D02*
X130096434Y-102645053D01*
X130096434Y-102645053D02*
X130177247Y-102618115D01*
X130177247Y-102618115D02*
X130338871Y-102456491D01*
X130338871Y-102456491D02*
X130365808Y-102375679D01*
X130365808Y-102375679D02*
X130365808Y-102321804D01*
X161854049Y-74925064D02*
X161584675Y-75194438D01*
X162069549Y-75032813D02*
X161315301Y-74655690D01*
X161315301Y-74655690D02*
X161692425Y-75409937D01*
X161503863Y-75598499D02*
X160938178Y-75032813D01*
X160938178Y-75032813D02*
X160803491Y-75167500D01*
X160803491Y-75167500D02*
X160749616Y-75275250D01*
X160749616Y-75275250D02*
X160749616Y-75382999D01*
X160749616Y-75382999D02*
X160776553Y-75463812D01*
X160776553Y-75463812D02*
X160857366Y-75598499D01*
X160857366Y-75598499D02*
X160938178Y-75679311D01*
X160938178Y-75679311D02*
X161072865Y-75760123D01*
X161072865Y-75760123D02*
X161153677Y-75787060D01*
X161153677Y-75787060D02*
X161261427Y-75787060D01*
X161261427Y-75787060D02*
X161369176Y-75733186D01*
X161369176Y-75733186D02*
X161503863Y-75598499D01*
X160561054Y-76433558D02*
X160614929Y-76433558D01*
X160614929Y-76433558D02*
X160722679Y-76379683D01*
X160722679Y-76379683D02*
X160776553Y-76325808D01*
X160776553Y-76325808D02*
X160830428Y-76218059D01*
X160830428Y-76218059D02*
X160830428Y-76110309D01*
X160830428Y-76110309D02*
X160803491Y-76029497D01*
X160803491Y-76029497D02*
X160722679Y-75894810D01*
X160722679Y-75894810D02*
X160641866Y-75813998D01*
X160641866Y-75813998D02*
X160507179Y-75733186D01*
X160507179Y-75733186D02*
X160426367Y-75706248D01*
X160426367Y-75706248D02*
X160318618Y-75706248D01*
X160318618Y-75706248D02*
X160210868Y-75760123D01*
X160210868Y-75760123D02*
X160156993Y-75813998D01*
X160156993Y-75813998D02*
X160103118Y-75921747D01*
X160103118Y-75921747D02*
X160103118Y-75975622D01*
X160561054Y-76649057D02*
X160130056Y-77080056D01*
X159456621Y-76514370D02*
X159833744Y-77268618D01*
X159833744Y-77268618D02*
X159079497Y-76891494D01*
X159133372Y-77968990D02*
X159052560Y-77511054D01*
X159456621Y-77645741D02*
X158890935Y-77080056D01*
X158890935Y-77080056D02*
X158675436Y-77295555D01*
X158675436Y-77295555D02*
X158648499Y-77376367D01*
X158648499Y-77376367D02*
X158648499Y-77430242D01*
X158648499Y-77430242D02*
X158675436Y-77511054D01*
X158675436Y-77511054D02*
X158756248Y-77591866D01*
X158756248Y-77591866D02*
X158837061Y-77618804D01*
X158837061Y-77618804D02*
X158890935Y-77618804D01*
X158890935Y-77618804D02*
X158971748Y-77591866D01*
X158971748Y-77591866D02*
X159187247Y-77376367D01*
X158594624Y-77915115D02*
X158406062Y-78103677D01*
X158621561Y-78480800D02*
X158890935Y-78211426D01*
X158890935Y-78211426D02*
X158325250Y-77645741D01*
X158325250Y-77645741D02*
X158055876Y-77915115D01*
X157894251Y-78615488D02*
X158082813Y-78426926D01*
X158379125Y-78723237D02*
X157813439Y-78157552D01*
X157813439Y-78157552D02*
X157544065Y-78426926D01*
X158871494Y-100532372D02*
X158898431Y-100451560D01*
X158898431Y-100451560D02*
X158979243Y-100370748D01*
X158979243Y-100370748D02*
X159086993Y-100316873D01*
X159086993Y-100316873D02*
X159194742Y-100316873D01*
X159194742Y-100316873D02*
X159275555Y-100343810D01*
X159275555Y-100343810D02*
X159410242Y-100424623D01*
X159410242Y-100424623D02*
X159491054Y-100505435D01*
X159491054Y-100505435D02*
X159571866Y-100640122D01*
X159571866Y-100640122D02*
X159598803Y-100720934D01*
X159598803Y-100720934D02*
X159598803Y-100828684D01*
X159598803Y-100828684D02*
X159544929Y-100936433D01*
X159544929Y-100936433D02*
X159491054Y-100990308D01*
X159491054Y-100990308D02*
X159383304Y-101044183D01*
X159383304Y-101044183D02*
X159329429Y-101044183D01*
X159329429Y-101044183D02*
X159140868Y-100855621D01*
X159140868Y-100855621D02*
X159248617Y-100747871D01*
X159140868Y-101340494D02*
X158575182Y-100774809D01*
X158575182Y-100774809D02*
X158359683Y-100990308D01*
X158359683Y-100990308D02*
X158332746Y-101071120D01*
X158332746Y-101071120D02*
X158332746Y-101124995D01*
X158332746Y-101124995D02*
X158359683Y-101205807D01*
X158359683Y-101205807D02*
X158440495Y-101286619D01*
X158440495Y-101286619D02*
X158521307Y-101313557D01*
X158521307Y-101313557D02*
X158575182Y-101313557D01*
X158575182Y-101313557D02*
X158655994Y-101286619D01*
X158655994Y-101286619D02*
X158871494Y-101071120D01*
X157955622Y-101771493D02*
X158332746Y-102148616D01*
X157874810Y-101421306D02*
X158413558Y-101690680D01*
X158413558Y-101690680D02*
X158063372Y-102040867D01*
X148741494Y-100432372D02*
X148768431Y-100351560D01*
X148768431Y-100351560D02*
X148849243Y-100270748D01*
X148849243Y-100270748D02*
X148956993Y-100216873D01*
X148956993Y-100216873D02*
X149064742Y-100216873D01*
X149064742Y-100216873D02*
X149145555Y-100243810D01*
X149145555Y-100243810D02*
X149280242Y-100324623D01*
X149280242Y-100324623D02*
X149361054Y-100405435D01*
X149361054Y-100405435D02*
X149441866Y-100540122D01*
X149441866Y-100540122D02*
X149468803Y-100620934D01*
X149468803Y-100620934D02*
X149468803Y-100728684D01*
X149468803Y-100728684D02*
X149414929Y-100836433D01*
X149414929Y-100836433D02*
X149361054Y-100890308D01*
X149361054Y-100890308D02*
X149253304Y-100944183D01*
X149253304Y-100944183D02*
X149199429Y-100944183D01*
X149199429Y-100944183D02*
X149010868Y-100755621D01*
X149010868Y-100755621D02*
X149118617Y-100647871D01*
X149010868Y-101240494D02*
X148445182Y-100674809D01*
X148445182Y-100674809D02*
X148229683Y-100890308D01*
X148229683Y-100890308D02*
X148202746Y-100971120D01*
X148202746Y-100971120D02*
X148202746Y-101024995D01*
X148202746Y-101024995D02*
X148229683Y-101105807D01*
X148229683Y-101105807D02*
X148310495Y-101186619D01*
X148310495Y-101186619D02*
X148391307Y-101213557D01*
X148391307Y-101213557D02*
X148445182Y-101213557D01*
X148445182Y-101213557D02*
X148525994Y-101186619D01*
X148525994Y-101186619D02*
X148741494Y-100971120D01*
X147933372Y-101186619D02*
X147556248Y-101563743D01*
X147556248Y-101563743D02*
X148364370Y-101886992D01*
X123580868Y-100516998D02*
X123607805Y-100436185D01*
X123607805Y-100436185D02*
X123688618Y-100355373D01*
X123688618Y-100355373D02*
X123796367Y-100301498D01*
X123796367Y-100301498D02*
X123904117Y-100301498D01*
X123904117Y-100301498D02*
X123984929Y-100328436D01*
X123984929Y-100328436D02*
X124119616Y-100409248D01*
X124119616Y-100409248D02*
X124200428Y-100490060D01*
X124200428Y-100490060D02*
X124281241Y-100624747D01*
X124281241Y-100624747D02*
X124308178Y-100705560D01*
X124308178Y-100705560D02*
X124308178Y-100813309D01*
X124308178Y-100813309D02*
X124254303Y-100921059D01*
X124254303Y-100921059D02*
X124200428Y-100974934D01*
X124200428Y-100974934D02*
X124092679Y-101028808D01*
X124092679Y-101028808D02*
X124038804Y-101028808D01*
X124038804Y-101028808D02*
X123850242Y-100840247D01*
X123850242Y-100840247D02*
X123957992Y-100732497D01*
X123850242Y-101325120D02*
X123284557Y-100759434D01*
X123284557Y-100759434D02*
X123069057Y-100974934D01*
X123069057Y-100974934D02*
X123042120Y-101055746D01*
X123042120Y-101055746D02*
X123042120Y-101109621D01*
X123042120Y-101109621D02*
X123069057Y-101190433D01*
X123069057Y-101190433D02*
X123149870Y-101271245D01*
X123149870Y-101271245D02*
X123230682Y-101298182D01*
X123230682Y-101298182D02*
X123284557Y-101298182D01*
X123284557Y-101298182D02*
X123365369Y-101271245D01*
X123365369Y-101271245D02*
X123580868Y-101055746D01*
X122988245Y-102187117D02*
X123311494Y-101863868D01*
X123149870Y-102025492D02*
X122584184Y-101459807D01*
X122584184Y-101459807D02*
X122718871Y-101486744D01*
X122718871Y-101486744D02*
X122826621Y-101486744D01*
X122826621Y-101486744D02*
X122907433Y-101459807D01*
X121910749Y-102133242D02*
X122180123Y-101863868D01*
X122180123Y-101863868D02*
X122476434Y-102106305D01*
X122476434Y-102106305D02*
X122422560Y-102106305D01*
X122422560Y-102106305D02*
X122341747Y-102133242D01*
X122341747Y-102133242D02*
X122207060Y-102267929D01*
X122207060Y-102267929D02*
X122180123Y-102348741D01*
X122180123Y-102348741D02*
X122180123Y-102402616D01*
X122180123Y-102402616D02*
X122207060Y-102483428D01*
X122207060Y-102483428D02*
X122341747Y-102618115D01*
X122341747Y-102618115D02*
X122422560Y-102645053D01*
X122422560Y-102645053D02*
X122476434Y-102645053D01*
X122476434Y-102645053D02*
X122557247Y-102618115D01*
X122557247Y-102618115D02*
X122691934Y-102483428D01*
X122691934Y-102483428D02*
X122718871Y-102402616D01*
X122718871Y-102402616D02*
X122718871Y-102348741D01*
X126120868Y-76759998D02*
X126147805Y-76679185D01*
X126147805Y-76679185D02*
X126228618Y-76598373D01*
X126228618Y-76598373D02*
X126336367Y-76544498D01*
X126336367Y-76544498D02*
X126444117Y-76544498D01*
X126444117Y-76544498D02*
X126524929Y-76571436D01*
X126524929Y-76571436D02*
X126659616Y-76652248D01*
X126659616Y-76652248D02*
X126740428Y-76733060D01*
X126740428Y-76733060D02*
X126821241Y-76867747D01*
X126821241Y-76867747D02*
X126848178Y-76948560D01*
X126848178Y-76948560D02*
X126848178Y-77056309D01*
X126848178Y-77056309D02*
X126794303Y-77164059D01*
X126794303Y-77164059D02*
X126740428Y-77217934D01*
X126740428Y-77217934D02*
X126632679Y-77271808D01*
X126632679Y-77271808D02*
X126578804Y-77271808D01*
X126578804Y-77271808D02*
X126390242Y-77083247D01*
X126390242Y-77083247D02*
X126497992Y-76975497D01*
X126390242Y-77568120D02*
X125824557Y-77002434D01*
X125824557Y-77002434D02*
X125609057Y-77217934D01*
X125609057Y-77217934D02*
X125582120Y-77298746D01*
X125582120Y-77298746D02*
X125582120Y-77352621D01*
X125582120Y-77352621D02*
X125609057Y-77433433D01*
X125609057Y-77433433D02*
X125689870Y-77514245D01*
X125689870Y-77514245D02*
X125770682Y-77541182D01*
X125770682Y-77541182D02*
X125824557Y-77541182D01*
X125824557Y-77541182D02*
X125905369Y-77514245D01*
X125905369Y-77514245D02*
X126120868Y-77298746D01*
X125528245Y-78430117D02*
X125851494Y-78106868D01*
X125689870Y-78268492D02*
X125124184Y-77702807D01*
X125124184Y-77702807D02*
X125258871Y-77729744D01*
X125258871Y-77729744D02*
X125366621Y-77729744D01*
X125366621Y-77729744D02*
X125447433Y-77702807D01*
X124773998Y-78052993D02*
X124396874Y-78430117D01*
X124396874Y-78430117D02*
X125204996Y-78753366D01*
X148980868Y-76759998D02*
X149007805Y-76679185D01*
X149007805Y-76679185D02*
X149088618Y-76598373D01*
X149088618Y-76598373D02*
X149196367Y-76544498D01*
X149196367Y-76544498D02*
X149304117Y-76544498D01*
X149304117Y-76544498D02*
X149384929Y-76571436D01*
X149384929Y-76571436D02*
X149519616Y-76652248D01*
X149519616Y-76652248D02*
X149600428Y-76733060D01*
X149600428Y-76733060D02*
X149681241Y-76867747D01*
X149681241Y-76867747D02*
X149708178Y-76948560D01*
X149708178Y-76948560D02*
X149708178Y-77056309D01*
X149708178Y-77056309D02*
X149654303Y-77164059D01*
X149654303Y-77164059D02*
X149600428Y-77217934D01*
X149600428Y-77217934D02*
X149492679Y-77271808D01*
X149492679Y-77271808D02*
X149438804Y-77271808D01*
X149438804Y-77271808D02*
X149250242Y-77083247D01*
X149250242Y-77083247D02*
X149357992Y-76975497D01*
X149250242Y-77568120D02*
X148684557Y-77002434D01*
X148684557Y-77002434D02*
X148469057Y-77217934D01*
X148469057Y-77217934D02*
X148442120Y-77298746D01*
X148442120Y-77298746D02*
X148442120Y-77352621D01*
X148442120Y-77352621D02*
X148469057Y-77433433D01*
X148469057Y-77433433D02*
X148549870Y-77514245D01*
X148549870Y-77514245D02*
X148630682Y-77541182D01*
X148630682Y-77541182D02*
X148684557Y-77541182D01*
X148684557Y-77541182D02*
X148765369Y-77514245D01*
X148765369Y-77514245D02*
X148980868Y-77298746D01*
X148199683Y-77595057D02*
X148145809Y-77595057D01*
X148145809Y-77595057D02*
X148064996Y-77621995D01*
X148064996Y-77621995D02*
X147930309Y-77756682D01*
X147930309Y-77756682D02*
X147903372Y-77837494D01*
X147903372Y-77837494D02*
X147903372Y-77891369D01*
X147903372Y-77891369D02*
X147930309Y-77972181D01*
X147930309Y-77972181D02*
X147984184Y-78026056D01*
X147984184Y-78026056D02*
X148091934Y-78079930D01*
X148091934Y-78079930D02*
X148738431Y-78079930D01*
X148738431Y-78079930D02*
X148388245Y-78430117D01*
X147337686Y-78349305D02*
X147445436Y-78241555D01*
X147445436Y-78241555D02*
X147526248Y-78214618D01*
X147526248Y-78214618D02*
X147580123Y-78214618D01*
X147580123Y-78214618D02*
X147714810Y-78241555D01*
X147714810Y-78241555D02*
X147849497Y-78322367D01*
X147849497Y-78322367D02*
X148064996Y-78537866D01*
X148064996Y-78537866D02*
X148091934Y-78618679D01*
X148091934Y-78618679D02*
X148091934Y-78672553D01*
X148091934Y-78672553D02*
X148064996Y-78753366D01*
X148064996Y-78753366D02*
X147957247Y-78861115D01*
X147957247Y-78861115D02*
X147876434Y-78888053D01*
X147876434Y-78888053D02*
X147822560Y-78888053D01*
X147822560Y-78888053D02*
X147741747Y-78861115D01*
X147741747Y-78861115D02*
X147607060Y-78726428D01*
X147607060Y-78726428D02*
X147580123Y-78645616D01*
X147580123Y-78645616D02*
X147580123Y-78591741D01*
X147580123Y-78591741D02*
X147607060Y-78510929D01*
X147607060Y-78510929D02*
X147714810Y-78403179D01*
X147714810Y-78403179D02*
X147795622Y-78376242D01*
X147795622Y-78376242D02*
X147849497Y-78376242D01*
X147849497Y-78376242D02*
X147930309Y-78403179D01*
X165678584Y-75292407D02*
X165328398Y-75642593D01*
X165328398Y-75642593D02*
X165732459Y-75669531D01*
X165732459Y-75669531D02*
X165651646Y-75750343D01*
X165651646Y-75750343D02*
X165624709Y-75831155D01*
X165624709Y-75831155D02*
X165624709Y-75885030D01*
X165624709Y-75885030D02*
X165651646Y-75965842D01*
X165651646Y-75965842D02*
X165786333Y-76100529D01*
X165786333Y-76100529D02*
X165867146Y-76127467D01*
X165867146Y-76127467D02*
X165921020Y-76127467D01*
X165921020Y-76127467D02*
X166001833Y-76100529D01*
X166001833Y-76100529D02*
X166163457Y-75938905D01*
X166163457Y-75938905D02*
X166190394Y-75858093D01*
X166190394Y-75858093D02*
X166190394Y-75804218D01*
X165166773Y-75804218D02*
X165543897Y-76558465D01*
X165543897Y-76558465D02*
X164789649Y-76181342D01*
X164654963Y-76316028D02*
X164304776Y-76666215D01*
X164304776Y-76666215D02*
X164708837Y-76693152D01*
X164708837Y-76693152D02*
X164628025Y-76773964D01*
X164628025Y-76773964D02*
X164601088Y-76854776D01*
X164601088Y-76854776D02*
X164601088Y-76908651D01*
X164601088Y-76908651D02*
X164628025Y-76989464D01*
X164628025Y-76989464D02*
X164762712Y-77124151D01*
X164762712Y-77124151D02*
X164843524Y-77151088D01*
X164843524Y-77151088D02*
X164897399Y-77151088D01*
X164897399Y-77151088D02*
X164978211Y-77124151D01*
X164978211Y-77124151D02*
X165139836Y-76962526D01*
X165139836Y-76962526D02*
X165166773Y-76881714D01*
X165166773Y-76881714D02*
X165166773Y-76827839D01*
X164816587Y-77393525D02*
X164385588Y-77824523D01*
X163900715Y-77609024D02*
X163712153Y-77797586D01*
X163927652Y-78174709D02*
X164197026Y-77905335D01*
X164197026Y-77905335D02*
X163631341Y-77339650D01*
X163631341Y-77339650D02*
X163361967Y-77609024D01*
X163685215Y-78417146D02*
X163119530Y-77851461D01*
X163119530Y-77851461D02*
X163361967Y-78740395D01*
X163361967Y-78740395D02*
X162796281Y-78174710D01*
X161610868Y-76860123D02*
X161260682Y-77210309D01*
X161260682Y-77210309D02*
X161664743Y-77237247D01*
X161664743Y-77237247D02*
X161583931Y-77318059D01*
X161583931Y-77318059D02*
X161556993Y-77398871D01*
X161556993Y-77398871D02*
X161556993Y-77452746D01*
X161556993Y-77452746D02*
X161583931Y-77533558D01*
X161583931Y-77533558D02*
X161718618Y-77668245D01*
X161718618Y-77668245D02*
X161799430Y-77695182D01*
X161799430Y-77695182D02*
X161853305Y-77695182D01*
X161853305Y-77695182D02*
X161934117Y-77668245D01*
X161934117Y-77668245D02*
X162095741Y-77506621D01*
X162095741Y-77506621D02*
X162122679Y-77425808D01*
X162122679Y-77425808D02*
X162122679Y-77371934D01*
X161099057Y-77371934D02*
X161476181Y-78126181D01*
X161476181Y-78126181D02*
X160721934Y-77749057D01*
X160587247Y-77883744D02*
X160237061Y-78233930D01*
X160237061Y-78233930D02*
X160641122Y-78260868D01*
X160641122Y-78260868D02*
X160560309Y-78341680D01*
X160560309Y-78341680D02*
X160533372Y-78422492D01*
X160533372Y-78422492D02*
X160533372Y-78476367D01*
X160533372Y-78476367D02*
X160560309Y-78557179D01*
X160560309Y-78557179D02*
X160694996Y-78691866D01*
X160694996Y-78691866D02*
X160775809Y-78718804D01*
X160775809Y-78718804D02*
X160829683Y-78718804D01*
X160829683Y-78718804D02*
X160910496Y-78691866D01*
X160910496Y-78691866D02*
X161072120Y-78530242D01*
X161072120Y-78530242D02*
X161099057Y-78449430D01*
X161099057Y-78449430D02*
X161099057Y-78395555D01*
X146171494Y-100532372D02*
X146198431Y-100451560D01*
X146198431Y-100451560D02*
X146279243Y-100370748D01*
X146279243Y-100370748D02*
X146386993Y-100316873D01*
X146386993Y-100316873D02*
X146494742Y-100316873D01*
X146494742Y-100316873D02*
X146575555Y-100343810D01*
X146575555Y-100343810D02*
X146710242Y-100424623D01*
X146710242Y-100424623D02*
X146791054Y-100505435D01*
X146791054Y-100505435D02*
X146871866Y-100640122D01*
X146871866Y-100640122D02*
X146898803Y-100720934D01*
X146898803Y-100720934D02*
X146898803Y-100828684D01*
X146898803Y-100828684D02*
X146844929Y-100936433D01*
X146844929Y-100936433D02*
X146791054Y-100990308D01*
X146791054Y-100990308D02*
X146683304Y-101044183D01*
X146683304Y-101044183D02*
X146629429Y-101044183D01*
X146629429Y-101044183D02*
X146440868Y-100855621D01*
X146440868Y-100855621D02*
X146548617Y-100747871D01*
X146440868Y-101340494D02*
X145875182Y-100774809D01*
X145875182Y-100774809D02*
X145659683Y-100990308D01*
X145659683Y-100990308D02*
X145632746Y-101071120D01*
X145632746Y-101071120D02*
X145632746Y-101124995D01*
X145632746Y-101124995D02*
X145659683Y-101205807D01*
X145659683Y-101205807D02*
X145740495Y-101286619D01*
X145740495Y-101286619D02*
X145821307Y-101313557D01*
X145821307Y-101313557D02*
X145875182Y-101313557D01*
X145875182Y-101313557D02*
X145955994Y-101286619D01*
X145955994Y-101286619D02*
X146171494Y-101071120D01*
X145471121Y-101663743D02*
X145498059Y-101582931D01*
X145498059Y-101582931D02*
X145498059Y-101529056D01*
X145498059Y-101529056D02*
X145471121Y-101448244D01*
X145471121Y-101448244D02*
X145444184Y-101421306D01*
X145444184Y-101421306D02*
X145363372Y-101394369D01*
X145363372Y-101394369D02*
X145309497Y-101394369D01*
X145309497Y-101394369D02*
X145228685Y-101421306D01*
X145228685Y-101421306D02*
X145120935Y-101529056D01*
X145120935Y-101529056D02*
X145093998Y-101609868D01*
X145093998Y-101609868D02*
X145093998Y-101663743D01*
X145093998Y-101663743D02*
X145120935Y-101744555D01*
X145120935Y-101744555D02*
X145147872Y-101771493D01*
X145147872Y-101771493D02*
X145228685Y-101798430D01*
X145228685Y-101798430D02*
X145282559Y-101798430D01*
X145282559Y-101798430D02*
X145363372Y-101771493D01*
X145363372Y-101771493D02*
X145471121Y-101663743D01*
X145471121Y-101663743D02*
X145551933Y-101636806D01*
X145551933Y-101636806D02*
X145605808Y-101636806D01*
X145605808Y-101636806D02*
X145686620Y-101663743D01*
X145686620Y-101663743D02*
X145794370Y-101771493D01*
X145794370Y-101771493D02*
X145821307Y-101852305D01*
X145821307Y-101852305D02*
X145821307Y-101906180D01*
X145821307Y-101906180D02*
X145794370Y-101986992D01*
X145794370Y-101986992D02*
X145686620Y-102094741D01*
X145686620Y-102094741D02*
X145605808Y-102121679D01*
X145605808Y-102121679D02*
X145551933Y-102121679D01*
X145551933Y-102121679D02*
X145471121Y-102094741D01*
X145471121Y-102094741D02*
X145363372Y-101986992D01*
X145363372Y-101986992D02*
X145336434Y-101906180D01*
X145336434Y-101906180D02*
X145336434Y-101852305D01*
X145336434Y-101852305D02*
X145363372Y-101771493D01*
X123580868Y-76759998D02*
X123607805Y-76679185D01*
X123607805Y-76679185D02*
X123688618Y-76598373D01*
X123688618Y-76598373D02*
X123796367Y-76544498D01*
X123796367Y-76544498D02*
X123904117Y-76544498D01*
X123904117Y-76544498D02*
X123984929Y-76571436D01*
X123984929Y-76571436D02*
X124119616Y-76652248D01*
X124119616Y-76652248D02*
X124200428Y-76733060D01*
X124200428Y-76733060D02*
X124281241Y-76867747D01*
X124281241Y-76867747D02*
X124308178Y-76948560D01*
X124308178Y-76948560D02*
X124308178Y-77056309D01*
X124308178Y-77056309D02*
X124254303Y-77164059D01*
X124254303Y-77164059D02*
X124200428Y-77217934D01*
X124200428Y-77217934D02*
X124092679Y-77271808D01*
X124092679Y-77271808D02*
X124038804Y-77271808D01*
X124038804Y-77271808D02*
X123850242Y-77083247D01*
X123850242Y-77083247D02*
X123957992Y-76975497D01*
X123850242Y-77568120D02*
X123284557Y-77002434D01*
X123284557Y-77002434D02*
X123069057Y-77217934D01*
X123069057Y-77217934D02*
X123042120Y-77298746D01*
X123042120Y-77298746D02*
X123042120Y-77352621D01*
X123042120Y-77352621D02*
X123069057Y-77433433D01*
X123069057Y-77433433D02*
X123149870Y-77514245D01*
X123149870Y-77514245D02*
X123230682Y-77541182D01*
X123230682Y-77541182D02*
X123284557Y-77541182D01*
X123284557Y-77541182D02*
X123365369Y-77514245D01*
X123365369Y-77514245D02*
X123580868Y-77298746D01*
X122988245Y-78430117D02*
X123311494Y-78106868D01*
X123149870Y-78268492D02*
X122584184Y-77702807D01*
X122584184Y-77702807D02*
X122718871Y-77729744D01*
X122718871Y-77729744D02*
X122826621Y-77729744D01*
X122826621Y-77729744D02*
X122907433Y-77702807D01*
X121937686Y-78349305D02*
X122045436Y-78241555D01*
X122045436Y-78241555D02*
X122126248Y-78214618D01*
X122126248Y-78214618D02*
X122180123Y-78214618D01*
X122180123Y-78214618D02*
X122314810Y-78241555D01*
X122314810Y-78241555D02*
X122449497Y-78322367D01*
X122449497Y-78322367D02*
X122664996Y-78537866D01*
X122664996Y-78537866D02*
X122691934Y-78618679D01*
X122691934Y-78618679D02*
X122691934Y-78672553D01*
X122691934Y-78672553D02*
X122664996Y-78753366D01*
X122664996Y-78753366D02*
X122557247Y-78861115D01*
X122557247Y-78861115D02*
X122476434Y-78888053D01*
X122476434Y-78888053D02*
X122422560Y-78888053D01*
X122422560Y-78888053D02*
X122341747Y-78861115D01*
X122341747Y-78861115D02*
X122207060Y-78726428D01*
X122207060Y-78726428D02*
X122180123Y-78645616D01*
X122180123Y-78645616D02*
X122180123Y-78591741D01*
X122180123Y-78591741D02*
X122207060Y-78510929D01*
X122207060Y-78510929D02*
X122314810Y-78403179D01*
X122314810Y-78403179D02*
X122395622Y-78376242D01*
X122395622Y-78376242D02*
X122449497Y-78376242D01*
X122449497Y-78376242D02*
X122530309Y-78403179D01*
X141118431Y-77256435D02*
X141145368Y-77175623D01*
X141145368Y-77175623D02*
X141226180Y-77094811D01*
X141226180Y-77094811D02*
X141333930Y-77040936D01*
X141333930Y-77040936D02*
X141441680Y-77040936D01*
X141441680Y-77040936D02*
X141522492Y-77067873D01*
X141522492Y-77067873D02*
X141657179Y-77148685D01*
X141657179Y-77148685D02*
X141737991Y-77229498D01*
X141737991Y-77229498D02*
X141818803Y-77364185D01*
X141818803Y-77364185D02*
X141845741Y-77444997D01*
X141845741Y-77444997D02*
X141845741Y-77552746D01*
X141845741Y-77552746D02*
X141791866Y-77660496D01*
X141791866Y-77660496D02*
X141737991Y-77714371D01*
X141737991Y-77714371D02*
X141630241Y-77768246D01*
X141630241Y-77768246D02*
X141576367Y-77768246D01*
X141576367Y-77768246D02*
X141387805Y-77579684D01*
X141387805Y-77579684D02*
X141495554Y-77471934D01*
X141387805Y-78064557D02*
X140822119Y-77498872D01*
X140822119Y-77498872D02*
X141064556Y-78387806D01*
X141064556Y-78387806D02*
X140498871Y-77822120D01*
X140795182Y-78657180D02*
X140229497Y-78091494D01*
X140229497Y-78091494D02*
X140094810Y-78226181D01*
X140094810Y-78226181D02*
X140040935Y-78333931D01*
X140040935Y-78333931D02*
X140040935Y-78441680D01*
X140040935Y-78441680D02*
X140067872Y-78522493D01*
X140067872Y-78522493D02*
X140148685Y-78657180D01*
X140148685Y-78657180D02*
X140229497Y-78737992D01*
X140229497Y-78737992D02*
X140364184Y-78818804D01*
X140364184Y-78818804D02*
X140444996Y-78845741D01*
X140444996Y-78845741D02*
X140552746Y-78845741D01*
X140552746Y-78845741D02*
X140660495Y-78791867D01*
X140660495Y-78791867D02*
X140795182Y-78657180D01*
X153818431Y-100505435D02*
X153845368Y-100424623D01*
X153845368Y-100424623D02*
X153926180Y-100343811D01*
X153926180Y-100343811D02*
X154033930Y-100289936D01*
X154033930Y-100289936D02*
X154141680Y-100289936D01*
X154141680Y-100289936D02*
X154222492Y-100316873D01*
X154222492Y-100316873D02*
X154357179Y-100397685D01*
X154357179Y-100397685D02*
X154437991Y-100478498D01*
X154437991Y-100478498D02*
X154518803Y-100613185D01*
X154518803Y-100613185D02*
X154545741Y-100693997D01*
X154545741Y-100693997D02*
X154545741Y-100801746D01*
X154545741Y-100801746D02*
X154491866Y-100909496D01*
X154491866Y-100909496D02*
X154437991Y-100963371D01*
X154437991Y-100963371D02*
X154330241Y-101017246D01*
X154330241Y-101017246D02*
X154276367Y-101017246D01*
X154276367Y-101017246D02*
X154087805Y-100828684D01*
X154087805Y-100828684D02*
X154195554Y-100720934D01*
X154087805Y-101313557D02*
X153522119Y-100747872D01*
X153522119Y-100747872D02*
X153764556Y-101636806D01*
X153764556Y-101636806D02*
X153198871Y-101071120D01*
X153495182Y-101906180D02*
X152929497Y-101340494D01*
X152929497Y-101340494D02*
X152794810Y-101475181D01*
X152794810Y-101475181D02*
X152740935Y-101582931D01*
X152740935Y-101582931D02*
X152740935Y-101690680D01*
X152740935Y-101690680D02*
X152767872Y-101771493D01*
X152767872Y-101771493D02*
X152848685Y-101906180D01*
X152848685Y-101906180D02*
X152929497Y-101986992D01*
X152929497Y-101986992D02*
X153064184Y-102067804D01*
X153064184Y-102067804D02*
X153144996Y-102094741D01*
X153144996Y-102094741D02*
X153252746Y-102094741D01*
X153252746Y-102094741D02*
X153360495Y-102040867D01*
X153360495Y-102040867D02*
X153495182Y-101906180D01*
X156854868Y-76759998D02*
X156881805Y-76679185D01*
X156881805Y-76679185D02*
X156962618Y-76598373D01*
X156962618Y-76598373D02*
X157070367Y-76544498D01*
X157070367Y-76544498D02*
X157178117Y-76544498D01*
X157178117Y-76544498D02*
X157258929Y-76571436D01*
X157258929Y-76571436D02*
X157393616Y-76652248D01*
X157393616Y-76652248D02*
X157474428Y-76733060D01*
X157474428Y-76733060D02*
X157555241Y-76867747D01*
X157555241Y-76867747D02*
X157582178Y-76948560D01*
X157582178Y-76948560D02*
X157582178Y-77056309D01*
X157582178Y-77056309D02*
X157528303Y-77164059D01*
X157528303Y-77164059D02*
X157474428Y-77217934D01*
X157474428Y-77217934D02*
X157366679Y-77271808D01*
X157366679Y-77271808D02*
X157312804Y-77271808D01*
X157312804Y-77271808D02*
X157124242Y-77083247D01*
X157124242Y-77083247D02*
X157231992Y-76975497D01*
X157124242Y-77568120D02*
X156558557Y-77002434D01*
X156558557Y-77002434D02*
X156343057Y-77217934D01*
X156343057Y-77217934D02*
X156316120Y-77298746D01*
X156316120Y-77298746D02*
X156316120Y-77352621D01*
X156316120Y-77352621D02*
X156343057Y-77433433D01*
X156343057Y-77433433D02*
X156423870Y-77514245D01*
X156423870Y-77514245D02*
X156504682Y-77541182D01*
X156504682Y-77541182D02*
X156558557Y-77541182D01*
X156558557Y-77541182D02*
X156639369Y-77514245D01*
X156639369Y-77514245D02*
X156854868Y-77298746D01*
X156073683Y-77595057D02*
X156019809Y-77595057D01*
X156019809Y-77595057D02*
X155938996Y-77621995D01*
X155938996Y-77621995D02*
X155804309Y-77756682D01*
X155804309Y-77756682D02*
X155777372Y-77837494D01*
X155777372Y-77837494D02*
X155777372Y-77891369D01*
X155777372Y-77891369D02*
X155804309Y-77972181D01*
X155804309Y-77972181D02*
X155858184Y-78026056D01*
X155858184Y-78026056D02*
X155965934Y-78079930D01*
X155965934Y-78079930D02*
X156612431Y-78079930D01*
X156612431Y-78079930D02*
X156262245Y-78430117D01*
X155615747Y-78430117D02*
X155642685Y-78349305D01*
X155642685Y-78349305D02*
X155642685Y-78295430D01*
X155642685Y-78295430D02*
X155615747Y-78214618D01*
X155615747Y-78214618D02*
X155588810Y-78187680D01*
X155588810Y-78187680D02*
X155507998Y-78160743D01*
X155507998Y-78160743D02*
X155454123Y-78160743D01*
X155454123Y-78160743D02*
X155373311Y-78187680D01*
X155373311Y-78187680D02*
X155265561Y-78295430D01*
X155265561Y-78295430D02*
X155238624Y-78376242D01*
X155238624Y-78376242D02*
X155238624Y-78430117D01*
X155238624Y-78430117D02*
X155265561Y-78510929D01*
X155265561Y-78510929D02*
X155292499Y-78537866D01*
X155292499Y-78537866D02*
X155373311Y-78564804D01*
X155373311Y-78564804D02*
X155427186Y-78564804D01*
X155427186Y-78564804D02*
X155507998Y-78537866D01*
X155507998Y-78537866D02*
X155615747Y-78430117D01*
X155615747Y-78430117D02*
X155696560Y-78403179D01*
X155696560Y-78403179D02*
X155750434Y-78403179D01*
X155750434Y-78403179D02*
X155831247Y-78430117D01*
X155831247Y-78430117D02*
X155938996Y-78537866D01*
X155938996Y-78537866D02*
X155965934Y-78618679D01*
X155965934Y-78618679D02*
X155965934Y-78672553D01*
X155965934Y-78672553D02*
X155938996Y-78753366D01*
X155938996Y-78753366D02*
X155831247Y-78861115D01*
X155831247Y-78861115D02*
X155750434Y-78888053D01*
X155750434Y-78888053D02*
X155696560Y-78888053D01*
X155696560Y-78888053D02*
X155615747Y-78861115D01*
X155615747Y-78861115D02*
X155507998Y-78753366D01*
X155507998Y-78753366D02*
X155481060Y-78672553D01*
X155481060Y-78672553D02*
X155481060Y-78618679D01*
X155481060Y-78618679D02*
X155507998Y-78537866D01*
X143631494Y-100532372D02*
X143658431Y-100451560D01*
X143658431Y-100451560D02*
X143739243Y-100370748D01*
X143739243Y-100370748D02*
X143846993Y-100316873D01*
X143846993Y-100316873D02*
X143954742Y-100316873D01*
X143954742Y-100316873D02*
X144035555Y-100343810D01*
X144035555Y-100343810D02*
X144170242Y-100424623D01*
X144170242Y-100424623D02*
X144251054Y-100505435D01*
X144251054Y-100505435D02*
X144331866Y-100640122D01*
X144331866Y-100640122D02*
X144358803Y-100720934D01*
X144358803Y-100720934D02*
X144358803Y-100828684D01*
X144358803Y-100828684D02*
X144304929Y-100936433D01*
X144304929Y-100936433D02*
X144251054Y-100990308D01*
X144251054Y-100990308D02*
X144143304Y-101044183D01*
X144143304Y-101044183D02*
X144089429Y-101044183D01*
X144089429Y-101044183D02*
X143900868Y-100855621D01*
X143900868Y-100855621D02*
X144008617Y-100747871D01*
X143900868Y-101340494D02*
X143335182Y-100774809D01*
X143335182Y-100774809D02*
X143119683Y-100990308D01*
X143119683Y-100990308D02*
X143092746Y-101071120D01*
X143092746Y-101071120D02*
X143092746Y-101124995D01*
X143092746Y-101124995D02*
X143119683Y-101205807D01*
X143119683Y-101205807D02*
X143200495Y-101286619D01*
X143200495Y-101286619D02*
X143281307Y-101313557D01*
X143281307Y-101313557D02*
X143335182Y-101313557D01*
X143335182Y-101313557D02*
X143415994Y-101286619D01*
X143415994Y-101286619D02*
X143631494Y-101071120D01*
X143308245Y-101933117D02*
X143200495Y-102040867D01*
X143200495Y-102040867D02*
X143119683Y-102067804D01*
X143119683Y-102067804D02*
X143065808Y-102067804D01*
X143065808Y-102067804D02*
X142931121Y-102040867D01*
X142931121Y-102040867D02*
X142796434Y-101960054D01*
X142796434Y-101960054D02*
X142580935Y-101744555D01*
X142580935Y-101744555D02*
X142553998Y-101663743D01*
X142553998Y-101663743D02*
X142553998Y-101609868D01*
X142553998Y-101609868D02*
X142580935Y-101529056D01*
X142580935Y-101529056D02*
X142688685Y-101421306D01*
X142688685Y-101421306D02*
X142769497Y-101394369D01*
X142769497Y-101394369D02*
X142823372Y-101394369D01*
X142823372Y-101394369D02*
X142904184Y-101421306D01*
X142904184Y-101421306D02*
X143038871Y-101555993D01*
X143038871Y-101555993D02*
X143065808Y-101636806D01*
X143065808Y-101636806D02*
X143065808Y-101690680D01*
X143065808Y-101690680D02*
X143038871Y-101771493D01*
X143038871Y-101771493D02*
X142931121Y-101879242D01*
X142931121Y-101879242D02*
X142850309Y-101906180D01*
X142850309Y-101906180D02*
X142796434Y-101906180D01*
X142796434Y-101906180D02*
X142715622Y-101879242D01*
X156331494Y-100532372D02*
X156358431Y-100451560D01*
X156358431Y-100451560D02*
X156439243Y-100370748D01*
X156439243Y-100370748D02*
X156546993Y-100316873D01*
X156546993Y-100316873D02*
X156654742Y-100316873D01*
X156654742Y-100316873D02*
X156735555Y-100343810D01*
X156735555Y-100343810D02*
X156870242Y-100424623D01*
X156870242Y-100424623D02*
X156951054Y-100505435D01*
X156951054Y-100505435D02*
X157031866Y-100640122D01*
X157031866Y-100640122D02*
X157058803Y-100720934D01*
X157058803Y-100720934D02*
X157058803Y-100828684D01*
X157058803Y-100828684D02*
X157004929Y-100936433D01*
X157004929Y-100936433D02*
X156951054Y-100990308D01*
X156951054Y-100990308D02*
X156843304Y-101044183D01*
X156843304Y-101044183D02*
X156789429Y-101044183D01*
X156789429Y-101044183D02*
X156600868Y-100855621D01*
X156600868Y-100855621D02*
X156708617Y-100747871D01*
X156600868Y-101340494D02*
X156035182Y-100774809D01*
X156035182Y-100774809D02*
X155819683Y-100990308D01*
X155819683Y-100990308D02*
X155792746Y-101071120D01*
X155792746Y-101071120D02*
X155792746Y-101124995D01*
X155792746Y-101124995D02*
X155819683Y-101205807D01*
X155819683Y-101205807D02*
X155900495Y-101286619D01*
X155900495Y-101286619D02*
X155981307Y-101313557D01*
X155981307Y-101313557D02*
X156035182Y-101313557D01*
X156035182Y-101313557D02*
X156115994Y-101286619D01*
X156115994Y-101286619D02*
X156331494Y-101071120D01*
X155200123Y-101609868D02*
X155469497Y-101340494D01*
X155469497Y-101340494D02*
X155765808Y-101582931D01*
X155765808Y-101582931D02*
X155711933Y-101582931D01*
X155711933Y-101582931D02*
X155631121Y-101609868D01*
X155631121Y-101609868D02*
X155496434Y-101744555D01*
X155496434Y-101744555D02*
X155469497Y-101825367D01*
X155469497Y-101825367D02*
X155469497Y-101879242D01*
X155469497Y-101879242D02*
X155496434Y-101960054D01*
X155496434Y-101960054D02*
X155631121Y-102094741D01*
X155631121Y-102094741D02*
X155711933Y-102121679D01*
X155711933Y-102121679D02*
X155765808Y-102121679D01*
X155765808Y-102121679D02*
X155846620Y-102094741D01*
X155846620Y-102094741D02*
X155981307Y-101960054D01*
X155981307Y-101960054D02*
X156008245Y-101879242D01*
X156008245Y-101879242D02*
X156008245Y-101825367D01*
X171571494Y-100432372D02*
X171598431Y-100351560D01*
X171598431Y-100351560D02*
X171679243Y-100270748D01*
X171679243Y-100270748D02*
X171786993Y-100216873D01*
X171786993Y-100216873D02*
X171894742Y-100216873D01*
X171894742Y-100216873D02*
X171975555Y-100243810D01*
X171975555Y-100243810D02*
X172110242Y-100324623D01*
X172110242Y-100324623D02*
X172191054Y-100405435D01*
X172191054Y-100405435D02*
X172271866Y-100540122D01*
X172271866Y-100540122D02*
X172298803Y-100620934D01*
X172298803Y-100620934D02*
X172298803Y-100728684D01*
X172298803Y-100728684D02*
X172244929Y-100836433D01*
X172244929Y-100836433D02*
X172191054Y-100890308D01*
X172191054Y-100890308D02*
X172083304Y-100944183D01*
X172083304Y-100944183D02*
X172029429Y-100944183D01*
X172029429Y-100944183D02*
X171840868Y-100755621D01*
X171840868Y-100755621D02*
X171948617Y-100647871D01*
X171840868Y-101240494D02*
X171275182Y-100674809D01*
X171275182Y-100674809D02*
X171059683Y-100890308D01*
X171059683Y-100890308D02*
X171032746Y-100971120D01*
X171032746Y-100971120D02*
X171032746Y-101024995D01*
X171032746Y-101024995D02*
X171059683Y-101105807D01*
X171059683Y-101105807D02*
X171140495Y-101186619D01*
X171140495Y-101186619D02*
X171221307Y-101213557D01*
X171221307Y-101213557D02*
X171275182Y-101213557D01*
X171275182Y-101213557D02*
X171355994Y-101186619D01*
X171355994Y-101186619D02*
X171571494Y-100971120D01*
X170601747Y-101348244D02*
X170547872Y-101402119D01*
X170547872Y-101402119D02*
X170520935Y-101482931D01*
X170520935Y-101482931D02*
X170520935Y-101536806D01*
X170520935Y-101536806D02*
X170547872Y-101617618D01*
X170547872Y-101617618D02*
X170628685Y-101752305D01*
X170628685Y-101752305D02*
X170763372Y-101886992D01*
X170763372Y-101886992D02*
X170898059Y-101967804D01*
X170898059Y-101967804D02*
X170978871Y-101994741D01*
X170978871Y-101994741D02*
X171032746Y-101994741D01*
X171032746Y-101994741D02*
X171113558Y-101967804D01*
X171113558Y-101967804D02*
X171167433Y-101913929D01*
X171167433Y-101913929D02*
X171194370Y-101833117D01*
X171194370Y-101833117D02*
X171194370Y-101779242D01*
X171194370Y-101779242D02*
X171167433Y-101698430D01*
X171167433Y-101698430D02*
X171086620Y-101563743D01*
X171086620Y-101563743D02*
X170951933Y-101429056D01*
X170951933Y-101429056D02*
X170817246Y-101348244D01*
X170817246Y-101348244D02*
X170736434Y-101321306D01*
X170736434Y-101321306D02*
X170682559Y-101321306D01*
X170682559Y-101321306D02*
X170601747Y-101348244D01*
X161411494Y-100532372D02*
X161438431Y-100451560D01*
X161438431Y-100451560D02*
X161519243Y-100370748D01*
X161519243Y-100370748D02*
X161626993Y-100316873D01*
X161626993Y-100316873D02*
X161734742Y-100316873D01*
X161734742Y-100316873D02*
X161815555Y-100343810D01*
X161815555Y-100343810D02*
X161950242Y-100424623D01*
X161950242Y-100424623D02*
X162031054Y-100505435D01*
X162031054Y-100505435D02*
X162111866Y-100640122D01*
X162111866Y-100640122D02*
X162138803Y-100720934D01*
X162138803Y-100720934D02*
X162138803Y-100828684D01*
X162138803Y-100828684D02*
X162084929Y-100936433D01*
X162084929Y-100936433D02*
X162031054Y-100990308D01*
X162031054Y-100990308D02*
X161923304Y-101044183D01*
X161923304Y-101044183D02*
X161869429Y-101044183D01*
X161869429Y-101044183D02*
X161680868Y-100855621D01*
X161680868Y-100855621D02*
X161788617Y-100747871D01*
X161680868Y-101340494D02*
X161115182Y-100774809D01*
X161115182Y-100774809D02*
X160899683Y-100990308D01*
X160899683Y-100990308D02*
X160872746Y-101071120D01*
X160872746Y-101071120D02*
X160872746Y-101124995D01*
X160872746Y-101124995D02*
X160899683Y-101205807D01*
X160899683Y-101205807D02*
X160980495Y-101286619D01*
X160980495Y-101286619D02*
X161061307Y-101313557D01*
X161061307Y-101313557D02*
X161115182Y-101313557D01*
X161115182Y-101313557D02*
X161195994Y-101286619D01*
X161195994Y-101286619D02*
X161411494Y-101071120D01*
X160603372Y-101286619D02*
X160253185Y-101636806D01*
X160253185Y-101636806D02*
X160657246Y-101663743D01*
X160657246Y-101663743D02*
X160576434Y-101744555D01*
X160576434Y-101744555D02*
X160549497Y-101825367D01*
X160549497Y-101825367D02*
X160549497Y-101879242D01*
X160549497Y-101879242D02*
X160576434Y-101960054D01*
X160576434Y-101960054D02*
X160711121Y-102094741D01*
X160711121Y-102094741D02*
X160791933Y-102121679D01*
X160791933Y-102121679D02*
X160845808Y-102121679D01*
X160845808Y-102121679D02*
X160926620Y-102094741D01*
X160926620Y-102094741D02*
X161088245Y-101933117D01*
X161088245Y-101933117D02*
X161115182Y-101852305D01*
X161115182Y-101852305D02*
X161115182Y-101798430D01*
X128418431Y-100505435D02*
X128445368Y-100424623D01*
X128445368Y-100424623D02*
X128526180Y-100343811D01*
X128526180Y-100343811D02*
X128633930Y-100289936D01*
X128633930Y-100289936D02*
X128741680Y-100289936D01*
X128741680Y-100289936D02*
X128822492Y-100316873D01*
X128822492Y-100316873D02*
X128957179Y-100397685D01*
X128957179Y-100397685D02*
X129037991Y-100478498D01*
X129037991Y-100478498D02*
X129118803Y-100613185D01*
X129118803Y-100613185D02*
X129145741Y-100693997D01*
X129145741Y-100693997D02*
X129145741Y-100801746D01*
X129145741Y-100801746D02*
X129091866Y-100909496D01*
X129091866Y-100909496D02*
X129037991Y-100963371D01*
X129037991Y-100963371D02*
X128930241Y-101017246D01*
X128930241Y-101017246D02*
X128876367Y-101017246D01*
X128876367Y-101017246D02*
X128687805Y-100828684D01*
X128687805Y-100828684D02*
X128795554Y-100720934D01*
X128687805Y-101313557D02*
X128122119Y-100747872D01*
X128122119Y-100747872D02*
X128364556Y-101636806D01*
X128364556Y-101636806D02*
X127798871Y-101071120D01*
X128095182Y-101906180D02*
X127529497Y-101340494D01*
X127529497Y-101340494D02*
X127394810Y-101475181D01*
X127394810Y-101475181D02*
X127340935Y-101582931D01*
X127340935Y-101582931D02*
X127340935Y-101690680D01*
X127340935Y-101690680D02*
X127367872Y-101771493D01*
X127367872Y-101771493D02*
X127448685Y-101906180D01*
X127448685Y-101906180D02*
X127529497Y-101986992D01*
X127529497Y-101986992D02*
X127664184Y-102067804D01*
X127664184Y-102067804D02*
X127744996Y-102094741D01*
X127744996Y-102094741D02*
X127852746Y-102094741D01*
X127852746Y-102094741D02*
X127960495Y-102040867D01*
X127960495Y-102040867D02*
X128095182Y-101906180D01*
X166518431Y-100505435D02*
X166545368Y-100424623D01*
X166545368Y-100424623D02*
X166626180Y-100343811D01*
X166626180Y-100343811D02*
X166733930Y-100289936D01*
X166733930Y-100289936D02*
X166841680Y-100289936D01*
X166841680Y-100289936D02*
X166922492Y-100316873D01*
X166922492Y-100316873D02*
X167057179Y-100397685D01*
X167057179Y-100397685D02*
X167137991Y-100478498D01*
X167137991Y-100478498D02*
X167218803Y-100613185D01*
X167218803Y-100613185D02*
X167245741Y-100693997D01*
X167245741Y-100693997D02*
X167245741Y-100801746D01*
X167245741Y-100801746D02*
X167191866Y-100909496D01*
X167191866Y-100909496D02*
X167137991Y-100963371D01*
X167137991Y-100963371D02*
X167030241Y-101017246D01*
X167030241Y-101017246D02*
X166976367Y-101017246D01*
X166976367Y-101017246D02*
X166787805Y-100828684D01*
X166787805Y-100828684D02*
X166895554Y-100720934D01*
X166787805Y-101313557D02*
X166222119Y-100747872D01*
X166222119Y-100747872D02*
X166464556Y-101636806D01*
X166464556Y-101636806D02*
X165898871Y-101071120D01*
X166195182Y-101906180D02*
X165629497Y-101340494D01*
X165629497Y-101340494D02*
X165494810Y-101475181D01*
X165494810Y-101475181D02*
X165440935Y-101582931D01*
X165440935Y-101582931D02*
X165440935Y-101690680D01*
X165440935Y-101690680D02*
X165467872Y-101771493D01*
X165467872Y-101771493D02*
X165548685Y-101906180D01*
X165548685Y-101906180D02*
X165629497Y-101986992D01*
X165629497Y-101986992D02*
X165764184Y-102067804D01*
X165764184Y-102067804D02*
X165844996Y-102094741D01*
X165844996Y-102094741D02*
X165952746Y-102094741D01*
X165952746Y-102094741D02*
X166060495Y-102040867D01*
X166060495Y-102040867D02*
X166195182Y-101906180D01*
X136280868Y-76759998D02*
X136307805Y-76679185D01*
X136307805Y-76679185D02*
X136388618Y-76598373D01*
X136388618Y-76598373D02*
X136496367Y-76544498D01*
X136496367Y-76544498D02*
X136604117Y-76544498D01*
X136604117Y-76544498D02*
X136684929Y-76571436D01*
X136684929Y-76571436D02*
X136819616Y-76652248D01*
X136819616Y-76652248D02*
X136900428Y-76733060D01*
X136900428Y-76733060D02*
X136981241Y-76867747D01*
X136981241Y-76867747D02*
X137008178Y-76948560D01*
X137008178Y-76948560D02*
X137008178Y-77056309D01*
X137008178Y-77056309D02*
X136954303Y-77164059D01*
X136954303Y-77164059D02*
X136900428Y-77217934D01*
X136900428Y-77217934D02*
X136792679Y-77271808D01*
X136792679Y-77271808D02*
X136738804Y-77271808D01*
X136738804Y-77271808D02*
X136550242Y-77083247D01*
X136550242Y-77083247D02*
X136657992Y-76975497D01*
X136550242Y-77568120D02*
X135984557Y-77002434D01*
X135984557Y-77002434D02*
X135769057Y-77217934D01*
X135769057Y-77217934D02*
X135742120Y-77298746D01*
X135742120Y-77298746D02*
X135742120Y-77352621D01*
X135742120Y-77352621D02*
X135769057Y-77433433D01*
X135769057Y-77433433D02*
X135849870Y-77514245D01*
X135849870Y-77514245D02*
X135930682Y-77541182D01*
X135930682Y-77541182D02*
X135984557Y-77541182D01*
X135984557Y-77541182D02*
X136065369Y-77514245D01*
X136065369Y-77514245D02*
X136280868Y-77298746D01*
X135499683Y-77595057D02*
X135445809Y-77595057D01*
X135445809Y-77595057D02*
X135364996Y-77621995D01*
X135364996Y-77621995D02*
X135230309Y-77756682D01*
X135230309Y-77756682D02*
X135203372Y-77837494D01*
X135203372Y-77837494D02*
X135203372Y-77891369D01*
X135203372Y-77891369D02*
X135230309Y-77972181D01*
X135230309Y-77972181D02*
X135284184Y-78026056D01*
X135284184Y-78026056D02*
X135391934Y-78079930D01*
X135391934Y-78079930D02*
X136038431Y-78079930D01*
X136038431Y-78079930D02*
X135688245Y-78430117D01*
X134772373Y-78214618D02*
X134718499Y-78268492D01*
X134718499Y-78268492D02*
X134691561Y-78349305D01*
X134691561Y-78349305D02*
X134691561Y-78403179D01*
X134691561Y-78403179D02*
X134718499Y-78483992D01*
X134718499Y-78483992D02*
X134799311Y-78618679D01*
X134799311Y-78618679D02*
X134933998Y-78753366D01*
X134933998Y-78753366D02*
X135068685Y-78834178D01*
X135068685Y-78834178D02*
X135149497Y-78861115D01*
X135149497Y-78861115D02*
X135203372Y-78861115D01*
X135203372Y-78861115D02*
X135284184Y-78834178D01*
X135284184Y-78834178D02*
X135338059Y-78780303D01*
X135338059Y-78780303D02*
X135364996Y-78699491D01*
X135364996Y-78699491D02*
X135364996Y-78645616D01*
X135364996Y-78645616D02*
X135338059Y-78564804D01*
X135338059Y-78564804D02*
X135257247Y-78430117D01*
X135257247Y-78430117D02*
X135122560Y-78295430D01*
X135122560Y-78295430D02*
X134987873Y-78214618D01*
X134987873Y-78214618D02*
X134907060Y-78187680D01*
X134907060Y-78187680D02*
X134853186Y-78187680D01*
X134853186Y-78187680D02*
X134772373Y-78214618D01*
X133740868Y-76759998D02*
X133767805Y-76679185D01*
X133767805Y-76679185D02*
X133848618Y-76598373D01*
X133848618Y-76598373D02*
X133956367Y-76544498D01*
X133956367Y-76544498D02*
X134064117Y-76544498D01*
X134064117Y-76544498D02*
X134144929Y-76571436D01*
X134144929Y-76571436D02*
X134279616Y-76652248D01*
X134279616Y-76652248D02*
X134360428Y-76733060D01*
X134360428Y-76733060D02*
X134441241Y-76867747D01*
X134441241Y-76867747D02*
X134468178Y-76948560D01*
X134468178Y-76948560D02*
X134468178Y-77056309D01*
X134468178Y-77056309D02*
X134414303Y-77164059D01*
X134414303Y-77164059D02*
X134360428Y-77217934D01*
X134360428Y-77217934D02*
X134252679Y-77271808D01*
X134252679Y-77271808D02*
X134198804Y-77271808D01*
X134198804Y-77271808D02*
X134010242Y-77083247D01*
X134010242Y-77083247D02*
X134117992Y-76975497D01*
X134010242Y-77568120D02*
X133444557Y-77002434D01*
X133444557Y-77002434D02*
X133229057Y-77217934D01*
X133229057Y-77217934D02*
X133202120Y-77298746D01*
X133202120Y-77298746D02*
X133202120Y-77352621D01*
X133202120Y-77352621D02*
X133229057Y-77433433D01*
X133229057Y-77433433D02*
X133309870Y-77514245D01*
X133309870Y-77514245D02*
X133390682Y-77541182D01*
X133390682Y-77541182D02*
X133444557Y-77541182D01*
X133444557Y-77541182D02*
X133525369Y-77514245D01*
X133525369Y-77514245D02*
X133740868Y-77298746D01*
X133148245Y-78430117D02*
X133471494Y-78106868D01*
X133309870Y-78268492D02*
X132744184Y-77702807D01*
X132744184Y-77702807D02*
X132878871Y-77729744D01*
X132878871Y-77729744D02*
X132986621Y-77729744D01*
X132986621Y-77729744D02*
X133067433Y-77702807D01*
X132878871Y-78699491D02*
X132771121Y-78807240D01*
X132771121Y-78807240D02*
X132690309Y-78834178D01*
X132690309Y-78834178D02*
X132636434Y-78834178D01*
X132636434Y-78834178D02*
X132501747Y-78807240D01*
X132501747Y-78807240D02*
X132367060Y-78726428D01*
X132367060Y-78726428D02*
X132151561Y-78510929D01*
X132151561Y-78510929D02*
X132124624Y-78430117D01*
X132124624Y-78430117D02*
X132124624Y-78376242D01*
X132124624Y-78376242D02*
X132151561Y-78295430D01*
X132151561Y-78295430D02*
X132259311Y-78187680D01*
X132259311Y-78187680D02*
X132340123Y-78160743D01*
X132340123Y-78160743D02*
X132393998Y-78160743D01*
X132393998Y-78160743D02*
X132474810Y-78187680D01*
X132474810Y-78187680D02*
X132609497Y-78322367D01*
X132609497Y-78322367D02*
X132636434Y-78403179D01*
X132636434Y-78403179D02*
X132636434Y-78457054D01*
X132636434Y-78457054D02*
X132609497Y-78537866D01*
X132609497Y-78537866D02*
X132501747Y-78645616D01*
X132501747Y-78645616D02*
X132420935Y-78672553D01*
X132420935Y-78672553D02*
X132367060Y-78672553D01*
X132367060Y-78672553D02*
X132286248Y-78645616D01*
X163951494Y-100632372D02*
X163978431Y-100551560D01*
X163978431Y-100551560D02*
X164059243Y-100470748D01*
X164059243Y-100470748D02*
X164166993Y-100416873D01*
X164166993Y-100416873D02*
X164274742Y-100416873D01*
X164274742Y-100416873D02*
X164355555Y-100443810D01*
X164355555Y-100443810D02*
X164490242Y-100524623D01*
X164490242Y-100524623D02*
X164571054Y-100605435D01*
X164571054Y-100605435D02*
X164651866Y-100740122D01*
X164651866Y-100740122D02*
X164678803Y-100820934D01*
X164678803Y-100820934D02*
X164678803Y-100928684D01*
X164678803Y-100928684D02*
X164624929Y-101036433D01*
X164624929Y-101036433D02*
X164571054Y-101090308D01*
X164571054Y-101090308D02*
X164463304Y-101144183D01*
X164463304Y-101144183D02*
X164409429Y-101144183D01*
X164409429Y-101144183D02*
X164220868Y-100955621D01*
X164220868Y-100955621D02*
X164328617Y-100847871D01*
X164220868Y-101440494D02*
X163655182Y-100874809D01*
X163655182Y-100874809D02*
X163439683Y-101090308D01*
X163439683Y-101090308D02*
X163412746Y-101171120D01*
X163412746Y-101171120D02*
X163412746Y-101224995D01*
X163412746Y-101224995D02*
X163439683Y-101305807D01*
X163439683Y-101305807D02*
X163520495Y-101386619D01*
X163520495Y-101386619D02*
X163601307Y-101413557D01*
X163601307Y-101413557D02*
X163655182Y-101413557D01*
X163655182Y-101413557D02*
X163735994Y-101386619D01*
X163735994Y-101386619D02*
X163951494Y-101171120D01*
X163170309Y-101467432D02*
X163116434Y-101467432D01*
X163116434Y-101467432D02*
X163035622Y-101494369D01*
X163035622Y-101494369D02*
X162900935Y-101629056D01*
X162900935Y-101629056D02*
X162873998Y-101709868D01*
X162873998Y-101709868D02*
X162873998Y-101763743D01*
X162873998Y-101763743D02*
X162900935Y-101844555D01*
X162900935Y-101844555D02*
X162954810Y-101898430D01*
X162954810Y-101898430D02*
X163062559Y-101952305D01*
X163062559Y-101952305D02*
X163709057Y-101952305D01*
X163709057Y-101952305D02*
X163358871Y-102302491D01*
X131200868Y-76759998D02*
X131227805Y-76679185D01*
X131227805Y-76679185D02*
X131308618Y-76598373D01*
X131308618Y-76598373D02*
X131416367Y-76544498D01*
X131416367Y-76544498D02*
X131524117Y-76544498D01*
X131524117Y-76544498D02*
X131604929Y-76571436D01*
X131604929Y-76571436D02*
X131739616Y-76652248D01*
X131739616Y-76652248D02*
X131820428Y-76733060D01*
X131820428Y-76733060D02*
X131901241Y-76867747D01*
X131901241Y-76867747D02*
X131928178Y-76948560D01*
X131928178Y-76948560D02*
X131928178Y-77056309D01*
X131928178Y-77056309D02*
X131874303Y-77164059D01*
X131874303Y-77164059D02*
X131820428Y-77217934D01*
X131820428Y-77217934D02*
X131712679Y-77271808D01*
X131712679Y-77271808D02*
X131658804Y-77271808D01*
X131658804Y-77271808D02*
X131470242Y-77083247D01*
X131470242Y-77083247D02*
X131577992Y-76975497D01*
X131470242Y-77568120D02*
X130904557Y-77002434D01*
X130904557Y-77002434D02*
X130689057Y-77217934D01*
X130689057Y-77217934D02*
X130662120Y-77298746D01*
X130662120Y-77298746D02*
X130662120Y-77352621D01*
X130662120Y-77352621D02*
X130689057Y-77433433D01*
X130689057Y-77433433D02*
X130769870Y-77514245D01*
X130769870Y-77514245D02*
X130850682Y-77541182D01*
X130850682Y-77541182D02*
X130904557Y-77541182D01*
X130904557Y-77541182D02*
X130985369Y-77514245D01*
X130985369Y-77514245D02*
X131200868Y-77298746D01*
X130608245Y-78430117D02*
X130931494Y-78106868D01*
X130769870Y-78268492D02*
X130204184Y-77702807D01*
X130204184Y-77702807D02*
X130338871Y-77729744D01*
X130338871Y-77729744D02*
X130446621Y-77729744D01*
X130446621Y-77729744D02*
X130527433Y-77702807D01*
X129961747Y-78430117D02*
X129988685Y-78349305D01*
X129988685Y-78349305D02*
X129988685Y-78295430D01*
X129988685Y-78295430D02*
X129961747Y-78214618D01*
X129961747Y-78214618D02*
X129934810Y-78187680D01*
X129934810Y-78187680D02*
X129853998Y-78160743D01*
X129853998Y-78160743D02*
X129800123Y-78160743D01*
X129800123Y-78160743D02*
X129719311Y-78187680D01*
X129719311Y-78187680D02*
X129611561Y-78295430D01*
X129611561Y-78295430D02*
X129584624Y-78376242D01*
X129584624Y-78376242D02*
X129584624Y-78430117D01*
X129584624Y-78430117D02*
X129611561Y-78510929D01*
X129611561Y-78510929D02*
X129638499Y-78537866D01*
X129638499Y-78537866D02*
X129719311Y-78564804D01*
X129719311Y-78564804D02*
X129773186Y-78564804D01*
X129773186Y-78564804D02*
X129853998Y-78537866D01*
X129853998Y-78537866D02*
X129961747Y-78430117D01*
X129961747Y-78430117D02*
X130042560Y-78403179D01*
X130042560Y-78403179D02*
X130096434Y-78403179D01*
X130096434Y-78403179D02*
X130177247Y-78430117D01*
X130177247Y-78430117D02*
X130284996Y-78537866D01*
X130284996Y-78537866D02*
X130311934Y-78618679D01*
X130311934Y-78618679D02*
X130311934Y-78672553D01*
X130311934Y-78672553D02*
X130284996Y-78753366D01*
X130284996Y-78753366D02*
X130177247Y-78861115D01*
X130177247Y-78861115D02*
X130096434Y-78888053D01*
X130096434Y-78888053D02*
X130042560Y-78888053D01*
X130042560Y-78888053D02*
X129961747Y-78861115D01*
X129961747Y-78861115D02*
X129853998Y-78753366D01*
X129853998Y-78753366D02*
X129827060Y-78672553D01*
X129827060Y-78672553D02*
X129827060Y-78618679D01*
X129827060Y-78618679D02*
X129853998Y-78537866D01*
X151251494Y-100532372D02*
X151278431Y-100451560D01*
X151278431Y-100451560D02*
X151359243Y-100370748D01*
X151359243Y-100370748D02*
X151466993Y-100316873D01*
X151466993Y-100316873D02*
X151574742Y-100316873D01*
X151574742Y-100316873D02*
X151655555Y-100343810D01*
X151655555Y-100343810D02*
X151790242Y-100424623D01*
X151790242Y-100424623D02*
X151871054Y-100505435D01*
X151871054Y-100505435D02*
X151951866Y-100640122D01*
X151951866Y-100640122D02*
X151978803Y-100720934D01*
X151978803Y-100720934D02*
X151978803Y-100828684D01*
X151978803Y-100828684D02*
X151924929Y-100936433D01*
X151924929Y-100936433D02*
X151871054Y-100990308D01*
X151871054Y-100990308D02*
X151763304Y-101044183D01*
X151763304Y-101044183D02*
X151709429Y-101044183D01*
X151709429Y-101044183D02*
X151520868Y-100855621D01*
X151520868Y-100855621D02*
X151628617Y-100747871D01*
X151520868Y-101340494D02*
X150955182Y-100774809D01*
X150955182Y-100774809D02*
X150739683Y-100990308D01*
X150739683Y-100990308D02*
X150712746Y-101071120D01*
X150712746Y-101071120D02*
X150712746Y-101124995D01*
X150712746Y-101124995D02*
X150739683Y-101205807D01*
X150739683Y-101205807D02*
X150820495Y-101286619D01*
X150820495Y-101286619D02*
X150901307Y-101313557D01*
X150901307Y-101313557D02*
X150955182Y-101313557D01*
X150955182Y-101313557D02*
X151035994Y-101286619D01*
X151035994Y-101286619D02*
X151251494Y-101071120D01*
X150147060Y-101582931D02*
X150254810Y-101475181D01*
X150254810Y-101475181D02*
X150335622Y-101448244D01*
X150335622Y-101448244D02*
X150389497Y-101448244D01*
X150389497Y-101448244D02*
X150524184Y-101475181D01*
X150524184Y-101475181D02*
X150658871Y-101555993D01*
X150658871Y-101555993D02*
X150874370Y-101771493D01*
X150874370Y-101771493D02*
X150901307Y-101852305D01*
X150901307Y-101852305D02*
X150901307Y-101906180D01*
X150901307Y-101906180D02*
X150874370Y-101986992D01*
X150874370Y-101986992D02*
X150766620Y-102094741D01*
X150766620Y-102094741D02*
X150685808Y-102121679D01*
X150685808Y-102121679D02*
X150631933Y-102121679D01*
X150631933Y-102121679D02*
X150551121Y-102094741D01*
X150551121Y-102094741D02*
X150416434Y-101960054D01*
X150416434Y-101960054D02*
X150389497Y-101879242D01*
X150389497Y-101879242D02*
X150389497Y-101825367D01*
X150389497Y-101825367D02*
X150416434Y-101744555D01*
X150416434Y-101744555D02*
X150524184Y-101636806D01*
X150524184Y-101636806D02*
X150604996Y-101609868D01*
X150604996Y-101609868D02*
X150658871Y-101609868D01*
X150658871Y-101609868D02*
X150739683Y-101636806D01*
X138810868Y-76759998D02*
X138837805Y-76679185D01*
X138837805Y-76679185D02*
X138918618Y-76598373D01*
X138918618Y-76598373D02*
X139026367Y-76544498D01*
X139026367Y-76544498D02*
X139134117Y-76544498D01*
X139134117Y-76544498D02*
X139214929Y-76571436D01*
X139214929Y-76571436D02*
X139349616Y-76652248D01*
X139349616Y-76652248D02*
X139430428Y-76733060D01*
X139430428Y-76733060D02*
X139511241Y-76867747D01*
X139511241Y-76867747D02*
X139538178Y-76948560D01*
X139538178Y-76948560D02*
X139538178Y-77056309D01*
X139538178Y-77056309D02*
X139484303Y-77164059D01*
X139484303Y-77164059D02*
X139430428Y-77217934D01*
X139430428Y-77217934D02*
X139322679Y-77271808D01*
X139322679Y-77271808D02*
X139268804Y-77271808D01*
X139268804Y-77271808D02*
X139080242Y-77083247D01*
X139080242Y-77083247D02*
X139187992Y-76975497D01*
X139080242Y-77568120D02*
X138514557Y-77002434D01*
X138514557Y-77002434D02*
X138299057Y-77217934D01*
X138299057Y-77217934D02*
X138272120Y-77298746D01*
X138272120Y-77298746D02*
X138272120Y-77352621D01*
X138272120Y-77352621D02*
X138299057Y-77433433D01*
X138299057Y-77433433D02*
X138379870Y-77514245D01*
X138379870Y-77514245D02*
X138460682Y-77541182D01*
X138460682Y-77541182D02*
X138514557Y-77541182D01*
X138514557Y-77541182D02*
X138595369Y-77514245D01*
X138595369Y-77514245D02*
X138810868Y-77298746D01*
X138029683Y-77595057D02*
X137975809Y-77595057D01*
X137975809Y-77595057D02*
X137894996Y-77621995D01*
X137894996Y-77621995D02*
X137760309Y-77756682D01*
X137760309Y-77756682D02*
X137733372Y-77837494D01*
X137733372Y-77837494D02*
X137733372Y-77891369D01*
X137733372Y-77891369D02*
X137760309Y-77972181D01*
X137760309Y-77972181D02*
X137814184Y-78026056D01*
X137814184Y-78026056D02*
X137921934Y-78079930D01*
X137921934Y-78079930D02*
X138568431Y-78079930D01*
X138568431Y-78079930D02*
X138218245Y-78430117D01*
X137679497Y-78968865D02*
X138002746Y-78645616D01*
X137841121Y-78807240D02*
X137275436Y-78241555D01*
X137275436Y-78241555D02*
X137410123Y-78268492D01*
X137410123Y-78268492D02*
X137517873Y-78268492D01*
X137517873Y-78268492D02*
X137598685Y-78241555D01*
X143900868Y-76759998D02*
X143927805Y-76679185D01*
X143927805Y-76679185D02*
X144008618Y-76598373D01*
X144008618Y-76598373D02*
X144116367Y-76544498D01*
X144116367Y-76544498D02*
X144224117Y-76544498D01*
X144224117Y-76544498D02*
X144304929Y-76571436D01*
X144304929Y-76571436D02*
X144439616Y-76652248D01*
X144439616Y-76652248D02*
X144520428Y-76733060D01*
X144520428Y-76733060D02*
X144601241Y-76867747D01*
X144601241Y-76867747D02*
X144628178Y-76948560D01*
X144628178Y-76948560D02*
X144628178Y-77056309D01*
X144628178Y-77056309D02*
X144574303Y-77164059D01*
X144574303Y-77164059D02*
X144520428Y-77217934D01*
X144520428Y-77217934D02*
X144412679Y-77271808D01*
X144412679Y-77271808D02*
X144358804Y-77271808D01*
X144358804Y-77271808D02*
X144170242Y-77083247D01*
X144170242Y-77083247D02*
X144277992Y-76975497D01*
X144170242Y-77568120D02*
X143604557Y-77002434D01*
X143604557Y-77002434D02*
X143389057Y-77217934D01*
X143389057Y-77217934D02*
X143362120Y-77298746D01*
X143362120Y-77298746D02*
X143362120Y-77352621D01*
X143362120Y-77352621D02*
X143389057Y-77433433D01*
X143389057Y-77433433D02*
X143469870Y-77514245D01*
X143469870Y-77514245D02*
X143550682Y-77541182D01*
X143550682Y-77541182D02*
X143604557Y-77541182D01*
X143604557Y-77541182D02*
X143685369Y-77514245D01*
X143685369Y-77514245D02*
X143900868Y-77298746D01*
X143119683Y-77595057D02*
X143065809Y-77595057D01*
X143065809Y-77595057D02*
X142984996Y-77621995D01*
X142984996Y-77621995D02*
X142850309Y-77756682D01*
X142850309Y-77756682D02*
X142823372Y-77837494D01*
X142823372Y-77837494D02*
X142823372Y-77891369D01*
X142823372Y-77891369D02*
X142850309Y-77972181D01*
X142850309Y-77972181D02*
X142904184Y-78026056D01*
X142904184Y-78026056D02*
X143011934Y-78079930D01*
X143011934Y-78079930D02*
X143658431Y-78079930D01*
X143658431Y-78079930D02*
X143308245Y-78430117D01*
X142580935Y-78133805D02*
X142527060Y-78133805D01*
X142527060Y-78133805D02*
X142446248Y-78160743D01*
X142446248Y-78160743D02*
X142311561Y-78295430D01*
X142311561Y-78295430D02*
X142284624Y-78376242D01*
X142284624Y-78376242D02*
X142284624Y-78430117D01*
X142284624Y-78430117D02*
X142311561Y-78510929D01*
X142311561Y-78510929D02*
X142365436Y-78564804D01*
X142365436Y-78564804D02*
X142473186Y-78618679D01*
X142473186Y-78618679D02*
X143119683Y-78618679D01*
X143119683Y-78618679D02*
X142769497Y-78968865D01*
X141118431Y-100505435D02*
X141145368Y-100424623D01*
X141145368Y-100424623D02*
X141226180Y-100343811D01*
X141226180Y-100343811D02*
X141333930Y-100289936D01*
X141333930Y-100289936D02*
X141441680Y-100289936D01*
X141441680Y-100289936D02*
X141522492Y-100316873D01*
X141522492Y-100316873D02*
X141657179Y-100397685D01*
X141657179Y-100397685D02*
X141737991Y-100478498D01*
X141737991Y-100478498D02*
X141818803Y-100613185D01*
X141818803Y-100613185D02*
X141845741Y-100693997D01*
X141845741Y-100693997D02*
X141845741Y-100801746D01*
X141845741Y-100801746D02*
X141791866Y-100909496D01*
X141791866Y-100909496D02*
X141737991Y-100963371D01*
X141737991Y-100963371D02*
X141630241Y-101017246D01*
X141630241Y-101017246D02*
X141576367Y-101017246D01*
X141576367Y-101017246D02*
X141387805Y-100828684D01*
X141387805Y-100828684D02*
X141495554Y-100720934D01*
X141387805Y-101313557D02*
X140822119Y-100747872D01*
X140822119Y-100747872D02*
X141064556Y-101636806D01*
X141064556Y-101636806D02*
X140498871Y-101071120D01*
X140795182Y-101906180D02*
X140229497Y-101340494D01*
X140229497Y-101340494D02*
X140094810Y-101475181D01*
X140094810Y-101475181D02*
X140040935Y-101582931D01*
X140040935Y-101582931D02*
X140040935Y-101690680D01*
X140040935Y-101690680D02*
X140067872Y-101771493D01*
X140067872Y-101771493D02*
X140148685Y-101906180D01*
X140148685Y-101906180D02*
X140229497Y-101986992D01*
X140229497Y-101986992D02*
X140364184Y-102067804D01*
X140364184Y-102067804D02*
X140444996Y-102094741D01*
X140444996Y-102094741D02*
X140552746Y-102094741D01*
X140552746Y-102094741D02*
X140660495Y-102040867D01*
X140660495Y-102040867D02*
X140795182Y-101906180D01*
X126120868Y-100562998D02*
X126147805Y-100482185D01*
X126147805Y-100482185D02*
X126228618Y-100401373D01*
X126228618Y-100401373D02*
X126336367Y-100347498D01*
X126336367Y-100347498D02*
X126444117Y-100347498D01*
X126444117Y-100347498D02*
X126524929Y-100374436D01*
X126524929Y-100374436D02*
X126659616Y-100455248D01*
X126659616Y-100455248D02*
X126740428Y-100536060D01*
X126740428Y-100536060D02*
X126821241Y-100670747D01*
X126821241Y-100670747D02*
X126848178Y-100751560D01*
X126848178Y-100751560D02*
X126848178Y-100859309D01*
X126848178Y-100859309D02*
X126794303Y-100967059D01*
X126794303Y-100967059D02*
X126740428Y-101020934D01*
X126740428Y-101020934D02*
X126632679Y-101074808D01*
X126632679Y-101074808D02*
X126578804Y-101074808D01*
X126578804Y-101074808D02*
X126390242Y-100886247D01*
X126390242Y-100886247D02*
X126497992Y-100778497D01*
X126390242Y-101371120D02*
X125824557Y-100805434D01*
X125824557Y-100805434D02*
X125609057Y-101020934D01*
X125609057Y-101020934D02*
X125582120Y-101101746D01*
X125582120Y-101101746D02*
X125582120Y-101155621D01*
X125582120Y-101155621D02*
X125609057Y-101236433D01*
X125609057Y-101236433D02*
X125689870Y-101317245D01*
X125689870Y-101317245D02*
X125770682Y-101344182D01*
X125770682Y-101344182D02*
X125824557Y-101344182D01*
X125824557Y-101344182D02*
X125905369Y-101317245D01*
X125905369Y-101317245D02*
X126120868Y-101101746D01*
X125528245Y-102233117D02*
X125851494Y-101909868D01*
X125689870Y-102071492D02*
X125124184Y-101505807D01*
X125124184Y-101505807D02*
X125258871Y-101532744D01*
X125258871Y-101532744D02*
X125366621Y-101532744D01*
X125366621Y-101532744D02*
X125447433Y-101505807D01*
X124666248Y-102340866D02*
X125043372Y-102717990D01*
X124585436Y-101990680D02*
X125124184Y-102260054D01*
X125124184Y-102260054D02*
X124773998Y-102610240D01*
X169570242Y-76290749D02*
X169947366Y-77044996D01*
X169947366Y-77044996D02*
X169193118Y-76667873D01*
X169570242Y-77368245D02*
X169516367Y-77475995D01*
X169516367Y-77475995D02*
X169381680Y-77610682D01*
X169381680Y-77610682D02*
X169300868Y-77637619D01*
X169300868Y-77637619D02*
X169246993Y-77637619D01*
X169246993Y-77637619D02*
X169166181Y-77610682D01*
X169166181Y-77610682D02*
X169112306Y-77556807D01*
X169112306Y-77556807D02*
X169085369Y-77475995D01*
X169085369Y-77475995D02*
X169085369Y-77422120D01*
X169085369Y-77422120D02*
X169112306Y-77341308D01*
X169112306Y-77341308D02*
X169193118Y-77206621D01*
X169193118Y-77206621D02*
X169220056Y-77125808D01*
X169220056Y-77125808D02*
X169220056Y-77071934D01*
X169220056Y-77071934D02*
X169193118Y-76991121D01*
X169193118Y-76991121D02*
X169139244Y-76937247D01*
X169139244Y-76937247D02*
X169058431Y-76910309D01*
X169058431Y-76910309D02*
X169004557Y-76910309D01*
X169004557Y-76910309D02*
X168923744Y-76937247D01*
X168923744Y-76937247D02*
X168789057Y-77071934D01*
X168789057Y-77071934D02*
X168735183Y-77179683D01*
X168654370Y-77799244D02*
X168923744Y-78068618D01*
X168546621Y-77314370D02*
X168654370Y-77799244D01*
X168654370Y-77799244D02*
X168169497Y-77691494D01*
X168546621Y-78391866D02*
X168492746Y-78499616D01*
X168492746Y-78499616D02*
X168358059Y-78634303D01*
X168358059Y-78634303D02*
X168277247Y-78661240D01*
X168277247Y-78661240D02*
X168223372Y-78661240D01*
X168223372Y-78661240D02*
X168142560Y-78634303D01*
X168142560Y-78634303D02*
X168088685Y-78580428D01*
X168088685Y-78580428D02*
X168061748Y-78499616D01*
X168061748Y-78499616D02*
X168061748Y-78445741D01*
X168061748Y-78445741D02*
X168088685Y-78364929D01*
X168088685Y-78364929D02*
X168169497Y-78230242D01*
X168169497Y-78230242D02*
X168196435Y-78149430D01*
X168196435Y-78149430D02*
X168196435Y-78095555D01*
X168196435Y-78095555D02*
X168169497Y-78014743D01*
X168169497Y-78014743D02*
X168115622Y-77960868D01*
X168115622Y-77960868D02*
X168034810Y-77933930D01*
X168034810Y-77933930D02*
X167980935Y-77933930D01*
X167980935Y-77933930D02*
X167900123Y-77960868D01*
X167900123Y-77960868D02*
X167765436Y-78095555D01*
X167765436Y-78095555D02*
X167711561Y-78203304D01*
X133740868Y-100662998D02*
X133767805Y-100582185D01*
X133767805Y-100582185D02*
X133848618Y-100501373D01*
X133848618Y-100501373D02*
X133956367Y-100447498D01*
X133956367Y-100447498D02*
X134064117Y-100447498D01*
X134064117Y-100447498D02*
X134144929Y-100474436D01*
X134144929Y-100474436D02*
X134279616Y-100555248D01*
X134279616Y-100555248D02*
X134360428Y-100636060D01*
X134360428Y-100636060D02*
X134441241Y-100770747D01*
X134441241Y-100770747D02*
X134468178Y-100851560D01*
X134468178Y-100851560D02*
X134468178Y-100959309D01*
X134468178Y-100959309D02*
X134414303Y-101067059D01*
X134414303Y-101067059D02*
X134360428Y-101120934D01*
X134360428Y-101120934D02*
X134252679Y-101174808D01*
X134252679Y-101174808D02*
X134198804Y-101174808D01*
X134198804Y-101174808D02*
X134010242Y-100986247D01*
X134010242Y-100986247D02*
X134117992Y-100878497D01*
X134010242Y-101471120D02*
X133444557Y-100905434D01*
X133444557Y-100905434D02*
X133229057Y-101120934D01*
X133229057Y-101120934D02*
X133202120Y-101201746D01*
X133202120Y-101201746D02*
X133202120Y-101255621D01*
X133202120Y-101255621D02*
X133229057Y-101336433D01*
X133229057Y-101336433D02*
X133309870Y-101417245D01*
X133309870Y-101417245D02*
X133390682Y-101444182D01*
X133390682Y-101444182D02*
X133444557Y-101444182D01*
X133444557Y-101444182D02*
X133525369Y-101417245D01*
X133525369Y-101417245D02*
X133740868Y-101201746D01*
X133148245Y-102333117D02*
X133471494Y-102009868D01*
X133309870Y-102171492D02*
X132744184Y-101605807D01*
X132744184Y-101605807D02*
X132878871Y-101632744D01*
X132878871Y-101632744D02*
X132986621Y-101632744D01*
X132986621Y-101632744D02*
X133067433Y-101605807D01*
X132420935Y-102036805D02*
X132367060Y-102036805D01*
X132367060Y-102036805D02*
X132286248Y-102063743D01*
X132286248Y-102063743D02*
X132151561Y-102198430D01*
X132151561Y-102198430D02*
X132124624Y-102279242D01*
X132124624Y-102279242D02*
X132124624Y-102333117D01*
X132124624Y-102333117D02*
X132151561Y-102413929D01*
X132151561Y-102413929D02*
X132205436Y-102467804D01*
X132205436Y-102467804D02*
X132313186Y-102521679D01*
X132313186Y-102521679D02*
X132959683Y-102521679D01*
X132959683Y-102521679D02*
X132609497Y-102871865D01*
X169041494Y-100632372D02*
X169068431Y-100551560D01*
X169068431Y-100551560D02*
X169149243Y-100470748D01*
X169149243Y-100470748D02*
X169256993Y-100416873D01*
X169256993Y-100416873D02*
X169364742Y-100416873D01*
X169364742Y-100416873D02*
X169445555Y-100443810D01*
X169445555Y-100443810D02*
X169580242Y-100524623D01*
X169580242Y-100524623D02*
X169661054Y-100605435D01*
X169661054Y-100605435D02*
X169741866Y-100740122D01*
X169741866Y-100740122D02*
X169768803Y-100820934D01*
X169768803Y-100820934D02*
X169768803Y-100928684D01*
X169768803Y-100928684D02*
X169714929Y-101036433D01*
X169714929Y-101036433D02*
X169661054Y-101090308D01*
X169661054Y-101090308D02*
X169553304Y-101144183D01*
X169553304Y-101144183D02*
X169499429Y-101144183D01*
X169499429Y-101144183D02*
X169310868Y-100955621D01*
X169310868Y-100955621D02*
X169418617Y-100847871D01*
X169310868Y-101440494D02*
X168745182Y-100874809D01*
X168745182Y-100874809D02*
X168529683Y-101090308D01*
X168529683Y-101090308D02*
X168502746Y-101171120D01*
X168502746Y-101171120D02*
X168502746Y-101224995D01*
X168502746Y-101224995D02*
X168529683Y-101305807D01*
X168529683Y-101305807D02*
X168610495Y-101386619D01*
X168610495Y-101386619D02*
X168691307Y-101413557D01*
X168691307Y-101413557D02*
X168745182Y-101413557D01*
X168745182Y-101413557D02*
X168825994Y-101386619D01*
X168825994Y-101386619D02*
X169041494Y-101171120D01*
X168448871Y-102302491D02*
X168772120Y-101979242D01*
X168610495Y-102140867D02*
X168044810Y-101575181D01*
X168044810Y-101575181D02*
X168179497Y-101602119D01*
X168179497Y-101602119D02*
X168287246Y-101602119D01*
X168287246Y-101602119D02*
X168368059Y-101575181D01*
X138820868Y-100516998D02*
X138847805Y-100436185D01*
X138847805Y-100436185D02*
X138928618Y-100355373D01*
X138928618Y-100355373D02*
X139036367Y-100301498D01*
X139036367Y-100301498D02*
X139144117Y-100301498D01*
X139144117Y-100301498D02*
X139224929Y-100328436D01*
X139224929Y-100328436D02*
X139359616Y-100409248D01*
X139359616Y-100409248D02*
X139440428Y-100490060D01*
X139440428Y-100490060D02*
X139521241Y-100624747D01*
X139521241Y-100624747D02*
X139548178Y-100705560D01*
X139548178Y-100705560D02*
X139548178Y-100813309D01*
X139548178Y-100813309D02*
X139494303Y-100921059D01*
X139494303Y-100921059D02*
X139440428Y-100974934D01*
X139440428Y-100974934D02*
X139332679Y-101028808D01*
X139332679Y-101028808D02*
X139278804Y-101028808D01*
X139278804Y-101028808D02*
X139090242Y-100840247D01*
X139090242Y-100840247D02*
X139197992Y-100732497D01*
X139090242Y-101325120D02*
X138524557Y-100759434D01*
X138524557Y-100759434D02*
X138309057Y-100974934D01*
X138309057Y-100974934D02*
X138282120Y-101055746D01*
X138282120Y-101055746D02*
X138282120Y-101109621D01*
X138282120Y-101109621D02*
X138309057Y-101190433D01*
X138309057Y-101190433D02*
X138389870Y-101271245D01*
X138389870Y-101271245D02*
X138470682Y-101298182D01*
X138470682Y-101298182D02*
X138524557Y-101298182D01*
X138524557Y-101298182D02*
X138605369Y-101271245D01*
X138605369Y-101271245D02*
X138820868Y-101055746D01*
X138228245Y-102187117D02*
X138551494Y-101863868D01*
X138389870Y-102025492D02*
X137824184Y-101459807D01*
X137824184Y-101459807D02*
X137958871Y-101486744D01*
X137958871Y-101486744D02*
X138066621Y-101486744D01*
X138066621Y-101486744D02*
X138147433Y-101459807D01*
X137312373Y-101971618D02*
X137258499Y-102025492D01*
X137258499Y-102025492D02*
X137231561Y-102106305D01*
X137231561Y-102106305D02*
X137231561Y-102160179D01*
X137231561Y-102160179D02*
X137258499Y-102240992D01*
X137258499Y-102240992D02*
X137339311Y-102375679D01*
X137339311Y-102375679D02*
X137473998Y-102510366D01*
X137473998Y-102510366D02*
X137608685Y-102591178D01*
X137608685Y-102591178D02*
X137689497Y-102618115D01*
X137689497Y-102618115D02*
X137743372Y-102618115D01*
X137743372Y-102618115D02*
X137824184Y-102591178D01*
X137824184Y-102591178D02*
X137878059Y-102537303D01*
X137878059Y-102537303D02*
X137904996Y-102456491D01*
X137904996Y-102456491D02*
X137904996Y-102402616D01*
X137904996Y-102402616D02*
X137878059Y-102321804D01*
X137878059Y-102321804D02*
X137797247Y-102187117D01*
X137797247Y-102187117D02*
X137662560Y-102052430D01*
X137662560Y-102052430D02*
X137527873Y-101971618D01*
X137527873Y-101971618D02*
X137447060Y-101944680D01*
X137447060Y-101944680D02*
X137393186Y-101944680D01*
X137393186Y-101944680D02*
X137312373Y-101971618D01*
X146723710Y-77608651D02*
X146642898Y-77150716D01*
X147046959Y-77285403D02*
X146481274Y-76719717D01*
X146481274Y-76719717D02*
X146265775Y-76935216D01*
X146265775Y-76935216D02*
X146238837Y-77016029D01*
X146238837Y-77016029D02*
X146238837Y-77069903D01*
X146238837Y-77069903D02*
X146265775Y-77150716D01*
X146265775Y-77150716D02*
X146346587Y-77231528D01*
X146346587Y-77231528D02*
X146427399Y-77258465D01*
X146427399Y-77258465D02*
X146481274Y-77258465D01*
X146481274Y-77258465D02*
X146562086Y-77231528D01*
X146562086Y-77231528D02*
X146777585Y-77016029D01*
X145915588Y-77285403D02*
X146373524Y-77743338D01*
X146373524Y-77743338D02*
X146400462Y-77824151D01*
X146400462Y-77824151D02*
X146400462Y-77878025D01*
X146400462Y-77878025D02*
X146373524Y-77958838D01*
X146373524Y-77958838D02*
X146265775Y-78066587D01*
X146265775Y-78066587D02*
X146184962Y-78093525D01*
X146184962Y-78093525D02*
X146131088Y-78093525D01*
X146131088Y-78093525D02*
X146050275Y-78066587D01*
X146050275Y-78066587D02*
X145592340Y-77608651D01*
X145888651Y-78443711D02*
X145322966Y-77878025D01*
X145322966Y-77878025D02*
X145565402Y-78766959D01*
X145565402Y-78766959D02*
X144999717Y-78201274D01*
X151510868Y-76759998D02*
X151537805Y-76679185D01*
X151537805Y-76679185D02*
X151618618Y-76598373D01*
X151618618Y-76598373D02*
X151726367Y-76544498D01*
X151726367Y-76544498D02*
X151834117Y-76544498D01*
X151834117Y-76544498D02*
X151914929Y-76571436D01*
X151914929Y-76571436D02*
X152049616Y-76652248D01*
X152049616Y-76652248D02*
X152130428Y-76733060D01*
X152130428Y-76733060D02*
X152211241Y-76867747D01*
X152211241Y-76867747D02*
X152238178Y-76948560D01*
X152238178Y-76948560D02*
X152238178Y-77056309D01*
X152238178Y-77056309D02*
X152184303Y-77164059D01*
X152184303Y-77164059D02*
X152130428Y-77217934D01*
X152130428Y-77217934D02*
X152022679Y-77271808D01*
X152022679Y-77271808D02*
X151968804Y-77271808D01*
X151968804Y-77271808D02*
X151780242Y-77083247D01*
X151780242Y-77083247D02*
X151887992Y-76975497D01*
X151780242Y-77568120D02*
X151214557Y-77002434D01*
X151214557Y-77002434D02*
X150999057Y-77217934D01*
X150999057Y-77217934D02*
X150972120Y-77298746D01*
X150972120Y-77298746D02*
X150972120Y-77352621D01*
X150972120Y-77352621D02*
X150999057Y-77433433D01*
X150999057Y-77433433D02*
X151079870Y-77514245D01*
X151079870Y-77514245D02*
X151160682Y-77541182D01*
X151160682Y-77541182D02*
X151214557Y-77541182D01*
X151214557Y-77541182D02*
X151295369Y-77514245D01*
X151295369Y-77514245D02*
X151510868Y-77298746D01*
X150729683Y-77595057D02*
X150675809Y-77595057D01*
X150675809Y-77595057D02*
X150594996Y-77621995D01*
X150594996Y-77621995D02*
X150460309Y-77756682D01*
X150460309Y-77756682D02*
X150433372Y-77837494D01*
X150433372Y-77837494D02*
X150433372Y-77891369D01*
X150433372Y-77891369D02*
X150460309Y-77972181D01*
X150460309Y-77972181D02*
X150514184Y-78026056D01*
X150514184Y-78026056D02*
X150621934Y-78079930D01*
X150621934Y-78079930D02*
X151268431Y-78079930D01*
X151268431Y-78079930D02*
X150918245Y-78430117D01*
X150163998Y-78052993D02*
X149786874Y-78430117D01*
X149786874Y-78430117D02*
X150594996Y-78753366D01*
X187854819Y-62166666D02*
X188569104Y-62166666D01*
X188569104Y-62166666D02*
X188711961Y-62119047D01*
X188711961Y-62119047D02*
X188807200Y-62023809D01*
X188807200Y-62023809D02*
X188854819Y-61880952D01*
X188854819Y-61880952D02*
X188854819Y-61785714D01*
X188854819Y-63166666D02*
X188854819Y-62595238D01*
X188854819Y-62880952D02*
X187854819Y-62880952D01*
X187854819Y-62880952D02*
X187997676Y-62785714D01*
X187997676Y-62785714D02*
X188092914Y-62690476D01*
X188092914Y-62690476D02*
X188140533Y-62595238D01*
X110954819Y-62166666D02*
X111669104Y-62166666D01*
X111669104Y-62166666D02*
X111811961Y-62119047D01*
X111811961Y-62119047D02*
X111907200Y-62023809D01*
X111907200Y-62023809D02*
X111954819Y-61880952D01*
X111954819Y-61880952D02*
X111954819Y-61785714D01*
X111050057Y-62595238D02*
X111002438Y-62642857D01*
X111002438Y-62642857D02*
X110954819Y-62738095D01*
X110954819Y-62738095D02*
X110954819Y-62976190D01*
X110954819Y-62976190D02*
X111002438Y-63071428D01*
X111002438Y-63071428D02*
X111050057Y-63119047D01*
X111050057Y-63119047D02*
X111145295Y-63166666D01*
X111145295Y-63166666D02*
X111240533Y-63166666D01*
X111240533Y-63166666D02*
X111383390Y-63119047D01*
X111383390Y-63119047D02*
X111954819Y-62547619D01*
X111954819Y-62547619D02*
X111954819Y-63166666D01*
X196548333Y-100038819D02*
X196548333Y-100753104D01*
X196548333Y-100753104D02*
X196595952Y-100895961D01*
X196595952Y-100895961D02*
X196691190Y-100991200D01*
X196691190Y-100991200D02*
X196834047Y-101038819D01*
X196834047Y-101038819D02*
X196929285Y-101038819D01*
X196167380Y-100038819D02*
X195548333Y-100038819D01*
X195548333Y-100038819D02*
X195881666Y-100419771D01*
X195881666Y-100419771D02*
X195738809Y-100419771D01*
X195738809Y-100419771D02*
X195643571Y-100467390D01*
X195643571Y-100467390D02*
X195595952Y-100515009D01*
X195595952Y-100515009D02*
X195548333Y-100610247D01*
X195548333Y-100610247D02*
X195548333Y-100848342D01*
X195548333Y-100848342D02*
X195595952Y-100943580D01*
X195595952Y-100943580D02*
X195643571Y-100991200D01*
X195643571Y-100991200D02*
X195738809Y-101038819D01*
X195738809Y-101038819D02*
X196024523Y-101038819D01*
X196024523Y-101038819D02*
X196119761Y-100991200D01*
X196119761Y-100991200D02*
X196167380Y-100943580D01*
X104346333Y-100038819D02*
X104346333Y-100753104D01*
X104346333Y-100753104D02*
X104393952Y-100895961D01*
X104393952Y-100895961D02*
X104489190Y-100991200D01*
X104489190Y-100991200D02*
X104632047Y-101038819D01*
X104632047Y-101038819D02*
X104727285Y-101038819D01*
X103441571Y-100372152D02*
X103441571Y-101038819D01*
X103679666Y-99991200D02*
X103917761Y-100705485D01*
X103917761Y-100705485D02*
X103298714Y-100705485D01*
X173190819Y-131492666D02*
X173905104Y-131492666D01*
X173905104Y-131492666D02*
X174047961Y-131445047D01*
X174047961Y-131445047D02*
X174143200Y-131349809D01*
X174143200Y-131349809D02*
X174190819Y-131206952D01*
X174190819Y-131206952D02*
X174190819Y-131111714D01*
X173190819Y-132445047D02*
X173190819Y-131968857D01*
X173190819Y-131968857D02*
X173667009Y-131921238D01*
X173667009Y-131921238D02*
X173619390Y-131968857D01*
X173619390Y-131968857D02*
X173571771Y-132064095D01*
X173571771Y-132064095D02*
X173571771Y-132302190D01*
X173571771Y-132302190D02*
X173619390Y-132397428D01*
X173619390Y-132397428D02*
X173667009Y-132445047D01*
X173667009Y-132445047D02*
X173762247Y-132492666D01*
X173762247Y-132492666D02*
X174000342Y-132492666D01*
X174000342Y-132492666D02*
X174095580Y-132445047D01*
X174095580Y-132445047D02*
X174143200Y-132397428D01*
X174143200Y-132397428D02*
X174190819Y-132302190D01*
X174190819Y-132302190D02*
X174190819Y-132064095D01*
X174190819Y-132064095D02*
X174143200Y-131968857D01*
X174143200Y-131968857D02*
X174095580Y-131921238D01*
X125854819Y-132000666D02*
X126569104Y-132000666D01*
X126569104Y-132000666D02*
X126711961Y-131953047D01*
X126711961Y-131953047D02*
X126807200Y-131857809D01*
X126807200Y-131857809D02*
X126854819Y-131714952D01*
X126854819Y-131714952D02*
X126854819Y-131619714D01*
X125854819Y-132905428D02*
X125854819Y-132714952D01*
X125854819Y-132714952D02*
X125902438Y-132619714D01*
X125902438Y-132619714D02*
X125950057Y-132572095D01*
X125950057Y-132572095D02*
X126092914Y-132476857D01*
X126092914Y-132476857D02*
X126283390Y-132429238D01*
X126283390Y-132429238D02*
X126664342Y-132429238D01*
X126664342Y-132429238D02*
X126759580Y-132476857D01*
X126759580Y-132476857D02*
X126807200Y-132524476D01*
X126807200Y-132524476D02*
X126854819Y-132619714D01*
X126854819Y-132619714D02*
X126854819Y-132810190D01*
X126854819Y-132810190D02*
X126807200Y-132905428D01*
X126807200Y-132905428D02*
X126759580Y-132953047D01*
X126759580Y-132953047D02*
X126664342Y-133000666D01*
X126664342Y-133000666D02*
X126426247Y-133000666D01*
X126426247Y-133000666D02*
X126331009Y-132953047D01*
X126331009Y-132953047D02*
X126283390Y-132905428D01*
X126283390Y-132905428D02*
X126235771Y-132810190D01*
X126235771Y-132810190D02*
X126235771Y-132619714D01*
X126235771Y-132619714D02*
X126283390Y-132524476D01*
X126283390Y-132524476D02*
X126331009Y-132476857D01*
X126331009Y-132476857D02*
X126426247Y-132429238D01*
X150809523Y-82454819D02*
X150809523Y-81454819D01*
X150809523Y-81454819D02*
X150476190Y-82169104D01*
X150476190Y-82169104D02*
X150142857Y-81454819D01*
X150142857Y-81454819D02*
X150142857Y-82454819D01*
X149142857Y-82454819D02*
X149714285Y-82454819D01*
X149428571Y-82454819D02*
X149428571Y-81454819D01*
X149428571Y-81454819D02*
X149523809Y-81597676D01*
X149523809Y-81597676D02*
X149619047Y-81692914D01*
X149619047Y-81692914D02*
X149714285Y-81740533D01*
X157314819Y-126579333D02*
X156838628Y-126246000D01*
X157314819Y-126007905D02*
X156314819Y-126007905D01*
X156314819Y-126007905D02*
X156314819Y-126388857D01*
X156314819Y-126388857D02*
X156362438Y-126484095D01*
X156362438Y-126484095D02*
X156410057Y-126531714D01*
X156410057Y-126531714D02*
X156505295Y-126579333D01*
X156505295Y-126579333D02*
X156648152Y-126579333D01*
X156648152Y-126579333D02*
X156743390Y-126531714D01*
X156743390Y-126531714D02*
X156791009Y-126484095D01*
X156791009Y-126484095D02*
X156838628Y-126388857D01*
X156838628Y-126388857D02*
X156838628Y-126007905D01*
X156314819Y-126912667D02*
X156314819Y-127531714D01*
X156314819Y-127531714D02*
X156695771Y-127198381D01*
X156695771Y-127198381D02*
X156695771Y-127341238D01*
X156695771Y-127341238D02*
X156743390Y-127436476D01*
X156743390Y-127436476D02*
X156791009Y-127484095D01*
X156791009Y-127484095D02*
X156886247Y-127531714D01*
X156886247Y-127531714D02*
X157124342Y-127531714D01*
X157124342Y-127531714D02*
X157219580Y-127484095D01*
X157219580Y-127484095D02*
X157267200Y-127436476D01*
X157267200Y-127436476D02*
X157314819Y-127341238D01*
X157314819Y-127341238D02*
X157314819Y-127055524D01*
X157314819Y-127055524D02*
X157267200Y-126960286D01*
X157267200Y-126960286D02*
X157219580Y-126912667D01*
X174619160Y-125713819D02*
X174619160Y-126428104D01*
X174619160Y-126428104D02*
X174666779Y-126570961D01*
X174666779Y-126570961D02*
X174762017Y-126666200D01*
X174762017Y-126666200D02*
X174904874Y-126713819D01*
X174904874Y-126713819D02*
X175000112Y-126713819D01*
X174238207Y-125713819D02*
X173571541Y-125713819D01*
X173571541Y-125713819D02*
X174000112Y-126713819D01*
X101975160Y-125713819D02*
X101975160Y-126428104D01*
X101975160Y-126428104D02*
X102022779Y-126570961D01*
X102022779Y-126570961D02*
X102118017Y-126666200D01*
X102118017Y-126666200D02*
X102260874Y-126713819D01*
X102260874Y-126713819D02*
X102356112Y-126713819D01*
X101356112Y-126142390D02*
X101451350Y-126094771D01*
X101451350Y-126094771D02*
X101498969Y-126047152D01*
X101498969Y-126047152D02*
X101546588Y-125951914D01*
X101546588Y-125951914D02*
X101546588Y-125904295D01*
X101546588Y-125904295D02*
X101498969Y-125809057D01*
X101498969Y-125809057D02*
X101451350Y-125761438D01*
X101451350Y-125761438D02*
X101356112Y-125713819D01*
X101356112Y-125713819D02*
X101165636Y-125713819D01*
X101165636Y-125713819D02*
X101070398Y-125761438D01*
X101070398Y-125761438D02*
X101022779Y-125809057D01*
X101022779Y-125809057D02*
X100975160Y-125904295D01*
X100975160Y-125904295D02*
X100975160Y-125951914D01*
X100975160Y-125951914D02*
X101022779Y-126047152D01*
X101022779Y-126047152D02*
X101070398Y-126094771D01*
X101070398Y-126094771D02*
X101165636Y-126142390D01*
X101165636Y-126142390D02*
X101356112Y-126142390D01*
X101356112Y-126142390D02*
X101451350Y-126190009D01*
X101451350Y-126190009D02*
X101498969Y-126237628D01*
X101498969Y-126237628D02*
X101546588Y-126332866D01*
X101546588Y-126332866D02*
X101546588Y-126523342D01*
X101546588Y-126523342D02*
X101498969Y-126618580D01*
X101498969Y-126618580D02*
X101451350Y-126666200D01*
X101451350Y-126666200D02*
X101356112Y-126713819D01*
X101356112Y-126713819D02*
X101165636Y-126713819D01*
X101165636Y-126713819D02*
X101070398Y-126666200D01*
X101070398Y-126666200D02*
X101022779Y-126618580D01*
X101022779Y-126618580D02*
X100975160Y-126523342D01*
X100975160Y-126523342D02*
X100975160Y-126332866D01*
X100975160Y-126332866D02*
X101022779Y-126237628D01*
X101022779Y-126237628D02*
X101070398Y-126190009D01*
X101070398Y-126190009D02*
X101165636Y-126142390D01*
X147408819Y-126579333D02*
X146932628Y-126246000D01*
X147408819Y-126007905D02*
X146408819Y-126007905D01*
X146408819Y-126007905D02*
X146408819Y-126388857D01*
X146408819Y-126388857D02*
X146456438Y-126484095D01*
X146456438Y-126484095D02*
X146504057Y-126531714D01*
X146504057Y-126531714D02*
X146599295Y-126579333D01*
X146599295Y-126579333D02*
X146742152Y-126579333D01*
X146742152Y-126579333D02*
X146837390Y-126531714D01*
X146837390Y-126531714D02*
X146885009Y-126484095D01*
X146885009Y-126484095D02*
X146932628Y-126388857D01*
X146932628Y-126388857D02*
X146932628Y-126007905D01*
X146504057Y-126960286D02*
X146456438Y-127007905D01*
X146456438Y-127007905D02*
X146408819Y-127103143D01*
X146408819Y-127103143D02*
X146408819Y-127341238D01*
X146408819Y-127341238D02*
X146456438Y-127436476D01*
X146456438Y-127436476D02*
X146504057Y-127484095D01*
X146504057Y-127484095D02*
X146599295Y-127531714D01*
X146599295Y-127531714D02*
X146694533Y-127531714D01*
X146694533Y-127531714D02*
X146837390Y-127484095D01*
X146837390Y-127484095D02*
X147408819Y-126912667D01*
X147408819Y-126912667D02*
X147408819Y-127531714D01*
X167214819Y-126579333D02*
X166738628Y-126246000D01*
X167214819Y-126007905D02*
X166214819Y-126007905D01*
X166214819Y-126007905D02*
X166214819Y-126388857D01*
X166214819Y-126388857D02*
X166262438Y-126484095D01*
X166262438Y-126484095D02*
X166310057Y-126531714D01*
X166310057Y-126531714D02*
X166405295Y-126579333D01*
X166405295Y-126579333D02*
X166548152Y-126579333D01*
X166548152Y-126579333D02*
X166643390Y-126531714D01*
X166643390Y-126531714D02*
X166691009Y-126484095D01*
X166691009Y-126484095D02*
X166738628Y-126388857D01*
X166738628Y-126388857D02*
X166738628Y-126007905D01*
X166548152Y-127436476D02*
X167214819Y-127436476D01*
X166167200Y-127198381D02*
X166881485Y-126960286D01*
X166881485Y-126960286D02*
X166881485Y-127579333D01*
D12*
X136048000Y-128666000D02*
X136048000Y-124826000D01*
X134208000Y-128666000D02*
X134208000Y-124826000D01*
X172820000Y-100035000D02*
X172520000Y-100035000D01*
X172820000Y-100035000D02*
X172820000Y-79035000D01*
X170420000Y-100035000D02*
X170020000Y-100035000D01*
X170153000Y-100035000D02*
X170153000Y-97028000D01*
X167820000Y-100035000D02*
X167420000Y-100035000D01*
X165320000Y-100035000D02*
X164920000Y-100035000D01*
X162720000Y-100035000D02*
X162320000Y-100035000D01*
X160220000Y-100035000D02*
X159820000Y-100035000D01*
X157720000Y-100035000D02*
X157320000Y-100035000D01*
X155120000Y-100035000D02*
X154720000Y-100035000D01*
X152620000Y-100035000D02*
X152220000Y-100035000D01*
X150020000Y-100035000D02*
X149620000Y-100035000D01*
X147520000Y-100035000D02*
X147120000Y-100035000D01*
X145020000Y-100035000D02*
X144620000Y-100035000D01*
X142420000Y-100035000D02*
X142020000Y-100035000D01*
X139920000Y-100035000D02*
X139520000Y-100035000D01*
X137320000Y-100035000D02*
X136920000Y-100035000D01*
X134820000Y-100035000D02*
X134420000Y-100035000D01*
X132220000Y-100035000D02*
X131820000Y-100035000D01*
X129720000Y-100035000D02*
X129320000Y-100035000D01*
X127220000Y-100035000D02*
X126820000Y-100035000D01*
X124620000Y-100035000D02*
X124220000Y-100035000D01*
X170153000Y-97028000D02*
X172820000Y-97028000D01*
X121820000Y-93235000D02*
X121820000Y-100035000D01*
X121820000Y-91035000D02*
X121820000Y-90635000D01*
X121820000Y-88435000D02*
X121820000Y-88035000D01*
X172820000Y-79035000D02*
X172520000Y-79035000D01*
X170420000Y-79035000D02*
X170020000Y-79035000D01*
X167820000Y-79035000D02*
X167420000Y-79035000D01*
X165320000Y-79035000D02*
X164920000Y-79035000D01*
X162720000Y-79035000D02*
X162320000Y-79035000D01*
X160220000Y-79035000D02*
X159820000Y-79035000D01*
X157720000Y-79035000D02*
X157320000Y-79035000D01*
X155120000Y-79035000D02*
X154720000Y-79035000D01*
X152620000Y-79035000D02*
X152220000Y-79035000D01*
X150020000Y-79035000D02*
X149620000Y-79035000D01*
X147520000Y-79035000D02*
X147120000Y-79035000D01*
X145020000Y-79035000D02*
X144620000Y-79035000D01*
X142420000Y-79035000D02*
X142020000Y-79035000D01*
X139920000Y-79035000D02*
X139520000Y-79035000D01*
X137320000Y-79035000D02*
X136920000Y-79035000D01*
X134820000Y-79035000D02*
X134420000Y-79035000D01*
X132220000Y-79035000D02*
X131820000Y-79035000D01*
X129720000Y-79035000D02*
X129320000Y-79035000D01*
X127220000Y-79035000D02*
X126820000Y-79035000D01*
X124620000Y-79035000D02*
X124220000Y-79035000D01*
X121820000Y-79035000D02*
X121820000Y-85835000D01*
D10*
X189400000Y-53400000D02*
X189400000Y-71600000D01*
X189400000Y-71600000D02*
X194400000Y-71600000D01*
X193400000Y-53400000D02*
X189400000Y-53400000D01*
X194400000Y-54400000D02*
X193400000Y-53400000D01*
X194400000Y-71600000D02*
X194400000Y-54400000D01*
X105500000Y-53400000D02*
X105500000Y-70600000D01*
X105500000Y-70600000D02*
X106500000Y-71600000D01*
X106500000Y-71600000D02*
X110500000Y-71600000D01*
X110500000Y-53400000D02*
X105500000Y-53400000D01*
X110500000Y-71600000D02*
X110500000Y-53400000D01*
X191800000Y-101400000D02*
X191800000Y-119600000D01*
X191800000Y-119600000D02*
X199800000Y-119600000D01*
X198800000Y-101400000D02*
X191800000Y-101400000D01*
X199800000Y-102400000D02*
X198800000Y-101400000D01*
X199800000Y-119600000D02*
X199800000Y-102400000D01*
X100300000Y-101400000D02*
X100300000Y-118600000D01*
X100300000Y-118600000D02*
X101300000Y-119600000D01*
X101300000Y-119600000D02*
X108300000Y-119600000D01*
X108300000Y-101400000D02*
X100300000Y-101400000D01*
X108300000Y-119600000D02*
X108300000Y-101400000D01*
D12*
X172470000Y-127670000D02*
X172470000Y-129000000D01*
X173800000Y-127670000D02*
X172470000Y-127670000D01*
X175070000Y-127670000D02*
X197990000Y-127670000D01*
X175070000Y-130330000D02*
X175070000Y-127670000D01*
X197990000Y-127670000D02*
X197990000Y-130330000D01*
X197990000Y-130330000D02*
X175070000Y-130330000D01*
X102010000Y-127670000D02*
X124930000Y-127670000D01*
X102010000Y-130330000D02*
X102010000Y-127670000D01*
X124930000Y-127670000D02*
X124930000Y-130330000D01*
X124930000Y-130330000D02*
X102010000Y-130330000D01*
X126200000Y-130330000D02*
X127530000Y-130330000D01*
X127530000Y-130330000D02*
X127530000Y-129000000D01*
X154020000Y-128666000D02*
X154020000Y-124826000D01*
X155860000Y-128666000D02*
X155860000Y-124826000D01*
D13*
X175381600Y-123937600D02*
X197381600Y-123937600D01*
X175381600Y-124937600D02*
X175381600Y-123937600D01*
D14*
X175381600Y-124937600D02*
X175831600Y-125437600D01*
D13*
X175381600Y-125937600D02*
X175381600Y-124937600D01*
D14*
X175381600Y-125937600D02*
X175881600Y-126437600D01*
D13*
X175381600Y-126937600D02*
X175381600Y-125937600D01*
D14*
X175381600Y-126937600D02*
X175931600Y-127487600D01*
D13*
X175381600Y-127937600D02*
X175381600Y-126937600D01*
X175381600Y-128937600D02*
X175381600Y-127937600D01*
D14*
X175831600Y-125437600D02*
X175381600Y-125937600D01*
X175881600Y-126437600D02*
X175381600Y-126937600D01*
X175931600Y-127487600D02*
X175381600Y-127937600D01*
X176131600Y-126937600D02*
X176481600Y-127437600D01*
X176481600Y-127437600D02*
X176481600Y-125987600D01*
D13*
X197381600Y-123937600D02*
X197381600Y-128937600D01*
X197381600Y-128937600D02*
X175381600Y-128937600D01*
X102737600Y-123937600D02*
X124737600Y-123937600D01*
X102737600Y-124937600D02*
X102737600Y-123937600D01*
D14*
X102737600Y-124937600D02*
X103187600Y-125437600D01*
D13*
X102737600Y-125937600D02*
X102737600Y-124937600D01*
D14*
X102737600Y-125937600D02*
X103237600Y-126437600D01*
D13*
X102737600Y-126937600D02*
X102737600Y-125937600D01*
D14*
X102737600Y-126937600D02*
X103287600Y-127487600D01*
D13*
X102737600Y-127937600D02*
X102737600Y-126937600D01*
X102737600Y-128937600D02*
X102737600Y-127937600D01*
D14*
X103187600Y-125437600D02*
X102737600Y-125937600D01*
X103237600Y-126437600D02*
X102737600Y-126937600D01*
X103287600Y-127487600D02*
X102737600Y-127937600D01*
X103487600Y-126937600D02*
X103837600Y-127437600D01*
X103837600Y-127437600D02*
X103837600Y-125987600D01*
D13*
X124737600Y-123937600D02*
X124737600Y-128937600D01*
X124737600Y-128937600D02*
X102737600Y-128937600D01*
D12*
X144114000Y-128666000D02*
X144114000Y-124826000D01*
X145954000Y-128666000D02*
X145954000Y-124826000D01*
X163920000Y-128666000D02*
X163920000Y-124826000D01*
X165760000Y-128666000D02*
X165760000Y-124826000D01*
%LPC*%
D15*
X190300000Y-97600000D03*
X109700000Y-97600000D03*
D16*
X135128000Y-124206000D03*
D17*
X135128000Y-129286000D03*
D18*
X171450000Y-98425000D03*
X168910000Y-98425000D03*
D19*
X166370000Y-98425000D03*
D18*
X163830000Y-98425000D03*
X161290000Y-98425000D03*
X158750000Y-98425000D03*
X156210000Y-98425000D03*
D19*
X153670000Y-98425000D03*
D18*
X151130000Y-98425000D03*
X148590000Y-98425000D03*
X146050000Y-98425000D03*
X143510000Y-98425000D03*
D19*
X140970000Y-98425000D03*
D18*
X138430000Y-98425000D03*
X135890000Y-98425000D03*
X133350000Y-98425000D03*
X130810000Y-98425000D03*
D19*
X128270000Y-98425000D03*
D18*
X125730000Y-98425000D03*
X123190000Y-98425000D03*
X123190000Y-80645000D03*
X125730000Y-80645000D03*
D19*
X128270000Y-80645000D03*
D18*
X130810000Y-80645000D03*
X133350000Y-80645000D03*
X135890000Y-80645000D03*
X138430000Y-80645000D03*
D19*
X140970000Y-80645000D03*
D18*
X143510000Y-80645000D03*
X146050000Y-80645000D03*
X148590000Y-80645000D03*
X151130000Y-80645000D03*
D19*
X153670000Y-80645000D03*
D18*
X156210000Y-80645000D03*
X158750000Y-80645000D03*
X161290000Y-80645000D03*
X163830000Y-80645000D03*
D19*
X166370000Y-80645000D03*
D18*
X168910000Y-80645000D03*
X171450000Y-80645000D03*
D20*
X133700000Y-132400000D03*
D21*
X136240000Y-132400000D03*
D20*
X143700000Y-132400000D03*
D21*
X146240000Y-132400000D03*
D20*
X153700000Y-132400000D03*
D21*
X156240000Y-132400000D03*
D20*
X163700000Y-132400000D03*
D21*
X166240000Y-132400000D03*
D22*
X150000000Y-106000000D03*
D23*
X192900000Y-55000000D03*
X190900000Y-56250000D03*
X192900000Y-57500000D03*
X190900000Y-58750000D03*
X192900000Y-60000000D03*
X190900000Y-61250000D03*
X192900000Y-62500000D03*
X190900000Y-63750000D03*
X192900000Y-65000000D03*
X190900000Y-66250000D03*
X192900000Y-67500000D03*
X190900000Y-68750000D03*
X192900000Y-70000000D03*
X107000000Y-70000000D03*
X109000000Y-68750000D03*
X107000000Y-67500000D03*
X109000000Y-66250000D03*
X107000000Y-65000000D03*
X109000000Y-63750000D03*
X107000000Y-62500000D03*
X109000000Y-61250000D03*
X107000000Y-60000000D03*
X109000000Y-58750000D03*
X107000000Y-57500000D03*
X109000000Y-56250000D03*
X107000000Y-55000000D03*
D24*
X198300000Y-103000000D03*
X194950000Y-103000000D03*
X193300000Y-104250000D03*
X198300000Y-105500000D03*
X194950000Y-105500000D03*
X193300000Y-106750000D03*
X198300000Y-108000000D03*
X194950000Y-108000000D03*
X193300000Y-109250000D03*
X198300000Y-110500000D03*
X194950000Y-110500000D03*
X193300000Y-111750000D03*
X198300000Y-113000000D03*
X194950000Y-113000000D03*
X193300000Y-114250000D03*
X198300000Y-115500000D03*
X194950000Y-115500000D03*
X193300000Y-116750000D03*
X198300000Y-118000000D03*
X194950000Y-118000000D03*
X101800000Y-118000000D03*
X105150000Y-118000000D03*
X106800000Y-116750000D03*
X101800000Y-115500000D03*
X105150000Y-115500000D03*
X106800000Y-114250000D03*
X101800000Y-113000000D03*
X105150000Y-113000000D03*
X106800000Y-111750000D03*
X101800000Y-110500000D03*
X105150000Y-110500000D03*
X106800000Y-109250000D03*
X101800000Y-108000000D03*
X105150000Y-108000000D03*
X106800000Y-106750000D03*
X101800000Y-105500000D03*
X105150000Y-105500000D03*
X106800000Y-104250000D03*
X101800000Y-103000000D03*
X105150000Y-103000000D03*
D19*
X173800000Y-129000000D03*
D18*
X176340000Y-129000000D03*
X178880000Y-129000000D03*
X181420000Y-129000000D03*
X183960000Y-129000000D03*
X186500000Y-129000000D03*
X189040000Y-129000000D03*
X191580000Y-129000000D03*
X194120000Y-129000000D03*
X196660000Y-129000000D03*
D19*
X126200000Y-129000000D03*
D18*
X123660000Y-129000000D03*
X121120000Y-129000000D03*
X118580000Y-129000000D03*
X116040000Y-129000000D03*
X113500000Y-129000000D03*
X110960000Y-129000000D03*
X108420000Y-129000000D03*
X105880000Y-129000000D03*
X103340000Y-129000000D03*
D25*
X150000000Y-74500000D03*
D17*
X154940000Y-129286000D03*
D16*
X154940000Y-124206000D03*
D26*
X178657000Y-126590000D03*
X179907000Y-124940000D03*
X181157000Y-126590000D03*
X182407000Y-124940000D03*
X183657000Y-126590000D03*
X184907000Y-124940000D03*
X186157000Y-126590000D03*
X187407000Y-124940000D03*
X188657000Y-126590000D03*
X189907000Y-124940000D03*
X191157000Y-126590000D03*
X192407000Y-124940000D03*
X193657000Y-126590000D03*
X106013000Y-126590000D03*
X107263000Y-124940000D03*
X108513000Y-126590000D03*
X109763000Y-124940000D03*
X111013000Y-126590000D03*
X112263000Y-124940000D03*
X113513000Y-126590000D03*
X114763000Y-124940000D03*
X116013000Y-126590000D03*
X117263000Y-124940000D03*
X118513000Y-126590000D03*
X119763000Y-124940000D03*
X121013000Y-126590000D03*
D17*
X145034000Y-129286000D03*
D16*
X145034000Y-124206000D03*
D17*
X164840000Y-129286000D03*
D16*
X164840000Y-124206000D03*
%LPD*%
M02*
