M48
; DRILL file {KiCad 9.0.1-9.0.1-0~ubuntu22.04.1} date 2025-04-10T12:53:55-0700
; FORMAT={-:-/ absolute / metric / decimal}
; #@! TF.CreationDate,2025-04-10T12:53:55-07:00
; #@! TF.GenerationSoftware,Kicad,Pcbnew,9.0.1-9.0.1-0~ubuntu22.04.1
; #@! TF.FileFunction,Plated,1,2,PTH
FMAT,2
METRIC
; #@! TA.AperFunction,Plated,PTH,ViaDrill
T1C0.400
; #@! TA.AperFunction,Plated,PTH,ComponentDrill
T2C0.700
; #@! TA.AperFunction,Plated,PTH,ComponentDrill
T3C0.800
; #@! TA.AperFunction,Plated,PTH,ComponentDrill
T4C0.900
; #@! TA.AperFunction,Plated,PTH,ComponentDrill
T5C1.000
; #@! TA.AperFunction,Plated,PTH,ComponentDrill
T6C1.020
; #@! TA.AperFunction,Plated,PTH,ComponentDrill
T7C4.300
%
G90
G05
T1
X117.602Y-105.664
X119.253Y-102.108
X138.43Y-84.582
X176.657Y-113.411
X181.102Y-106.172
T2
X135.128Y-124.206
X135.128Y-129.286
X145.034Y-124.206
X145.034Y-129.286
X154.94Y-124.206
X154.94Y-129.286
X164.84Y-124.206
X164.84Y-129.286
T3
X101.8Y-103.0
X101.8Y-105.5
X101.8Y-108.0
X101.8Y-110.5
X101.8Y-113.0
X101.8Y-115.5
X101.8Y-118.0
X105.15Y-103.0
X105.15Y-105.5
X105.15Y-108.0
X105.15Y-110.5
X105.15Y-113.0
X105.15Y-115.5
X105.15Y-118.0
X106.013Y-126.59
X106.8Y-104.25
X106.8Y-106.75
X106.8Y-109.25
X106.8Y-111.75
X106.8Y-114.25
X106.8Y-116.75
X107.0Y-55.0
X107.0Y-57.5
X107.0Y-60.0
X107.0Y-62.5
X107.0Y-65.0
X107.0Y-67.5
X107.0Y-70.0
X107.263Y-124.94
X108.513Y-126.59
X109.0Y-56.25
X109.0Y-58.75
X109.0Y-61.25
X109.0Y-63.75
X109.0Y-66.25
X109.0Y-68.75
X109.763Y-124.94
X111.013Y-126.59
X112.263Y-124.94
X113.513Y-126.59
X114.763Y-124.94
X116.013Y-126.59
X117.263Y-124.94
X118.513Y-126.59
X119.763Y-124.94
X121.013Y-126.59
X178.657Y-126.59
X179.907Y-124.94
X181.157Y-126.59
X182.407Y-124.94
X183.657Y-126.59
X184.907Y-124.94
X186.157Y-126.59
X187.407Y-124.94
X188.657Y-126.59
X189.907Y-124.94
X190.9Y-56.25
X190.9Y-58.75
X190.9Y-61.25
X190.9Y-63.75
X190.9Y-66.25
X190.9Y-68.75
X191.157Y-126.59
X192.407Y-124.94
X192.9Y-55.0
X192.9Y-57.5
X192.9Y-60.0
X192.9Y-62.5
X192.9Y-65.0
X192.9Y-67.5
X192.9Y-70.0
X193.3Y-104.25
X193.3Y-106.75
X193.3Y-109.25
X193.3Y-111.75
X193.3Y-114.25
X193.3Y-116.75
X193.657Y-126.59
X194.95Y-103.0
X194.95Y-105.5
X194.95Y-108.0
X194.95Y-110.5
X194.95Y-113.0
X194.95Y-115.5
X194.95Y-118.0
X198.3Y-103.0
X198.3Y-105.5
X198.3Y-108.0
X198.3Y-110.5
X198.3Y-113.0
X198.3Y-115.5
X198.3Y-118.0
T4
X133.7Y-132.4
X136.24Y-132.4
X143.7Y-132.4
X146.24Y-132.4
X153.7Y-132.4
X156.24Y-132.4
X163.7Y-132.4
X166.24Y-132.4
T5
X103.34Y-129.0
X105.88Y-129.0
X108.42Y-129.0
X110.96Y-129.0
X113.5Y-129.0
X116.04Y-129.0
X118.58Y-129.0
X121.12Y-129.0
X123.66Y-129.0
X126.2Y-129.0
X173.8Y-129.0
X176.34Y-129.0
X178.88Y-129.0
X181.42Y-129.0
X183.96Y-129.0
X186.5Y-129.0
X189.04Y-129.0
X191.58Y-129.0
X194.12Y-129.0
X196.66Y-129.0
T6
X123.19Y-80.645
X123.19Y-98.425
X125.73Y-80.645
X125.73Y-98.425
X128.27Y-80.645
X128.27Y-98.425
X130.81Y-80.645
X130.81Y-98.425
X133.35Y-80.645
X133.35Y-98.425
X135.89Y-80.645
X135.89Y-98.425
X138.43Y-80.645
X138.43Y-98.425
X140.97Y-80.645
X140.97Y-98.425
X143.51Y-80.645
X143.51Y-98.425
X146.05Y-80.645
X146.05Y-98.425
X148.59Y-80.645
X148.59Y-98.425
X151.13Y-80.645
X151.13Y-98.425
X153.67Y-80.645
X153.67Y-98.425
X156.21Y-80.645
X156.21Y-98.425
X158.75Y-80.645
X158.75Y-98.425
X161.29Y-80.645
X161.29Y-98.425
X163.83Y-80.645
X163.83Y-98.425
X166.37Y-80.645
X166.37Y-98.425
X168.91Y-80.645
X168.91Y-98.425
X171.45Y-80.645
X171.45Y-98.425
T7
X150.0Y-106.0
M30
