G04 #@! TF.GenerationSoftware,KiCad,Pcbnew,9.0.1-9.0.1-0~ubuntu22.04.1*
G04 #@! TF.CreationDate,2025-04-10T12:51:45-07:00*
G04 #@! TF.ProjectId,kicad_port,6b696361-645f-4706-9f72-742e6b696361,rev?*
G04 #@! TF.SameCoordinates,Original*
G04 #@! TF.FileFunction,Copper,L1,Top*
G04 #@! TF.FilePolarity,Positive*
%FSLAX46Y46*%
G04 Gerber Fmt 4.6, Leading zero omitted, Abs format (unit mm)*
G04 Created by KiCad (PCBNEW 9.0.1-9.0.1-0~ubuntu22.04.1) date 2025-04-10 12:51:45*
%MOMM*%
%LPD*%
G01*
G04 APERTURE LIST*
G04 #@! TA.AperFunction,ComponentPad*
%ADD10O,1.400000X1.400000*%
G04 #@! TD*
G04 #@! TA.AperFunction,ComponentPad*
%ADD11C,1.400000*%
G04 #@! TD*
G04 #@! TA.AperFunction,ComponentPad*
%ADD12O,1.700000X1.700000*%
G04 #@! TD*
G04 #@! TA.AperFunction,ComponentPad*
%ADD13R,1.700000X1.700000*%
G04 #@! TD*
G04 #@! TA.AperFunction,ComponentPad*
%ADD14R,1.800000X1.800000*%
G04 #@! TD*
G04 #@! TA.AperFunction,ComponentPad*
%ADD15C,1.800000*%
G04 #@! TD*
G04 #@! TA.AperFunction,ComponentPad*
%ADD16C,8.600000*%
G04 #@! TD*
G04 #@! TA.AperFunction,ComponentPad*
%ADD17O,2.000000X1.200000*%
G04 #@! TD*
G04 #@! TA.AperFunction,ComponentPad*
%ADD18C,1.511200*%
G04 #@! TD*
G04 #@! TA.AperFunction,ViaPad*
%ADD19C,0.800000*%
G04 #@! TD*
G04 #@! TA.AperFunction,Conductor*
%ADD20C,0.250000*%
G04 #@! TD*
G04 #@! TA.AperFunction,Conductor*
%ADD21C,0.375000*%
G04 #@! TD*
G04 APERTURE END LIST*
D10*
X135128000Y-124206000D03*
D11*
X135128000Y-129286000D03*
D12*
X171450000Y-98425000D03*
X168910000Y-98425000D03*
D13*
X166370000Y-98425000D03*
D12*
X163830000Y-98425000D03*
X161290000Y-98425000D03*
X158750000Y-98425000D03*
X156210000Y-98425000D03*
D13*
X153670000Y-98425000D03*
D12*
X151130000Y-98425000D03*
X148590000Y-98425000D03*
X146050000Y-98425000D03*
X143510000Y-98425000D03*
D13*
X140970000Y-98425000D03*
D12*
X138430000Y-98425000D03*
X135890000Y-98425000D03*
X133350000Y-98425000D03*
X130810000Y-98425000D03*
D13*
X128270000Y-98425000D03*
D12*
X125730000Y-98425000D03*
X123190000Y-98425000D03*
X123190000Y-80645000D03*
X125730000Y-80645000D03*
D13*
X128270000Y-80645000D03*
D12*
X130810000Y-80645000D03*
X133350000Y-80645000D03*
X135890000Y-80645000D03*
X138430000Y-80645000D03*
D13*
X140970000Y-80645000D03*
D12*
X143510000Y-80645000D03*
X146050000Y-80645000D03*
X148590000Y-80645000D03*
X151130000Y-80645000D03*
D13*
X153670000Y-80645000D03*
D12*
X156210000Y-80645000D03*
X158750000Y-80645000D03*
X161290000Y-80645000D03*
X163830000Y-80645000D03*
D13*
X166370000Y-80645000D03*
D12*
X168910000Y-80645000D03*
X171450000Y-80645000D03*
D14*
X133700000Y-132400000D03*
D15*
X136240000Y-132400000D03*
D14*
X143700000Y-132400000D03*
D15*
X146240000Y-132400000D03*
D14*
X153700000Y-132400000D03*
D15*
X156240000Y-132400000D03*
D14*
X163700000Y-132400000D03*
D15*
X166240000Y-132400000D03*
D16*
X150000000Y-106000000D03*
D17*
X192900000Y-55000000D03*
X190900000Y-56250000D03*
X192900000Y-57500000D03*
X190900000Y-58750000D03*
X192900000Y-60000000D03*
X190900000Y-61250000D03*
X192900000Y-62500000D03*
X190900000Y-63750000D03*
X192900000Y-65000000D03*
X190900000Y-66250000D03*
X192900000Y-67500000D03*
X190900000Y-68750000D03*
X192900000Y-70000000D03*
X107000000Y-70000000D03*
X109000000Y-68750000D03*
X107000000Y-67500000D03*
X109000000Y-66250000D03*
X107000000Y-65000000D03*
X109000000Y-63750000D03*
X107000000Y-62500000D03*
X109000000Y-61250000D03*
X107000000Y-60000000D03*
X109000000Y-58750000D03*
X107000000Y-57500000D03*
X109000000Y-56250000D03*
X107000000Y-55000000D03*
D18*
X198300000Y-103000000D03*
X194950000Y-103000000D03*
X193300000Y-104250000D03*
X198300000Y-105500000D03*
X194950000Y-105500000D03*
X193300000Y-106750000D03*
X198300000Y-108000000D03*
X194950000Y-108000000D03*
X193300000Y-109250000D03*
X198300000Y-110500000D03*
X194950000Y-110500000D03*
X193300000Y-111750000D03*
X198300000Y-113000000D03*
X194950000Y-113000000D03*
X193300000Y-114250000D03*
X198300000Y-115500000D03*
X194950000Y-115500000D03*
X193300000Y-116750000D03*
X198300000Y-118000000D03*
X194950000Y-118000000D03*
X101800000Y-118000000D03*
X105150000Y-118000000D03*
X106800000Y-116750000D03*
X101800000Y-115500000D03*
X105150000Y-115500000D03*
X106800000Y-114250000D03*
X101800000Y-113000000D03*
X105150000Y-113000000D03*
X106800000Y-111750000D03*
X101800000Y-110500000D03*
X105150000Y-110500000D03*
X106800000Y-109250000D03*
X101800000Y-108000000D03*
X105150000Y-108000000D03*
X106800000Y-106750000D03*
X101800000Y-105500000D03*
X105150000Y-105500000D03*
X106800000Y-104250000D03*
X101800000Y-103000000D03*
X105150000Y-103000000D03*
D13*
X173800000Y-129000000D03*
D12*
X176340000Y-129000000D03*
X178880000Y-129000000D03*
X181420000Y-129000000D03*
X183960000Y-129000000D03*
X186500000Y-129000000D03*
X189040000Y-129000000D03*
X191580000Y-129000000D03*
X194120000Y-129000000D03*
X196660000Y-129000000D03*
D13*
X126200000Y-129000000D03*
D12*
X123660000Y-129000000D03*
X121120000Y-129000000D03*
X118580000Y-129000000D03*
X116040000Y-129000000D03*
X113500000Y-129000000D03*
X110960000Y-129000000D03*
X108420000Y-129000000D03*
X105880000Y-129000000D03*
X103340000Y-129000000D03*
D11*
X154940000Y-129286000D03*
D10*
X154940000Y-124206000D03*
D18*
X178657000Y-126590000D03*
X179907000Y-124940000D03*
X181157000Y-126590000D03*
X182407000Y-124940000D03*
X183657000Y-126590000D03*
X184907000Y-124940000D03*
X186157000Y-126590000D03*
X187407000Y-124940000D03*
X188657000Y-126590000D03*
X189907000Y-124940000D03*
X191157000Y-126590000D03*
X192407000Y-124940000D03*
X193657000Y-126590000D03*
X106013000Y-126590000D03*
X107263000Y-124940000D03*
X108513000Y-126590000D03*
X109763000Y-124940000D03*
X111013000Y-126590000D03*
X112263000Y-124940000D03*
X113513000Y-126590000D03*
X114763000Y-124940000D03*
X116013000Y-126590000D03*
X117263000Y-124940000D03*
X118513000Y-126590000D03*
X119763000Y-124940000D03*
X121013000Y-126590000D03*
D11*
X145034000Y-129286000D03*
D10*
X145034000Y-124206000D03*
D11*
X164840000Y-129286000D03*
D10*
X164840000Y-124206000D03*
D19*
X176657000Y-113411000D03*
X117602000Y-105664000D03*
X119253000Y-102108000D03*
X138430000Y-84582000D03*
X181102000Y-106172000D03*
D20*
X156210000Y-80645000D02*
X169355000Y-67500000D01*
X169355000Y-67500000D02*
X192900000Y-67500000D01*
X151130000Y-80645000D02*
X166775000Y-65000000D01*
X166775000Y-65000000D02*
X192900000Y-65000000D01*
X119253000Y-102108000D02*
X119253000Y-99314000D01*
X119253000Y-99314000D02*
X124206000Y-94361000D01*
X124206000Y-94361000D02*
X144526000Y-94361000D01*
X144526000Y-94361000D02*
X148590000Y-98425000D01*
D21*
X128270000Y-98425000D02*
X130429000Y-96266000D01*
X130429000Y-96266000D02*
X138811000Y-96266000D01*
X138811000Y-96266000D02*
X140970000Y-98425000D01*
D20*
X105150000Y-113000000D02*
X108615000Y-113000000D01*
X194950000Y-108000000D02*
X154542152Y-108000000D01*
X154542152Y-108000000D02*
X151916152Y-110626000D01*
X151916152Y-110626000D02*
X110989000Y-110626000D01*
X110989000Y-110626000D02*
X108615000Y-113000000D01*
X193300000Y-109250000D02*
X190790000Y-111760000D01*
X190790000Y-111760000D02*
X112268000Y-111760000D01*
X112268000Y-111760000D02*
X108528000Y-115500000D01*
X108528000Y-115500000D02*
X105150000Y-115500000D01*
X176657000Y-113411000D02*
X191639000Y-113411000D01*
X191639000Y-113411000D02*
X193300000Y-111750000D01*
X119253000Y-102108000D02*
X113789190Y-102108000D01*
X113789190Y-102108000D02*
X110397190Y-105500000D01*
X110397190Y-105500000D02*
X105150000Y-105500000D01*
X117602000Y-105664000D02*
X117602000Y-104775000D01*
X112777821Y-104775000D02*
X117602000Y-104775000D01*
X106800000Y-109250000D02*
X108302821Y-109250000D01*
X108302821Y-109250000D02*
X112777821Y-104775000D01*
X117602000Y-104775000D02*
X132080000Y-104775000D01*
X132080000Y-104775000D02*
X138430000Y-98425000D01*
X105150000Y-110500000D02*
X107939999Y-110500000D01*
X107939999Y-110500000D02*
X111632999Y-106807000D01*
X111632999Y-106807000D02*
X135128000Y-106807000D01*
X135128000Y-106807000D02*
X143510000Y-98425000D01*
X106800000Y-111750000D02*
X107960000Y-111750000D01*
X107960000Y-111750000D02*
X112141000Y-107569000D01*
X112141000Y-107569000D02*
X136906000Y-107569000D01*
X136906000Y-107569000D02*
X146050000Y-98425000D01*
X106800000Y-106750000D02*
X109785000Y-106750000D01*
X109785000Y-106750000D02*
X112903000Y-103632000D01*
X112903000Y-103632000D02*
X130683000Y-103632000D01*
X130683000Y-103632000D02*
X135890000Y-98425000D01*
X123660000Y-129000000D02*
X123660000Y-130518000D01*
X123660000Y-130518000D02*
X124587000Y-131445000D01*
X124587000Y-131445000D02*
X127762000Y-131445000D01*
X127762000Y-131445000D02*
X128524000Y-130683000D01*
X128524000Y-130683000D02*
X128524000Y-126492000D01*
X128524000Y-126492000D02*
X126972000Y-124940000D01*
X126972000Y-124940000D02*
X119763000Y-124940000D01*
X105150000Y-118000000D02*
X186419000Y-118000000D01*
X186419000Y-118000000D02*
X190169000Y-114250000D01*
X190169000Y-114250000D02*
X193300000Y-114250000D01*
D21*
X146240000Y-132400000D02*
X144951500Y-133688500D01*
X144951500Y-133688500D02*
X137528500Y-133688500D01*
X137528500Y-133688500D02*
X136240000Y-132400000D01*
D20*
X138430000Y-80645000D02*
X138430000Y-84582000D01*
X105150000Y-103000000D02*
X111122000Y-103000000D01*
X111122000Y-103000000D02*
X128270000Y-85852000D01*
X128270000Y-85852000D02*
X188595000Y-85852000D01*
X188595000Y-85852000D02*
X199517000Y-96774000D01*
X199517000Y-96774000D02*
X199517000Y-105812614D01*
X199517000Y-105812614D02*
X198579614Y-106750000D01*
X198579614Y-106750000D02*
X193300000Y-106750000D01*
X181102000Y-106172000D02*
X181102000Y-104250000D01*
X174735000Y-104250000D02*
X181102000Y-104250000D01*
X193300000Y-116750000D02*
X191098000Y-116750000D01*
X191098000Y-116750000D02*
X183657000Y-124191000D01*
X183657000Y-124191000D02*
X183657000Y-126590000D01*
X194950000Y-115500000D02*
X190697000Y-115500000D01*
X190697000Y-115500000D02*
X182407000Y-123790000D01*
X182407000Y-123790000D02*
X182407000Y-124940000D01*
X198300000Y-115500000D02*
X194950000Y-115500000D01*
X189040000Y-129000000D02*
X183293000Y-134747000D01*
X183293000Y-134747000D02*
X120523000Y-134747000D01*
X120523000Y-134747000D02*
X120523000Y-130943000D01*
X120523000Y-130943000D02*
X118580000Y-129000000D01*
X191580000Y-129000000D02*
X185198000Y-135382000D01*
X185198000Y-135382000D02*
X119888000Y-135382000D01*
X119888000Y-135382000D02*
X116040000Y-131534000D01*
X116040000Y-131534000D02*
X116040000Y-129000000D01*
X192900000Y-62500000D02*
X168259000Y-62500000D01*
X168259000Y-62500000D02*
X152019000Y-78740000D01*
X152019000Y-78740000D02*
X150495000Y-78740000D01*
X150495000Y-78740000D02*
X148590000Y-80645000D01*
X190900000Y-61250000D02*
X166209810Y-61250000D01*
X166209810Y-61250000D02*
X159063810Y-68396000D01*
X145866000Y-78289000D02*
X143510000Y-80645000D01*
X159063810Y-68396000D02*
X149536000Y-68396000D01*
X149536000Y-68396000D02*
X145866000Y-72066000D01*
X145866000Y-72066000D02*
X145866000Y-78289000D01*
X190900000Y-58750000D02*
X168072000Y-58750000D01*
X168072000Y-58750000D02*
X158877000Y-67945000D01*
X158877000Y-67945000D02*
X140208000Y-67945000D01*
X140208000Y-67945000D02*
X138430000Y-69723000D01*
X138430000Y-69723000D02*
X138430000Y-80645000D01*
X194950000Y-108000000D02*
X198300000Y-108000000D01*
X194950000Y-103000000D02*
X198300000Y-103000000D01*
X192900000Y-62500000D02*
X192929000Y-62500000D01*
X192929000Y-62500000D02*
X194818000Y-64389000D01*
X194818000Y-64389000D02*
X194818000Y-65151000D01*
X194818000Y-65151000D02*
X193719000Y-66250000D01*
X193719000Y-66250000D02*
X190900000Y-66250000D01*
X190900000Y-56250000D02*
X194553000Y-56250000D01*
X194553000Y-56250000D02*
X194818000Y-56515000D01*
X194818000Y-56515000D02*
X194818000Y-60582000D01*
X194818000Y-60582000D02*
X192900000Y-62500000D01*
X168910000Y-98425000D02*
X174735000Y-104250000D01*
X181102000Y-104250000D02*
X193300000Y-104250000D01*
X171450000Y-98425000D02*
X176025000Y-103000000D01*
X176025000Y-103000000D02*
X194950000Y-103000000D01*
X101800000Y-110500000D02*
X105150000Y-110500000D01*
X101800000Y-105500000D02*
X105150000Y-105500000D01*
X101800000Y-115500000D02*
X105150000Y-115500000D01*
X105150000Y-103000000D02*
X104905000Y-103000000D01*
X104905000Y-103000000D02*
X103352500Y-101447500D01*
X107000000Y-55000000D02*
X101346000Y-60654000D01*
X101346000Y-60654000D02*
X101346000Y-99441000D01*
X101346000Y-99441000D02*
X103352500Y-101447500D01*
X133700000Y-132400000D02*
X133700000Y-130714000D01*
X133700000Y-130714000D02*
X135128000Y-129286000D01*
D21*
X166240000Y-132400000D02*
X164914500Y-133725500D01*
X157565500Y-133725500D02*
X156240000Y-132400000D01*
X154951500Y-133688500D02*
X156240000Y-132400000D01*
X147528500Y-133688500D02*
X154951500Y-133688500D01*
X146240000Y-132400000D02*
X147528500Y-133688500D01*
X164914500Y-133725500D02*
X157565500Y-133725500D01*
D20*
X143700000Y-132400000D02*
X143700000Y-130620000D01*
X143700000Y-130620000D02*
X145034000Y-129286000D01*
X153700000Y-132400000D02*
X153700000Y-130526000D01*
X153700000Y-130526000D02*
X154940000Y-129286000D01*
X163700000Y-130426000D02*
X164840000Y-129286000D01*
X163700000Y-132400000D02*
X163700000Y-130426000D01*
X107000000Y-62500000D02*
X105394000Y-62500000D01*
X105394000Y-62500000D02*
X104394000Y-63500000D01*
X104394000Y-61500000D02*
X105394000Y-62500000D01*
X104394000Y-63500000D02*
X104394000Y-66548000D01*
X104394000Y-66548000D02*
X105346000Y-67500000D01*
X105346000Y-67500000D02*
X107000000Y-67500000D01*
X105080000Y-58750000D02*
X104394000Y-59436000D01*
X104394000Y-59436000D02*
X104394000Y-61500000D01*
X109000000Y-58750000D02*
X105080000Y-58750000D01*
X192900000Y-65000000D02*
X193397000Y-65000000D01*
X105150000Y-118000000D02*
X101800000Y-118000000D01*
X194950000Y-110500000D02*
X198300000Y-110500000D01*
X129910000Y-56250000D02*
X109000000Y-56250000D01*
X133350000Y-80645000D02*
X133350000Y-59690000D01*
X133350000Y-59690000D02*
X129910000Y-56250000D01*
X190404000Y-127824000D02*
X191580000Y-129000000D01*
X192150000Y-57500000D02*
X190900000Y-58750000D01*
X192900000Y-57500000D02*
X192150000Y-57500000D01*
X187407000Y-124940000D02*
X187407000Y-126869614D01*
X187407000Y-126869614D02*
X188361386Y-127824000D01*
X188361386Y-127824000D02*
X190404000Y-127824000D01*
X103352500Y-101447500D02*
X101800000Y-103000000D01*
X124135000Y-60000000D02*
X125730000Y-61595000D01*
X107000000Y-60000000D02*
X124135000Y-60000000D01*
X125730000Y-61595000D02*
X125730000Y-80645000D01*
X121662000Y-63750000D02*
X123190000Y-65278000D01*
X105150000Y-113000000D02*
X101800000Y-113000000D01*
X123190000Y-65278000D02*
X123190000Y-80645000D01*
X109000000Y-63750000D02*
X121662000Y-63750000D01*
X178880000Y-128867000D02*
X178880000Y-129000000D01*
X181157000Y-126590000D02*
X178880000Y-128867000D01*
X183657000Y-128697000D02*
X183657000Y-126590000D01*
X183960000Y-129000000D02*
X183657000Y-128697000D01*
X181420000Y-129000000D02*
X182407000Y-128013000D01*
X182407000Y-128013000D02*
X182407000Y-124940000D01*
X186500000Y-129000000D02*
X184907000Y-127407000D01*
X184907000Y-127407000D02*
X184907000Y-124940000D01*
X126200000Y-129000000D02*
X123790000Y-126590000D01*
X123790000Y-126590000D02*
X121013000Y-126590000D01*
X188567000Y-129000000D02*
X189040000Y-129000000D01*
X186157000Y-126590000D02*
X188567000Y-129000000D01*
M02*
