G04 #@! TF.GenerationSoftware,KiCad,Pcbnew,9.0.1-9.0.1-0~ubuntu22.04.1*
G04 #@! TF.CreationDate,2025-04-10T12:51:45-07:00*
G04 #@! TF.ProjectId,kicad_port,6b696361-645f-4706-9f72-742e6b696361,rev?*
G04 #@! TF.SameCoordinates,Original*
G04 #@! TF.FileFunction,Legend,Top*
G04 #@! TF.FilePolarity,Positive*
%FSLAX46Y46*%
G04 Gerber Fmt 4.6, Leading zero omitted, Abs format (unit mm)*
G04 Created by KiCad (PCBNEW 9.0.1-9.0.1-0~ubuntu22.04.1) date 2025-04-10 12:51:45*
%MOMM*%
%LPD*%
G01*
G04 APERTURE LIST*
%ADD10C,0.300000*%
%ADD11C,0.150000*%
%ADD12C,0.120000*%
%ADD13O,4.750000X2.250000*%
%ADD14O,1.400000X1.400000*%
%ADD15C,1.400000*%
%ADD16O,1.700000X1.700000*%
%ADD17R,1.700000X1.700000*%
%ADD18R,1.800000X1.800000*%
%ADD19C,1.800000*%
%ADD20C,8.600000*%
%ADD21O,2.000000X1.200000*%
%ADD22C,1.511200*%
%ADD23C,6.500000*%
%ADD24C,1.638200*%
G04 APERTURE END LIST*
D10*
X112155653Y-67542870D02*
X111655653Y-66828584D01*
X111298510Y-67542870D02*
X111298510Y-66042870D01*
X111298510Y-66042870D02*
X111869939Y-66042870D01*
X111869939Y-66042870D02*
X112012796Y-66114299D01*
X112012796Y-66114299D02*
X112084225Y-66185727D01*
X112084225Y-66185727D02*
X112155653Y-66328584D01*
X112155653Y-66328584D02*
X112155653Y-66542870D01*
X112155653Y-66542870D02*
X112084225Y-66685727D01*
X112084225Y-66685727D02*
X112012796Y-66757156D01*
X112012796Y-66757156D02*
X111869939Y-66828584D01*
X111869939Y-66828584D02*
X111298510Y-66828584D01*
X112798510Y-67542870D02*
X112798510Y-66042870D01*
X112798510Y-66042870D02*
X113369939Y-66042870D01*
X113369939Y-66042870D02*
X113512796Y-66114299D01*
X113512796Y-66114299D02*
X113584225Y-66185727D01*
X113584225Y-66185727D02*
X113655653Y-66328584D01*
X113655653Y-66328584D02*
X113655653Y-66542870D01*
X113655653Y-66542870D02*
X113584225Y-66685727D01*
X113584225Y-66685727D02*
X113512796Y-66757156D01*
X113512796Y-66757156D02*
X113369939Y-66828584D01*
X113369939Y-66828584D02*
X112798510Y-66828584D01*
X114227082Y-66185727D02*
X114298510Y-66114299D01*
X114298510Y-66114299D02*
X114441368Y-66042870D01*
X114441368Y-66042870D02*
X114798510Y-66042870D01*
X114798510Y-66042870D02*
X114941368Y-66114299D01*
X114941368Y-66114299D02*
X115012796Y-66185727D01*
X115012796Y-66185727D02*
X115084225Y-66328584D01*
X115084225Y-66328584D02*
X115084225Y-66471442D01*
X115084225Y-66471442D02*
X115012796Y-66685727D01*
X115012796Y-66685727D02*
X114155653Y-67542870D01*
X114155653Y-67542870D02*
X115084225Y-67542870D01*
X116012796Y-66042870D02*
X116155653Y-66042870D01*
X116155653Y-66042870D02*
X116298510Y-66114299D01*
X116298510Y-66114299D02*
X116369939Y-66185727D01*
X116369939Y-66185727D02*
X116441367Y-66328584D01*
X116441367Y-66328584D02*
X116512796Y-66614299D01*
X116512796Y-66614299D02*
X116512796Y-66971442D01*
X116512796Y-66971442D02*
X116441367Y-67257156D01*
X116441367Y-67257156D02*
X116369939Y-67400013D01*
X116369939Y-67400013D02*
X116298510Y-67471442D01*
X116298510Y-67471442D02*
X116155653Y-67542870D01*
X116155653Y-67542870D02*
X116012796Y-67542870D01*
X116012796Y-67542870D02*
X115869939Y-67471442D01*
X115869939Y-67471442D02*
X115798510Y-67400013D01*
X115798510Y-67400013D02*
X115727081Y-67257156D01*
X115727081Y-67257156D02*
X115655653Y-66971442D01*
X115655653Y-66971442D02*
X115655653Y-66614299D01*
X115655653Y-66614299D02*
X115727081Y-66328584D01*
X115727081Y-66328584D02*
X115798510Y-66185727D01*
X115798510Y-66185727D02*
X115869939Y-66114299D01*
X115869939Y-66114299D02*
X116012796Y-66042870D01*
X117798510Y-66542870D02*
X117798510Y-67542870D01*
X117441367Y-65971442D02*
X117084224Y-67042870D01*
X117084224Y-67042870D02*
X118012795Y-67042870D01*
X118869938Y-66042870D02*
X119012795Y-66042870D01*
X119012795Y-66042870D02*
X119155652Y-66114299D01*
X119155652Y-66114299D02*
X119227081Y-66185727D01*
X119227081Y-66185727D02*
X119298509Y-66328584D01*
X119298509Y-66328584D02*
X119369938Y-66614299D01*
X119369938Y-66614299D02*
X119369938Y-66971442D01*
X119369938Y-66971442D02*
X119298509Y-67257156D01*
X119298509Y-67257156D02*
X119227081Y-67400013D01*
X119227081Y-67400013D02*
X119155652Y-67471442D01*
X119155652Y-67471442D02*
X119012795Y-67542870D01*
X119012795Y-67542870D02*
X118869938Y-67542870D01*
X118869938Y-67542870D02*
X118727081Y-67471442D01*
X118727081Y-67471442D02*
X118655652Y-67400013D01*
X118655652Y-67400013D02*
X118584223Y-67257156D01*
X118584223Y-67257156D02*
X118512795Y-66971442D01*
X118512795Y-66971442D02*
X118512795Y-66614299D01*
X118512795Y-66614299D02*
X118584223Y-66328584D01*
X118584223Y-66328584D02*
X118655652Y-66185727D01*
X118655652Y-66185727D02*
X118727081Y-66114299D01*
X118727081Y-66114299D02*
X118869938Y-66042870D01*
X121155651Y-67542870D02*
X121155651Y-66042870D01*
X121155651Y-66042870D02*
X121727080Y-66042870D01*
X121727080Y-66042870D02*
X121869937Y-66114299D01*
X121869937Y-66114299D02*
X121941366Y-66185727D01*
X121941366Y-66185727D02*
X122012794Y-66328584D01*
X122012794Y-66328584D02*
X122012794Y-66542870D01*
X122012794Y-66542870D02*
X121941366Y-66685727D01*
X121941366Y-66685727D02*
X121869937Y-66757156D01*
X121869937Y-66757156D02*
X121727080Y-66828584D01*
X121727080Y-66828584D02*
X121155651Y-66828584D01*
X122655651Y-67542870D02*
X122655651Y-66542870D01*
X122655651Y-66042870D02*
X122584223Y-66114299D01*
X122584223Y-66114299D02*
X122655651Y-66185727D01*
X122655651Y-66185727D02*
X122727080Y-66114299D01*
X122727080Y-66114299D02*
X122655651Y-66042870D01*
X122655651Y-66042870D02*
X122655651Y-66185727D01*
X124012795Y-67471442D02*
X123869937Y-67542870D01*
X123869937Y-67542870D02*
X123584223Y-67542870D01*
X123584223Y-67542870D02*
X123441366Y-67471442D01*
X123441366Y-67471442D02*
X123369937Y-67400013D01*
X123369937Y-67400013D02*
X123298509Y-67257156D01*
X123298509Y-67257156D02*
X123298509Y-66828584D01*
X123298509Y-66828584D02*
X123369937Y-66685727D01*
X123369937Y-66685727D02*
X123441366Y-66614299D01*
X123441366Y-66614299D02*
X123584223Y-66542870D01*
X123584223Y-66542870D02*
X123869937Y-66542870D01*
X123869937Y-66542870D02*
X124012795Y-66614299D01*
X124869937Y-67542870D02*
X124727080Y-67471442D01*
X124727080Y-67471442D02*
X124655651Y-67400013D01*
X124655651Y-67400013D02*
X124584223Y-67257156D01*
X124584223Y-67257156D02*
X124584223Y-66828584D01*
X124584223Y-66828584D02*
X124655651Y-66685727D01*
X124655651Y-66685727D02*
X124727080Y-66614299D01*
X124727080Y-66614299D02*
X124869937Y-66542870D01*
X124869937Y-66542870D02*
X125084223Y-66542870D01*
X125084223Y-66542870D02*
X125227080Y-66614299D01*
X125227080Y-66614299D02*
X125298509Y-66685727D01*
X125298509Y-66685727D02*
X125369937Y-66828584D01*
X125369937Y-66828584D02*
X125369937Y-67257156D01*
X125369937Y-67257156D02*
X125298509Y-67400013D01*
X125298509Y-67400013D02*
X125227080Y-67471442D01*
X125227080Y-67471442D02*
X125084223Y-67542870D01*
X125084223Y-67542870D02*
X124869937Y-67542870D01*
X127155651Y-67542870D02*
X127155651Y-66042870D01*
X127155651Y-66042870D02*
X127655651Y-67114299D01*
X127655651Y-67114299D02*
X128155651Y-66042870D01*
X128155651Y-66042870D02*
X128155651Y-67542870D01*
X129084223Y-67542870D02*
X128941366Y-67471442D01*
X128941366Y-67471442D02*
X128869937Y-67400013D01*
X128869937Y-67400013D02*
X128798509Y-67257156D01*
X128798509Y-67257156D02*
X128798509Y-66828584D01*
X128798509Y-66828584D02*
X128869937Y-66685727D01*
X128869937Y-66685727D02*
X128941366Y-66614299D01*
X128941366Y-66614299D02*
X129084223Y-66542870D01*
X129084223Y-66542870D02*
X129298509Y-66542870D01*
X129298509Y-66542870D02*
X129441366Y-66614299D01*
X129441366Y-66614299D02*
X129512795Y-66685727D01*
X129512795Y-66685727D02*
X129584223Y-66828584D01*
X129584223Y-66828584D02*
X129584223Y-67257156D01*
X129584223Y-67257156D02*
X129512795Y-67400013D01*
X129512795Y-67400013D02*
X129441366Y-67471442D01*
X129441366Y-67471442D02*
X129298509Y-67542870D01*
X129298509Y-67542870D02*
X129084223Y-67542870D01*
X130869938Y-67542870D02*
X130869938Y-66042870D01*
X130869938Y-67471442D02*
X130727080Y-67542870D01*
X130727080Y-67542870D02*
X130441366Y-67542870D01*
X130441366Y-67542870D02*
X130298509Y-67471442D01*
X130298509Y-67471442D02*
X130227080Y-67400013D01*
X130227080Y-67400013D02*
X130155652Y-67257156D01*
X130155652Y-67257156D02*
X130155652Y-66828584D01*
X130155652Y-66828584D02*
X130227080Y-66685727D01*
X130227080Y-66685727D02*
X130298509Y-66614299D01*
X130298509Y-66614299D02*
X130441366Y-66542870D01*
X130441366Y-66542870D02*
X130727080Y-66542870D01*
X130727080Y-66542870D02*
X130869938Y-66614299D01*
X111298510Y-69957786D02*
X111298510Y-68457786D01*
X111298510Y-69029215D02*
X111441368Y-68957786D01*
X111441368Y-68957786D02*
X111727082Y-68957786D01*
X111727082Y-68957786D02*
X111869939Y-69029215D01*
X111869939Y-69029215D02*
X111941368Y-69100643D01*
X111941368Y-69100643D02*
X112012796Y-69243500D01*
X112012796Y-69243500D02*
X112012796Y-69672072D01*
X112012796Y-69672072D02*
X111941368Y-69814929D01*
X111941368Y-69814929D02*
X111869939Y-69886358D01*
X111869939Y-69886358D02*
X111727082Y-69957786D01*
X111727082Y-69957786D02*
X111441368Y-69957786D01*
X111441368Y-69957786D02*
X111298510Y-69886358D01*
X112512796Y-68957786D02*
X112869939Y-69957786D01*
X113227082Y-68957786D02*
X112869939Y-69957786D01*
X112869939Y-69957786D02*
X112727082Y-70314929D01*
X112727082Y-70314929D02*
X112655653Y-70386358D01*
X112655653Y-70386358D02*
X112512796Y-70457786D01*
X115155653Y-69957786D02*
X115012796Y-69886358D01*
X115012796Y-69886358D02*
X114941367Y-69814929D01*
X114941367Y-69814929D02*
X114869939Y-69672072D01*
X114869939Y-69672072D02*
X114869939Y-69243500D01*
X114869939Y-69243500D02*
X114941367Y-69100643D01*
X114941367Y-69100643D02*
X115012796Y-69029215D01*
X115012796Y-69029215D02*
X115155653Y-68957786D01*
X115155653Y-68957786D02*
X115369939Y-68957786D01*
X115369939Y-68957786D02*
X115512796Y-69029215D01*
X115512796Y-69029215D02*
X115584225Y-69100643D01*
X115584225Y-69100643D02*
X115655653Y-69243500D01*
X115655653Y-69243500D02*
X115655653Y-69672072D01*
X115655653Y-69672072D02*
X115584225Y-69814929D01*
X115584225Y-69814929D02*
X115512796Y-69886358D01*
X115512796Y-69886358D02*
X115369939Y-69957786D01*
X115369939Y-69957786D02*
X115155653Y-69957786D01*
X116298510Y-68957786D02*
X116298510Y-69957786D01*
X116298510Y-69100643D02*
X116369939Y-69029215D01*
X116369939Y-69029215D02*
X116512796Y-68957786D01*
X116512796Y-68957786D02*
X116727082Y-68957786D01*
X116727082Y-68957786D02*
X116869939Y-69029215D01*
X116869939Y-69029215D02*
X116941368Y-69172072D01*
X116941368Y-69172072D02*
X116941368Y-69957786D01*
X118227082Y-69886358D02*
X118084225Y-69957786D01*
X118084225Y-69957786D02*
X117798511Y-69957786D01*
X117798511Y-69957786D02*
X117655653Y-69886358D01*
X117655653Y-69886358D02*
X117584225Y-69743500D01*
X117584225Y-69743500D02*
X117584225Y-69172072D01*
X117584225Y-69172072D02*
X117655653Y-69029215D01*
X117655653Y-69029215D02*
X117798511Y-68957786D01*
X117798511Y-68957786D02*
X118084225Y-68957786D01*
X118084225Y-68957786D02*
X118227082Y-69029215D01*
X118227082Y-69029215D02*
X118298511Y-69172072D01*
X118298511Y-69172072D02*
X118298511Y-69314929D01*
X118298511Y-69314929D02*
X117584225Y-69457786D01*
X119155653Y-69957786D02*
X119012796Y-69886358D01*
X119012796Y-69886358D02*
X118941367Y-69743500D01*
X118941367Y-69743500D02*
X118941367Y-68457786D01*
X120298510Y-69886358D02*
X120155653Y-69957786D01*
X120155653Y-69957786D02*
X119869939Y-69957786D01*
X119869939Y-69957786D02*
X119727081Y-69886358D01*
X119727081Y-69886358D02*
X119655653Y-69743500D01*
X119655653Y-69743500D02*
X119655653Y-69172072D01*
X119655653Y-69172072D02*
X119727081Y-69029215D01*
X119727081Y-69029215D02*
X119869939Y-68957786D01*
X119869939Y-68957786D02*
X120155653Y-68957786D01*
X120155653Y-68957786D02*
X120298510Y-69029215D01*
X120298510Y-69029215D02*
X120369939Y-69172072D01*
X120369939Y-69172072D02*
X120369939Y-69314929D01*
X120369939Y-69314929D02*
X119655653Y-69457786D01*
X121655653Y-69957786D02*
X121655653Y-69172072D01*
X121655653Y-69172072D02*
X121584224Y-69029215D01*
X121584224Y-69029215D02*
X121441367Y-68957786D01*
X121441367Y-68957786D02*
X121155653Y-68957786D01*
X121155653Y-68957786D02*
X121012795Y-69029215D01*
X121655653Y-69886358D02*
X121512795Y-69957786D01*
X121512795Y-69957786D02*
X121155653Y-69957786D01*
X121155653Y-69957786D02*
X121012795Y-69886358D01*
X121012795Y-69886358D02*
X120941367Y-69743500D01*
X120941367Y-69743500D02*
X120941367Y-69600643D01*
X120941367Y-69600643D02*
X121012795Y-69457786D01*
X121012795Y-69457786D02*
X121155653Y-69386358D01*
X121155653Y-69386358D02*
X121512795Y-69386358D01*
X121512795Y-69386358D02*
X121655653Y-69314929D01*
X122155653Y-68957786D02*
X122727081Y-68957786D01*
X122369938Y-69957786D02*
X122369938Y-68672072D01*
X122369938Y-68672072D02*
X122441367Y-68529215D01*
X122441367Y-68529215D02*
X122584224Y-68457786D01*
X122584224Y-68457786D02*
X122727081Y-68457786D01*
X123012796Y-68957786D02*
X123584224Y-68957786D01*
X123227081Y-68457786D02*
X123227081Y-69743500D01*
X123227081Y-69743500D02*
X123298510Y-69886358D01*
X123298510Y-69886358D02*
X123441367Y-69957786D01*
X123441367Y-69957786D02*
X123584224Y-69957786D01*
X124655653Y-69886358D02*
X124512796Y-69957786D01*
X124512796Y-69957786D02*
X124227082Y-69957786D01*
X124227082Y-69957786D02*
X124084224Y-69886358D01*
X124084224Y-69886358D02*
X124012796Y-69743500D01*
X124012796Y-69743500D02*
X124012796Y-69172072D01*
X124012796Y-69172072D02*
X124084224Y-69029215D01*
X124084224Y-69029215D02*
X124227082Y-68957786D01*
X124227082Y-68957786D02*
X124512796Y-68957786D01*
X124512796Y-68957786D02*
X124655653Y-69029215D01*
X124655653Y-69029215D02*
X124727082Y-69172072D01*
X124727082Y-69172072D02*
X124727082Y-69314929D01*
X124727082Y-69314929D02*
X124012796Y-69457786D01*
X126012796Y-69957786D02*
X126012796Y-69172072D01*
X126012796Y-69172072D02*
X125941367Y-69029215D01*
X125941367Y-69029215D02*
X125798510Y-68957786D01*
X125798510Y-68957786D02*
X125512796Y-68957786D01*
X125512796Y-68957786D02*
X125369938Y-69029215D01*
X126012796Y-69886358D02*
X125869938Y-69957786D01*
X125869938Y-69957786D02*
X125512796Y-69957786D01*
X125512796Y-69957786D02*
X125369938Y-69886358D01*
X125369938Y-69886358D02*
X125298510Y-69743500D01*
X125298510Y-69743500D02*
X125298510Y-69600643D01*
X125298510Y-69600643D02*
X125369938Y-69457786D01*
X125369938Y-69457786D02*
X125512796Y-69386358D01*
X125512796Y-69386358D02*
X125869938Y-69386358D01*
X125869938Y-69386358D02*
X126012796Y-69314929D01*
X128298510Y-70529215D02*
X128227081Y-70457786D01*
X128227081Y-70457786D02*
X128084224Y-70243500D01*
X128084224Y-70243500D02*
X128012796Y-70100643D01*
X128012796Y-70100643D02*
X127941367Y-69886358D01*
X127941367Y-69886358D02*
X127869938Y-69529215D01*
X127869938Y-69529215D02*
X127869938Y-69243500D01*
X127869938Y-69243500D02*
X127941367Y-68886358D01*
X127941367Y-68886358D02*
X128012796Y-68672072D01*
X128012796Y-68672072D02*
X128084224Y-68529215D01*
X128084224Y-68529215D02*
X128227081Y-68314929D01*
X128227081Y-68314929D02*
X128298510Y-68243500D01*
X129727081Y-69957786D02*
X129227081Y-69243500D01*
X128869938Y-69957786D02*
X128869938Y-68457786D01*
X128869938Y-68457786D02*
X129441367Y-68457786D01*
X129441367Y-68457786D02*
X129584224Y-68529215D01*
X129584224Y-68529215D02*
X129655653Y-68600643D01*
X129655653Y-68600643D02*
X129727081Y-68743500D01*
X129727081Y-68743500D02*
X129727081Y-68957786D01*
X129727081Y-68957786D02*
X129655653Y-69100643D01*
X129655653Y-69100643D02*
X129584224Y-69172072D01*
X129584224Y-69172072D02*
X129441367Y-69243500D01*
X129441367Y-69243500D02*
X128869938Y-69243500D01*
X130941367Y-69886358D02*
X130798510Y-69957786D01*
X130798510Y-69957786D02*
X130512796Y-69957786D01*
X130512796Y-69957786D02*
X130369938Y-69886358D01*
X130369938Y-69886358D02*
X130298510Y-69743500D01*
X130298510Y-69743500D02*
X130298510Y-69172072D01*
X130298510Y-69172072D02*
X130369938Y-69029215D01*
X130369938Y-69029215D02*
X130512796Y-68957786D01*
X130512796Y-68957786D02*
X130798510Y-68957786D01*
X130798510Y-68957786D02*
X130941367Y-69029215D01*
X130941367Y-69029215D02*
X131012796Y-69172072D01*
X131012796Y-69172072D02*
X131012796Y-69314929D01*
X131012796Y-69314929D02*
X130298510Y-69457786D01*
X131512795Y-68957786D02*
X131869938Y-69957786D01*
X131869938Y-69957786D02*
X132227081Y-68957786D01*
X134727081Y-69957786D02*
X133869938Y-69957786D01*
X134298509Y-69957786D02*
X134298509Y-68457786D01*
X134298509Y-68457786D02*
X134155652Y-68672072D01*
X134155652Y-68672072D02*
X134012795Y-68814929D01*
X134012795Y-68814929D02*
X133869938Y-68886358D01*
X135227080Y-70529215D02*
X135298509Y-70457786D01*
X135298509Y-70457786D02*
X135441366Y-70243500D01*
X135441366Y-70243500D02*
X135512795Y-70100643D01*
X135512795Y-70100643D02*
X135584223Y-69886358D01*
X135584223Y-69886358D02*
X135655652Y-69529215D01*
X135655652Y-69529215D02*
X135655652Y-69243500D01*
X135655652Y-69243500D02*
X135584223Y-68886358D01*
X135584223Y-68886358D02*
X135512795Y-68672072D01*
X135512795Y-68672072D02*
X135441366Y-68529215D01*
X135441366Y-68529215D02*
X135298509Y-68314929D01*
X135298509Y-68314929D02*
X135227080Y-68243500D01*
X131124000Y-118899471D02*
X131052572Y-118970900D01*
X131052572Y-118970900D02*
X130838286Y-119042328D01*
X130838286Y-119042328D02*
X130695429Y-119042328D01*
X130695429Y-119042328D02*
X130481143Y-118970900D01*
X130481143Y-118970900D02*
X130338286Y-118828042D01*
X130338286Y-118828042D02*
X130266857Y-118685185D01*
X130266857Y-118685185D02*
X130195429Y-118399471D01*
X130195429Y-118399471D02*
X130195429Y-118185185D01*
X130195429Y-118185185D02*
X130266857Y-117899471D01*
X130266857Y-117899471D02*
X130338286Y-117756614D01*
X130338286Y-117756614D02*
X130481143Y-117613757D01*
X130481143Y-117613757D02*
X130695429Y-117542328D01*
X130695429Y-117542328D02*
X130838286Y-117542328D01*
X130838286Y-117542328D02*
X131052572Y-117613757D01*
X131052572Y-117613757D02*
X131124000Y-117685185D01*
X131695429Y-118613757D02*
X132409715Y-118613757D01*
X131552572Y-119042328D02*
X132052572Y-117542328D01*
X132052572Y-117542328D02*
X132552572Y-119042328D01*
X133052571Y-119042328D02*
X133052571Y-117542328D01*
X133052571Y-117542328D02*
X133624000Y-117542328D01*
X133624000Y-117542328D02*
X133766857Y-117613757D01*
X133766857Y-117613757D02*
X133838286Y-117685185D01*
X133838286Y-117685185D02*
X133909714Y-117828042D01*
X133909714Y-117828042D02*
X133909714Y-118042328D01*
X133909714Y-118042328D02*
X133838286Y-118185185D01*
X133838286Y-118185185D02*
X133766857Y-118256614D01*
X133766857Y-118256614D02*
X133624000Y-118328042D01*
X133624000Y-118328042D02*
X133052571Y-118328042D01*
X134481143Y-118970900D02*
X134695429Y-119042328D01*
X134695429Y-119042328D02*
X135052571Y-119042328D01*
X135052571Y-119042328D02*
X135195429Y-118970900D01*
X135195429Y-118970900D02*
X135266857Y-118899471D01*
X135266857Y-118899471D02*
X135338286Y-118756614D01*
X135338286Y-118756614D02*
X135338286Y-118613757D01*
X135338286Y-118613757D02*
X135266857Y-118470900D01*
X135266857Y-118470900D02*
X135195429Y-118399471D01*
X135195429Y-118399471D02*
X135052571Y-118328042D01*
X135052571Y-118328042D02*
X134766857Y-118256614D01*
X134766857Y-118256614D02*
X134624000Y-118185185D01*
X134624000Y-118185185D02*
X134552571Y-118113757D01*
X134552571Y-118113757D02*
X134481143Y-117970900D01*
X134481143Y-117970900D02*
X134481143Y-117828042D01*
X134481143Y-117828042D02*
X134552571Y-117685185D01*
X134552571Y-117685185D02*
X134624000Y-117613757D01*
X134624000Y-117613757D02*
X134766857Y-117542328D01*
X134766857Y-117542328D02*
X135124000Y-117542328D01*
X135124000Y-117542328D02*
X135338286Y-117613757D01*
X136695428Y-119042328D02*
X135981142Y-119042328D01*
X135981142Y-119042328D02*
X135981142Y-117542328D01*
X138052571Y-118899471D02*
X137981143Y-118970900D01*
X137981143Y-118970900D02*
X137766857Y-119042328D01*
X137766857Y-119042328D02*
X137624000Y-119042328D01*
X137624000Y-119042328D02*
X137409714Y-118970900D01*
X137409714Y-118970900D02*
X137266857Y-118828042D01*
X137266857Y-118828042D02*
X137195428Y-118685185D01*
X137195428Y-118685185D02*
X137124000Y-118399471D01*
X137124000Y-118399471D02*
X137124000Y-118185185D01*
X137124000Y-118185185D02*
X137195428Y-117899471D01*
X137195428Y-117899471D02*
X137266857Y-117756614D01*
X137266857Y-117756614D02*
X137409714Y-117613757D01*
X137409714Y-117613757D02*
X137624000Y-117542328D01*
X137624000Y-117542328D02*
X137766857Y-117542328D01*
X137766857Y-117542328D02*
X137981143Y-117613757D01*
X137981143Y-117613757D02*
X138052571Y-117685185D01*
X138695428Y-119042328D02*
X138695428Y-117542328D01*
X139552571Y-119042328D02*
X138909714Y-118185185D01*
X139552571Y-117542328D02*
X138695428Y-118399471D01*
X160988857Y-118788328D02*
X160988857Y-117288328D01*
X161846000Y-118788328D02*
X161203143Y-117931185D01*
X161846000Y-117288328D02*
X160988857Y-118145471D01*
X162488857Y-118002614D02*
X162988857Y-118002614D01*
X163203143Y-118788328D02*
X162488857Y-118788328D01*
X162488857Y-118788328D02*
X162488857Y-117288328D01*
X162488857Y-117288328D02*
X163203143Y-117288328D01*
X164131715Y-118074042D02*
X164131715Y-118788328D01*
X163631715Y-117288328D02*
X164131715Y-118074042D01*
X164131715Y-118074042D02*
X164631715Y-117288328D01*
X165131714Y-118788328D02*
X165131714Y-117288328D01*
X165131714Y-117288328D02*
X165703143Y-117288328D01*
X165703143Y-117288328D02*
X165846000Y-117359757D01*
X165846000Y-117359757D02*
X165917429Y-117431185D01*
X165917429Y-117431185D02*
X165988857Y-117574042D01*
X165988857Y-117574042D02*
X165988857Y-117788328D01*
X165988857Y-117788328D02*
X165917429Y-117931185D01*
X165917429Y-117931185D02*
X165846000Y-118002614D01*
X165846000Y-118002614D02*
X165703143Y-118074042D01*
X165703143Y-118074042D02*
X165131714Y-118074042D01*
X166560286Y-118359757D02*
X167274572Y-118359757D01*
X166417429Y-118788328D02*
X166917429Y-117288328D01*
X166917429Y-117288328D02*
X167417429Y-118788328D01*
X167917428Y-118788328D02*
X167917428Y-117288328D01*
X167917428Y-117288328D02*
X168274571Y-117288328D01*
X168274571Y-117288328D02*
X168488857Y-117359757D01*
X168488857Y-117359757D02*
X168631714Y-117502614D01*
X168631714Y-117502614D02*
X168703143Y-117645471D01*
X168703143Y-117645471D02*
X168774571Y-117931185D01*
X168774571Y-117931185D02*
X168774571Y-118145471D01*
X168774571Y-118145471D02*
X168703143Y-118431185D01*
X168703143Y-118431185D02*
X168631714Y-118574042D01*
X168631714Y-118574042D02*
X168488857Y-118716900D01*
X168488857Y-118716900D02*
X168274571Y-118788328D01*
X168274571Y-118788328D02*
X167917428Y-118788328D01*
X151031286Y-118843900D02*
X151245572Y-118915328D01*
X151245572Y-118915328D02*
X151602714Y-118915328D01*
X151602714Y-118915328D02*
X151745572Y-118843900D01*
X151745572Y-118843900D02*
X151817000Y-118772471D01*
X151817000Y-118772471D02*
X151888429Y-118629614D01*
X151888429Y-118629614D02*
X151888429Y-118486757D01*
X151888429Y-118486757D02*
X151817000Y-118343900D01*
X151817000Y-118343900D02*
X151745572Y-118272471D01*
X151745572Y-118272471D02*
X151602714Y-118201042D01*
X151602714Y-118201042D02*
X151317000Y-118129614D01*
X151317000Y-118129614D02*
X151174143Y-118058185D01*
X151174143Y-118058185D02*
X151102714Y-117986757D01*
X151102714Y-117986757D02*
X151031286Y-117843900D01*
X151031286Y-117843900D02*
X151031286Y-117701042D01*
X151031286Y-117701042D02*
X151102714Y-117558185D01*
X151102714Y-117558185D02*
X151174143Y-117486757D01*
X151174143Y-117486757D02*
X151317000Y-117415328D01*
X151317000Y-117415328D02*
X151674143Y-117415328D01*
X151674143Y-117415328D02*
X151888429Y-117486757D01*
X153388428Y-118772471D02*
X153317000Y-118843900D01*
X153317000Y-118843900D02*
X153102714Y-118915328D01*
X153102714Y-118915328D02*
X152959857Y-118915328D01*
X152959857Y-118915328D02*
X152745571Y-118843900D01*
X152745571Y-118843900D02*
X152602714Y-118701042D01*
X152602714Y-118701042D02*
X152531285Y-118558185D01*
X152531285Y-118558185D02*
X152459857Y-118272471D01*
X152459857Y-118272471D02*
X152459857Y-118058185D01*
X152459857Y-118058185D02*
X152531285Y-117772471D01*
X152531285Y-117772471D02*
X152602714Y-117629614D01*
X152602714Y-117629614D02*
X152745571Y-117486757D01*
X152745571Y-117486757D02*
X152959857Y-117415328D01*
X152959857Y-117415328D02*
X153102714Y-117415328D01*
X153102714Y-117415328D02*
X153317000Y-117486757D01*
X153317000Y-117486757D02*
X153388428Y-117558185D01*
X154888428Y-118915328D02*
X154388428Y-118201042D01*
X154031285Y-118915328D02*
X154031285Y-117415328D01*
X154031285Y-117415328D02*
X154602714Y-117415328D01*
X154602714Y-117415328D02*
X154745571Y-117486757D01*
X154745571Y-117486757D02*
X154817000Y-117558185D01*
X154817000Y-117558185D02*
X154888428Y-117701042D01*
X154888428Y-117701042D02*
X154888428Y-117915328D01*
X154888428Y-117915328D02*
X154817000Y-118058185D01*
X154817000Y-118058185D02*
X154745571Y-118129614D01*
X154745571Y-118129614D02*
X154602714Y-118201042D01*
X154602714Y-118201042D02*
X154031285Y-118201042D01*
X156245571Y-118915328D02*
X155531285Y-118915328D01*
X155531285Y-118915328D02*
X155531285Y-117415328D01*
X157602714Y-118772471D02*
X157531286Y-118843900D01*
X157531286Y-118843900D02*
X157317000Y-118915328D01*
X157317000Y-118915328D02*
X157174143Y-118915328D01*
X157174143Y-118915328D02*
X156959857Y-118843900D01*
X156959857Y-118843900D02*
X156817000Y-118701042D01*
X156817000Y-118701042D02*
X156745571Y-118558185D01*
X156745571Y-118558185D02*
X156674143Y-118272471D01*
X156674143Y-118272471D02*
X156674143Y-118058185D01*
X156674143Y-118058185D02*
X156745571Y-117772471D01*
X156745571Y-117772471D02*
X156817000Y-117629614D01*
X156817000Y-117629614D02*
X156959857Y-117486757D01*
X156959857Y-117486757D02*
X157174143Y-117415328D01*
X157174143Y-117415328D02*
X157317000Y-117415328D01*
X157317000Y-117415328D02*
X157531286Y-117486757D01*
X157531286Y-117486757D02*
X157602714Y-117558185D01*
X158245571Y-118915328D02*
X158245571Y-117415328D01*
X159102714Y-118915328D02*
X158459857Y-118058185D01*
X159102714Y-117415328D02*
X158245571Y-118272471D01*
X141109427Y-118915328D02*
X141109427Y-117415328D01*
X141109427Y-117415328D02*
X141966570Y-118915328D01*
X141966570Y-118915328D02*
X141966570Y-117415328D01*
X142680856Y-117415328D02*
X142680856Y-118629614D01*
X142680856Y-118629614D02*
X142752285Y-118772471D01*
X142752285Y-118772471D02*
X142823714Y-118843900D01*
X142823714Y-118843900D02*
X142966571Y-118915328D01*
X142966571Y-118915328D02*
X143252285Y-118915328D01*
X143252285Y-118915328D02*
X143395142Y-118843900D01*
X143395142Y-118843900D02*
X143466571Y-118772471D01*
X143466571Y-118772471D02*
X143537999Y-118629614D01*
X143537999Y-118629614D02*
X143537999Y-117415328D01*
X144252285Y-118915328D02*
X144252285Y-117415328D01*
X144252285Y-117415328D02*
X144752285Y-118486757D01*
X144752285Y-118486757D02*
X145252285Y-117415328D01*
X145252285Y-117415328D02*
X145252285Y-118915328D01*
X146680857Y-118915328D02*
X145966571Y-118915328D01*
X145966571Y-118915328D02*
X145966571Y-117415328D01*
X148038000Y-118772471D02*
X147966572Y-118843900D01*
X147966572Y-118843900D02*
X147752286Y-118915328D01*
X147752286Y-118915328D02*
X147609429Y-118915328D01*
X147609429Y-118915328D02*
X147395143Y-118843900D01*
X147395143Y-118843900D02*
X147252286Y-118701042D01*
X147252286Y-118701042D02*
X147180857Y-118558185D01*
X147180857Y-118558185D02*
X147109429Y-118272471D01*
X147109429Y-118272471D02*
X147109429Y-118058185D01*
X147109429Y-118058185D02*
X147180857Y-117772471D01*
X147180857Y-117772471D02*
X147252286Y-117629614D01*
X147252286Y-117629614D02*
X147395143Y-117486757D01*
X147395143Y-117486757D02*
X147609429Y-117415328D01*
X147609429Y-117415328D02*
X147752286Y-117415328D01*
X147752286Y-117415328D02*
X147966572Y-117486757D01*
X147966572Y-117486757D02*
X148038000Y-117558185D01*
X148680857Y-118915328D02*
X148680857Y-117415328D01*
X149538000Y-118915328D02*
X148895143Y-118058185D01*
X149538000Y-117415328D02*
X148680857Y-118272471D01*
D11*
X130421905Y-131584819D02*
X130421905Y-130584819D01*
X130421905Y-130584819D02*
X130660000Y-130584819D01*
X130660000Y-130584819D02*
X130802857Y-130632438D01*
X130802857Y-130632438D02*
X130898095Y-130727676D01*
X130898095Y-130727676D02*
X130945714Y-130822914D01*
X130945714Y-130822914D02*
X130993333Y-131013390D01*
X130993333Y-131013390D02*
X130993333Y-131156247D01*
X130993333Y-131156247D02*
X130945714Y-131346723D01*
X130945714Y-131346723D02*
X130898095Y-131441961D01*
X130898095Y-131441961D02*
X130802857Y-131537200D01*
X130802857Y-131537200D02*
X130660000Y-131584819D01*
X130660000Y-131584819D02*
X130421905Y-131584819D01*
X131945714Y-131584819D02*
X131374286Y-131584819D01*
X131660000Y-131584819D02*
X131660000Y-130584819D01*
X131660000Y-130584819D02*
X131564762Y-130727676D01*
X131564762Y-130727676D02*
X131469524Y-130822914D01*
X131469524Y-130822914D02*
X131374286Y-130870533D01*
X140421905Y-131584819D02*
X140421905Y-130584819D01*
X140421905Y-130584819D02*
X140660000Y-130584819D01*
X140660000Y-130584819D02*
X140802857Y-130632438D01*
X140802857Y-130632438D02*
X140898095Y-130727676D01*
X140898095Y-130727676D02*
X140945714Y-130822914D01*
X140945714Y-130822914D02*
X140993333Y-131013390D01*
X140993333Y-131013390D02*
X140993333Y-131156247D01*
X140993333Y-131156247D02*
X140945714Y-131346723D01*
X140945714Y-131346723D02*
X140898095Y-131441961D01*
X140898095Y-131441961D02*
X140802857Y-131537200D01*
X140802857Y-131537200D02*
X140660000Y-131584819D01*
X140660000Y-131584819D02*
X140421905Y-131584819D01*
X141374286Y-130680057D02*
X141421905Y-130632438D01*
X141421905Y-130632438D02*
X141517143Y-130584819D01*
X141517143Y-130584819D02*
X141755238Y-130584819D01*
X141755238Y-130584819D02*
X141850476Y-130632438D01*
X141850476Y-130632438D02*
X141898095Y-130680057D01*
X141898095Y-130680057D02*
X141945714Y-130775295D01*
X141945714Y-130775295D02*
X141945714Y-130870533D01*
X141945714Y-130870533D02*
X141898095Y-131013390D01*
X141898095Y-131013390D02*
X141326667Y-131584819D01*
X141326667Y-131584819D02*
X141945714Y-131584819D01*
X150421905Y-131584819D02*
X150421905Y-130584819D01*
X150421905Y-130584819D02*
X150660000Y-130584819D01*
X150660000Y-130584819D02*
X150802857Y-130632438D01*
X150802857Y-130632438D02*
X150898095Y-130727676D01*
X150898095Y-130727676D02*
X150945714Y-130822914D01*
X150945714Y-130822914D02*
X150993333Y-131013390D01*
X150993333Y-131013390D02*
X150993333Y-131156247D01*
X150993333Y-131156247D02*
X150945714Y-131346723D01*
X150945714Y-131346723D02*
X150898095Y-131441961D01*
X150898095Y-131441961D02*
X150802857Y-131537200D01*
X150802857Y-131537200D02*
X150660000Y-131584819D01*
X150660000Y-131584819D02*
X150421905Y-131584819D01*
X151326667Y-130584819D02*
X151945714Y-130584819D01*
X151945714Y-130584819D02*
X151612381Y-130965771D01*
X151612381Y-130965771D02*
X151755238Y-130965771D01*
X151755238Y-130965771D02*
X151850476Y-131013390D01*
X151850476Y-131013390D02*
X151898095Y-131061009D01*
X151898095Y-131061009D02*
X151945714Y-131156247D01*
X151945714Y-131156247D02*
X151945714Y-131394342D01*
X151945714Y-131394342D02*
X151898095Y-131489580D01*
X151898095Y-131489580D02*
X151850476Y-131537200D01*
X151850476Y-131537200D02*
X151755238Y-131584819D01*
X151755238Y-131584819D02*
X151469524Y-131584819D01*
X151469524Y-131584819D02*
X151374286Y-131537200D01*
X151374286Y-131537200D02*
X151326667Y-131489580D01*
X160421905Y-131584819D02*
X160421905Y-130584819D01*
X160421905Y-130584819D02*
X160660000Y-130584819D01*
X160660000Y-130584819D02*
X160802857Y-130632438D01*
X160802857Y-130632438D02*
X160898095Y-130727676D01*
X160898095Y-130727676D02*
X160945714Y-130822914D01*
X160945714Y-130822914D02*
X160993333Y-131013390D01*
X160993333Y-131013390D02*
X160993333Y-131156247D01*
X160993333Y-131156247D02*
X160945714Y-131346723D01*
X160945714Y-131346723D02*
X160898095Y-131441961D01*
X160898095Y-131441961D02*
X160802857Y-131537200D01*
X160802857Y-131537200D02*
X160660000Y-131584819D01*
X160660000Y-131584819D02*
X160421905Y-131584819D01*
X161850476Y-130918152D02*
X161850476Y-131584819D01*
X161612381Y-130537200D02*
X161374286Y-131251485D01*
X161374286Y-131251485D02*
X161993333Y-131251485D01*
X144447095Y-101154819D02*
X144447095Y-100154819D01*
X144447095Y-100631009D02*
X145018523Y-100631009D01*
X145018523Y-101154819D02*
X145018523Y-100154819D01*
X146018523Y-101154819D02*
X145447095Y-101154819D01*
X145732809Y-101154819D02*
X145732809Y-100154819D01*
X145732809Y-100154819D02*
X145637571Y-100297676D01*
X145637571Y-100297676D02*
X145542333Y-100392914D01*
X145542333Y-100392914D02*
X145447095Y-100440533D01*
D12*
X133410000Y-131164000D02*
X133410000Y-131320000D01*
X133410000Y-133480000D02*
X133410000Y-133636000D01*
X133410000Y-131164484D02*
G75*
G02*
X136642335Y-131321392I1560000J-1235516D01*
G01*
X133929039Y-131320000D02*
G75*
G02*
X136011130Y-131320163I1040961J-1080000D01*
G01*
X136011130Y-133479837D02*
G75*
G02*
X133929039Y-133480000I-1041130J1079837D01*
G01*
X136642335Y-133478608D02*
G75*
G02*
X133410000Y-133635516I-1672335J1078608D01*
G01*
X143410000Y-131164000D02*
X143410000Y-131320000D01*
X143410000Y-133480000D02*
X143410000Y-133636000D01*
X143410000Y-131164484D02*
G75*
G02*
X146642335Y-131321392I1560000J-1235516D01*
G01*
X143929039Y-131320000D02*
G75*
G02*
X146011130Y-131320163I1040961J-1080000D01*
G01*
X146011130Y-133479837D02*
G75*
G02*
X143929039Y-133480000I-1041130J1079837D01*
G01*
X146642335Y-133478608D02*
G75*
G02*
X143410000Y-133635516I-1672335J1078608D01*
G01*
X153410000Y-131164000D02*
X153410000Y-131320000D01*
X153410000Y-133480000D02*
X153410000Y-133636000D01*
X153410000Y-131164484D02*
G75*
G02*
X156642335Y-131321392I1560000J-1235516D01*
G01*
X153929039Y-131320000D02*
G75*
G02*
X156011130Y-131320163I1040961J-1080000D01*
G01*
X156011130Y-133479837D02*
G75*
G02*
X153929039Y-133480000I-1041130J1079837D01*
G01*
X156642335Y-133478608D02*
G75*
G02*
X153410000Y-133635516I-1672335J1078608D01*
G01*
X163410000Y-131164000D02*
X163410000Y-131320000D01*
X163410000Y-133480000D02*
X163410000Y-133636000D01*
X163410000Y-131164484D02*
G75*
G02*
X166642335Y-131321392I1560000J-1235516D01*
G01*
X163929039Y-131320000D02*
G75*
G02*
X166011130Y-131320163I1040961J-1080000D01*
G01*
X166011130Y-133479837D02*
G75*
G02*
X163929039Y-133480000I-1041130J1079837D01*
G01*
X166642335Y-133478608D02*
G75*
G02*
X163410000Y-133635516I-1672335J1078608D01*
G01*
%LPC*%
D13*
X190300000Y-97600000D03*
X109700000Y-97600000D03*
D14*
X135128000Y-124206000D03*
D15*
X135128000Y-129286000D03*
D16*
X171450000Y-98425000D03*
X168910000Y-98425000D03*
D17*
X166370000Y-98425000D03*
D16*
X163830000Y-98425000D03*
X161290000Y-98425000D03*
X158750000Y-98425000D03*
X156210000Y-98425000D03*
D17*
X153670000Y-98425000D03*
D16*
X151130000Y-98425000D03*
X148590000Y-98425000D03*
X146050000Y-98425000D03*
X143510000Y-98425000D03*
D17*
X140970000Y-98425000D03*
D16*
X138430000Y-98425000D03*
X135890000Y-98425000D03*
X133350000Y-98425000D03*
X130810000Y-98425000D03*
D17*
X128270000Y-98425000D03*
D16*
X125730000Y-98425000D03*
X123190000Y-98425000D03*
X123190000Y-80645000D03*
X125730000Y-80645000D03*
D17*
X128270000Y-80645000D03*
D16*
X130810000Y-80645000D03*
X133350000Y-80645000D03*
X135890000Y-80645000D03*
X138430000Y-80645000D03*
D17*
X140970000Y-80645000D03*
D16*
X143510000Y-80645000D03*
X146050000Y-80645000D03*
X148590000Y-80645000D03*
X151130000Y-80645000D03*
D17*
X153670000Y-80645000D03*
D16*
X156210000Y-80645000D03*
X158750000Y-80645000D03*
X161290000Y-80645000D03*
X163830000Y-80645000D03*
D17*
X166370000Y-80645000D03*
D16*
X168910000Y-80645000D03*
X171450000Y-80645000D03*
D18*
X133700000Y-132400000D03*
D19*
X136240000Y-132400000D03*
D18*
X143700000Y-132400000D03*
D19*
X146240000Y-132400000D03*
D18*
X153700000Y-132400000D03*
D19*
X156240000Y-132400000D03*
D18*
X163700000Y-132400000D03*
D19*
X166240000Y-132400000D03*
D20*
X150000000Y-106000000D03*
D21*
X192900000Y-55000000D03*
X190900000Y-56250000D03*
X192900000Y-57500000D03*
X190900000Y-58750000D03*
X192900000Y-60000000D03*
X190900000Y-61250000D03*
X192900000Y-62500000D03*
X190900000Y-63750000D03*
X192900000Y-65000000D03*
X190900000Y-66250000D03*
X192900000Y-67500000D03*
X190900000Y-68750000D03*
X192900000Y-70000000D03*
X107000000Y-70000000D03*
X109000000Y-68750000D03*
X107000000Y-67500000D03*
X109000000Y-66250000D03*
X107000000Y-65000000D03*
X109000000Y-63750000D03*
X107000000Y-62500000D03*
X109000000Y-61250000D03*
X107000000Y-60000000D03*
X109000000Y-58750000D03*
X107000000Y-57500000D03*
X109000000Y-56250000D03*
X107000000Y-55000000D03*
D22*
X198300000Y-103000000D03*
X194950000Y-103000000D03*
X193300000Y-104250000D03*
X198300000Y-105500000D03*
X194950000Y-105500000D03*
X193300000Y-106750000D03*
X198300000Y-108000000D03*
X194950000Y-108000000D03*
X193300000Y-109250000D03*
X198300000Y-110500000D03*
X194950000Y-110500000D03*
X193300000Y-111750000D03*
X198300000Y-113000000D03*
X194950000Y-113000000D03*
X193300000Y-114250000D03*
X198300000Y-115500000D03*
X194950000Y-115500000D03*
X193300000Y-116750000D03*
X198300000Y-118000000D03*
X194950000Y-118000000D03*
X101800000Y-118000000D03*
X105150000Y-118000000D03*
X106800000Y-116750000D03*
X101800000Y-115500000D03*
X105150000Y-115500000D03*
X106800000Y-114250000D03*
X101800000Y-113000000D03*
X105150000Y-113000000D03*
X106800000Y-111750000D03*
X101800000Y-110500000D03*
X105150000Y-110500000D03*
X106800000Y-109250000D03*
X101800000Y-108000000D03*
X105150000Y-108000000D03*
X106800000Y-106750000D03*
X101800000Y-105500000D03*
X105150000Y-105500000D03*
X106800000Y-104250000D03*
X101800000Y-103000000D03*
X105150000Y-103000000D03*
D17*
X173800000Y-129000000D03*
D16*
X176340000Y-129000000D03*
X178880000Y-129000000D03*
X181420000Y-129000000D03*
X183960000Y-129000000D03*
X186500000Y-129000000D03*
X189040000Y-129000000D03*
X191580000Y-129000000D03*
X194120000Y-129000000D03*
X196660000Y-129000000D03*
D17*
X126200000Y-129000000D03*
D16*
X123660000Y-129000000D03*
X121120000Y-129000000D03*
X118580000Y-129000000D03*
X116040000Y-129000000D03*
X113500000Y-129000000D03*
X110960000Y-129000000D03*
X108420000Y-129000000D03*
X105880000Y-129000000D03*
X103340000Y-129000000D03*
D23*
X150000000Y-74500000D03*
D15*
X154940000Y-129286000D03*
D14*
X154940000Y-124206000D03*
D24*
X178657000Y-126590000D03*
X179907000Y-124940000D03*
X181157000Y-126590000D03*
X182407000Y-124940000D03*
X183657000Y-126590000D03*
X184907000Y-124940000D03*
X186157000Y-126590000D03*
X187407000Y-124940000D03*
X188657000Y-126590000D03*
X189907000Y-124940000D03*
X191157000Y-126590000D03*
X192407000Y-124940000D03*
X193657000Y-126590000D03*
X106013000Y-126590000D03*
X107263000Y-124940000D03*
X108513000Y-126590000D03*
X109763000Y-124940000D03*
X111013000Y-126590000D03*
X112263000Y-124940000D03*
X113513000Y-126590000D03*
X114763000Y-124940000D03*
X116013000Y-126590000D03*
X117263000Y-124940000D03*
X118513000Y-126590000D03*
X119763000Y-124940000D03*
X121013000Y-126590000D03*
D15*
X145034000Y-129286000D03*
D14*
X145034000Y-124206000D03*
D15*
X164840000Y-129286000D03*
D14*
X164840000Y-124206000D03*
%LPD*%
M02*
